<ttFont>
    <TTGlyph name=".notdef" xMin="80" yMin="0" xMax="610" yMax="660">
      <contour>
        <pt x="80" y="660" on="1"/>
        <pt x="610" y="660" on="1"/>
        <pt x="610" y="0" on="1"/>
        <pt x="80" y="0" on="1"/>
      </contour>
      <contour>
        <pt x="273" y="340" on="1"/>
        <pt x="178" y="526" on="1"/>
        <pt x="178" y="155" on="1"/>
      </contour>
      <contour>
        <pt x="511" y="155" on="1"/>
        <pt x="511" y="526" on="1"/>
        <pt x="417" y="340" on="1"/>
      </contour>
      <contour>
        <pt x="427" y="91" on="1"/>
        <pt x="388" y="168" on="1"/>
        <pt x="347" y="266" on="1"/>
        <pt x="343" y="266" on="1"/>
        <pt x="302" y="168" on="1"/>
        <pt x="263" y="91" on="1"/>
      </contour>
      <contour>
        <pt x="347" y="414" on="1"/>
        <pt x="389" y="509" on="1"/>
        <pt x="421" y="568" on="1"/>
        <pt x="269" y="568" on="1"/>
        <pt x="300" y="509" on="1"/>
        <pt x="343" y="414" on="1"/>
      </contour>
    </TTGlyph>
    <TTGlyph name="A" xMin="-6" yMin="0" xMax="579" yMax="652">
      <contour>
        <pt x="353" y="270" on="1"/>
        <pt x="338" y="330" on="1"/>
        <pt x="324" y="379" on="0"/>
        <pt x="298" y="489" on="0"/>
        <pt x="285" y="540" on="1"/>
        <pt x="281" y="540" on="1"/>
        <pt x="269" y="488" on="0"/>
        <pt x="244" y="379" on="0"/>
        <pt x="230" y="330" on="1"/>
        <pt x="214" y="270" on="1"/>
      </contour>
      <contour>
        <pt x="383" y="155" on="1"/>
        <pt x="184" y="155" on="1"/>
        <pt x="144" y="0" on="1"/>
        <pt x="-6" y="0" on="1"/>
        <pt x="198" y="652" on="1"/>
        <pt x="375" y="652" on="1"/>
        <pt x="579" y="0" on="1"/>
        <pt x="423" y="0" on="1"/>
      </contour>
    </TTGlyph>
    <TTGlyph name="A.sc" xMin="-6" yMin="0" xMax="510" yMax="528">
      <contour>
        <pt x="301" y="214" on="1"/>
        <pt x="290" y="255" on="1"/>
        <pt x="280" y="293" on="0"/>
        <pt x="261" y="382" on="0"/>
        <pt x="250" y="421" on="1"/>
        <pt x="246" y="421" on="1"/>
        <pt x="237" y="381" on="0"/>
        <pt x="218" y="293" on="0"/>
        <pt x="208" y="255" on="1"/>
        <pt x="198" y="214" on="1"/>
      </contour>
      <contour>
        <pt x="328" y="108" on="1"/>
        <pt x="171" y="108" on="1"/>
        <pt x="143" y="0" on="1"/>
        <pt x="-6" y="0" on="1"/>
        <pt x="164" y="528" on="1"/>
        <pt x="339" y="528" on="1"/>
        <pt x="510" y="0" on="1"/>
        <pt x="356" y="0" on="1"/>
      </contour>
    </TTGlyph>
    <TTGlyph name="A.sups" xMin="-5" yMin="262" xMax="394" yMax="694">
      <contour>
        <pt x="238" y="442" on="1"/>
        <pt x="228" y="480" on="1"/>
        <pt x="220" y="512" on="0"/>
        <pt x="202" y="584" on="0"/>
        <pt x="193" y="616" on="1"/>
        <pt x="191" y="616" on="1"/>
        <pt x="183" y="583" on="0"/>
        <pt x="165" y="512" on="0"/>
        <pt x="157" y="480" on="1"/>
        <pt x="147" y="442" on="1"/>
      </contour>
      <contour>
        <pt x="258" y="362" on="1"/>
        <pt x="127" y="362" on="1"/>
        <pt x="101" y="262" on="1"/>
        <pt x="-5" y="262" on="1"/>
        <pt x="132" y="694" on="1"/>
        <pt x="257" y="694" on="1"/>
        <pt x="394" y="262" on="1"/>
        <pt x="283" y="262" on="1"/>
      </contour>
    </TTGlyph>
    <TTGlyph name="AE" xMin="-14" yMin="0" xMax="793" yMax="652">
      <contour>
        <pt x="386" y="263" on="1"/>
        <pt x="386" y="541" on="1"/>
        <pt x="382" y="541" on="1"/>
        <pt x="362" y="493" on="0"/>
        <pt x="323" y="399" on="0"/>
        <pt x="303" y="356" on="1"/>
        <pt x="261" y="263" on="1"/>
      </contour>
      <contour>
        <pt x="793" y="124" on="1"/>
        <pt x="793" y="0" on="1"/>
        <pt x="386" y="0" on="1"/>
        <pt x="386" y="149" on="1"/>
        <pt x="209" y="149" on="1"/>
        <pt x="141" y="0" on="1"/>
        <pt x="-14" y="0" on="1"/>
        <pt x="296" y="652" on="1"/>
        <pt x="783" y="652" on="1"/>
        <pt x="783" y="528" on="1"/>
        <pt x="533" y="528" on="1"/>
        <pt x="533" y="397" on="1"/>
        <pt x="744" y="397" on="1"/>
        <pt x="744" y="274" on="1"/>
        <pt x="533" y="274" on="1"/>
        <pt x="533" y="124" on="1"/>
      </contour>
    </TTGlyph>
    <TTGlyph name="AE.sc" xMin="-14" yMin="0" xMax="688" yMax="528">
      <contour>
        <pt x="331" y="212" on="1"/>
        <pt x="331" y="421" on="1"/>
        <pt x="327" y="421" on="1"/>
        <pt x="311" y="383" on="0"/>
        <pt x="282" y="312" on="0"/>
        <pt x="267" y="281" on="1"/>
        <pt x="235" y="212" on="1"/>
      </contour>
      <contour>
        <pt x="688" y="114" on="1"/>
        <pt x="688" y="0" on="1"/>
        <pt x="331" y="0" on="1"/>
        <pt x="331" y="107" on="1"/>
        <pt x="187" y="107" on="1"/>
        <pt x="138" y="0" on="1"/>
        <pt x="-14" y="0" on="1"/>
        <pt x="241" y="528" on="1"/>
        <pt x="678" y="528" on="1"/>
        <pt x="678" y="414" on="1"/>
        <pt x="478" y="414" on="1"/>
        <pt x="478" y="322" on="1"/>
        <pt x="648" y="322" on="1"/>
        <pt x="648" y="215" on="1"/>
        <pt x="478" y="215" on="1"/>
        <pt x="478" y="114" on="1"/>
      </contour>
    </TTGlyph>
    <TTGlyph name="Aacute" xMin="-6" yMin="0" xMax="579" yMax="822">
      <component glyphName="A" x="0" y="0" flags="0x204"/>
      <component glyphName="uni0301.cap" x="283" y="0" flags="0x4"/>
    </TTGlyph>
    <TTGlyph name="Aacute.sc" xMin="-6" yMin="0" xMax="510" yMax="713">
      <component glyphName="A.sc" x="0" y="0" flags="0x204"/>
      <component glyphName="uni0301.cap" x="248" y="-109" flags="0x4"/>
    </TTGlyph>
    <TTGlyph name="Abreve" xMin="-6" yMin="0" xMax="579" yMax="822">
      <component glyphName="A" x="0" y="0" flags="0x204"/>
      <component glyphName="uni0306.cap" x="283" y="0" flags="0x4"/>
    </TTGlyph>
    <TTGlyph name="Abreve.sc" xMin="-6" yMin="0" xMax="510" yMax="713">
      <component glyphName="A.sc" x="0" y="0" flags="0x204"/>
      <component glyphName="uni0306.cap" x="248" y="-109" flags="0x4"/>
    </TTGlyph>
    <TTGlyph name="Acircumflex" xMin="-6" yMin="0" xMax="579" yMax="822">
      <component glyphName="A" x="0" y="0" flags="0x204"/>
      <component glyphName="uni0302.cap" x="283" y="0" flags="0x4"/>
    </TTGlyph>
    <TTGlyph name="Acircumflex.sc" xMin="-6" yMin="0" xMax="510" yMax="713">
      <component glyphName="A.sc" x="0" y="0" flags="0x204"/>
      <component glyphName="uni0302.cap" x="248" y="-109" flags="0x4"/>
    </TTGlyph>
    <TTGlyph name="Adieresis" xMin="-6" yMin="0" xMax="579" yMax="840">
      <component glyphName="A" x="0" y="0" flags="0x204"/>
      <component glyphName="uni0308.cap" x="283" y="0" flags="0x4"/>
    </TTGlyph>
    <TTGlyph name="Adieresis.sc" xMin="-6" yMin="0" xMax="510" yMax="731">
      <component glyphName="A.sc" x="0" y="0" flags="0x204"/>
      <component glyphName="uni0308.cap" x="248" y="-109" flags="0x4"/>
    </TTGlyph>
    <TTGlyph name="Agrave" xMin="-6" yMin="0" xMax="579" yMax="822">
      <component glyphName="A" x="0" y="0" flags="0x204"/>
      <component glyphName="uni0300.cap" x="283" y="0" flags="0x4"/>
    </TTGlyph>
    <TTGlyph name="Agrave.sc" xMin="-6" yMin="0" xMax="510" yMax="713">
      <component glyphName="A.sc" x="0" y="0" flags="0x204"/>
      <component glyphName="uni0300.cap" x="248" y="-109" flags="0x4"/>
    </TTGlyph>
    <TTGlyph name="Amacron" xMin="-6" yMin="0" xMax="579" yMax="813">
      <component glyphName="A" x="0" y="0" flags="0x204"/>
      <component glyphName="uni0304.cap" x="283" y="0" flags="0x4"/>
    </TTGlyph>
    <TTGlyph name="Amacron.sc" xMin="-6" yMin="0" xMax="510" yMax="704">
      <component glyphName="A.sc" x="0" y="0" flags="0x204"/>
      <component glyphName="uni0304.cap" x="248" y="-109" flags="0x4"/>
    </TTGlyph>
    <TTGlyph name="Aogonek" xMin="-6" yMin="-223" xMax="601" yMax="652">
      <contour>
        <pt x="353" y="270" on="1"/>
        <pt x="338" y="330" on="1"/>
        <pt x="324" y="379" on="0"/>
        <pt x="298" y="489" on="0"/>
        <pt x="285" y="540" on="1"/>
        <pt x="281" y="540" on="1"/>
        <pt x="269" y="488" on="0"/>
        <pt x="244" y="379" on="0"/>
        <pt x="230" y="330" on="1"/>
        <pt x="214" y="270" on="1"/>
      </contour>
      <contour>
        <pt x="601" y="-188" on="1"/>
        <pt x="581" y="-203" on="0"/>
        <pt x="522" y="-223" on="0"/>
        <pt x="496" y="-223" on="1"/>
        <pt x="448" y="-223" on="0"/>
        <pt x="382" y="-174" on="0"/>
        <pt x="382" y="-129" on="1"/>
        <pt x="382" y="-106" on="0"/>
        <pt x="398" y="-65" on="0"/>
        <pt x="422" y="-32" on="0"/>
        <pt x="451" y="-7" on="0"/>
        <pt x="463" y="0" on="1"/>
        <pt x="423" y="0" on="1"/>
        <pt x="383" y="155" on="1"/>
        <pt x="184" y="155" on="1"/>
        <pt x="144" y="0" on="1"/>
        <pt x="-6" y="0" on="1"/>
        <pt x="198" y="652" on="1"/>
        <pt x="375" y="652" on="1"/>
        <pt x="579" y="0" on="1"/>
        <pt x="558" y="-2" on="0"/>
        <pt x="525" y="-19" on="0"/>
        <pt x="502" y="-45" on="0"/>
        <pt x="489" y="-75" on="0"/>
        <pt x="489" y="-90" on="1"/>
        <pt x="489" y="-109" on="0"/>
        <pt x="512" y="-128" on="0"/>
        <pt x="528" y="-128" on="1"/>
        <pt x="539" y="-128" on="0"/>
        <pt x="559" y="-119" on="0"/>
        <pt x="567" y="-114" on="1"/>
      </contour>
    </TTGlyph>
    <TTGlyph name="Aogonek.sc" xMin="-6" yMin="-223" xMax="531" yMax="528">
      <contour>
        <pt x="301" y="214" on="1"/>
        <pt x="290" y="255" on="1"/>
        <pt x="280" y="293" on="0"/>
        <pt x="261" y="382" on="0"/>
        <pt x="250" y="421" on="1"/>
        <pt x="246" y="421" on="1"/>
        <pt x="237" y="381" on="0"/>
        <pt x="218" y="293" on="0"/>
        <pt x="208" y="255" on="1"/>
        <pt x="198" y="214" on="1"/>
      </contour>
      <contour>
        <pt x="531" y="-188" on="1"/>
        <pt x="512" y="-203" on="0"/>
        <pt x="453" y="-223" on="0"/>
        <pt x="427" y="-223" on="1"/>
        <pt x="379" y="-223" on="0"/>
        <pt x="312" y="-174" on="0"/>
        <pt x="312" y="-129" on="1"/>
        <pt x="312" y="-106" on="0"/>
        <pt x="328" y="-65" on="0"/>
        <pt x="353" y="-32" on="0"/>
        <pt x="382" y="-7" on="0"/>
        <pt x="394" y="0" on="1"/>
        <pt x="356" y="0" on="1"/>
        <pt x="328" y="108" on="1"/>
        <pt x="171" y="108" on="1"/>
        <pt x="143" y="0" on="1"/>
        <pt x="-6" y="0" on="1"/>
        <pt x="164" y="528" on="1"/>
        <pt x="339" y="528" on="1"/>
        <pt x="510" y="0" on="1"/>
        <pt x="489" y="-2" on="0"/>
        <pt x="456" y="-19" on="0"/>
        <pt x="433" y="-45" on="0"/>
        <pt x="420" y="-75" on="0"/>
        <pt x="420" y="-90" on="1"/>
        <pt x="420" y="-109" on="0"/>
        <pt x="442" y="-128" on="0"/>
        <pt x="458" y="-128" on="1"/>
        <pt x="470" y="-128" on="0"/>
        <pt x="490" y="-119" on="0"/>
        <pt x="498" y="-114" on="1"/>
      </contour>
    </TTGlyph>
    <TTGlyph name="Aring" xMin="-6" yMin="0" xMax="579" yMax="893">
      <component glyphName="A" x="0" y="0" flags="0x204"/>
      <component glyphName="uni030A.cap" x="283" y="0" flags="0x4"/>
    </TTGlyph>
    <TTGlyph name="Aring.sc" xMin="-6" yMin="0" xMax="510" yMax="784">
      <component glyphName="A.sc" x="0" y="0" flags="0x204"/>
      <component glyphName="uni030A.cap" x="248" y="-109" flags="0x4"/>
    </TTGlyph>
    <TTGlyph name="Atilde" xMin="-6" yMin="0" xMax="579" yMax="839">
      <component glyphName="A" x="0" y="0" flags="0x204"/>
      <component glyphName="uni0303.cap" x="283" y="0" flags="0x4"/>
    </TTGlyph>
    <TTGlyph name="Atilde.sc" xMin="-6" yMin="0" xMax="510" yMax="730">
      <component glyphName="A.sc" x="0" y="0" flags="0x204"/>
      <component glyphName="uni0303.cap" x="248" y="-109" flags="0x4"/>
    </TTGlyph>
    <TTGlyph name="B" xMin="77" yMin="0" xMax="572" yMax="652">
      <contour>
        <pt x="77" y="652" on="1"/>
        <pt x="300" y="652" on="1"/>
        <pt x="351" y="652" on="0"/>
        <pt x="438" y="637" on="0"/>
        <pt x="503" y="599" on="0"/>
        <pt x="540" y="537" on="0"/>
        <pt x="540" y="490" on="1"/>
        <pt x="540" y="468" on="0"/>
        <pt x="527" y="424" on="0"/>
        <pt x="501" y="386" on="0"/>
        <pt x="459" y="356" on="0"/>
        <pt x="431" y="349" on="1"/>
        <pt x="431" y="345" on="1"/>
        <pt x="501" y="332" on="0"/>
        <pt x="572" y="258" on="0"/>
        <pt x="572" y="192" on="1"/>
        <pt x="572" y="142" on="0"/>
        <pt x="533" y="70" on="0"/>
        <pt x="464" y="23" on="0"/>
        <pt x="372" y="0" on="0"/>
        <pt x="319" y="0" on="1"/>
        <pt x="77" y="0" on="1"/>
      </contour>
      <contour>
        <pt x="293" y="389" on="1"/>
        <pt x="347" y="389" on="0"/>
        <pt x="396" y="432" on="0"/>
        <pt x="396" y="469" on="1"/>
        <pt x="396" y="506" on="0"/>
        <pt x="346" y="538" on="0"/>
        <pt x="294" y="538" on="1"/>
        <pt x="224" y="538" on="1"/>
        <pt x="224" y="389" on="1"/>
      </contour>
      <contour>
        <pt x="307" y="114" on="1"/>
        <pt x="428" y="114" on="0"/>
        <pt x="428" y="203" on="1"/>
        <pt x="428" y="246" on="0"/>
        <pt x="368" y="285" on="0"/>
        <pt x="307" y="285" on="1"/>
        <pt x="224" y="285" on="1"/>
        <pt x="224" y="114" on="1"/>
      </contour>
    </TTGlyph>
    <TTGlyph name="B.sc" xMin="77" yMin="0" xMax="513" yMax="528">
      <contour>
        <pt x="77" y="528" on="1"/>
        <pt x="276" y="528" on="1"/>
        <pt x="320" y="528" on="0"/>
        <pt x="397" y="516" on="0"/>
        <pt x="455" y="486" on="0"/>
        <pt x="488" y="435" on="0"/>
        <pt x="488" y="396" on="1"/>
        <pt x="488" y="379" on="0"/>
        <pt x="478" y="344" on="0"/>
        <pt x="455" y="313" on="0"/>
        <pt x="421" y="289" on="0"/>
        <pt x="397" y="283" on="1"/>
        <pt x="397" y="279" on="1"/>
        <pt x="454" y="267" on="0"/>
        <pt x="513" y="208" on="0"/>
        <pt x="513" y="154" on="1"/>
        <pt x="513" y="113" on="0"/>
        <pt x="478" y="55" on="0"/>
        <pt x="418" y="17" on="0"/>
        <pt x="338" y="0" on="0"/>
        <pt x="293" y="0" on="1"/>
        <pt x="77" y="0" on="1"/>
      </contour>
      <contour>
        <pt x="278" y="317" on="1"/>
        <pt x="320" y="317" on="0"/>
        <pt x="354" y="348" on="0"/>
        <pt x="354" y="373" on="1"/>
        <pt x="354" y="399" on="0"/>
        <pt x="316" y="421" on="0"/>
        <pt x="278" y="421" on="1"/>
        <pt x="224" y="421" on="1"/>
        <pt x="224" y="317" on="1"/>
      </contour>
      <contour>
        <pt x="283" y="107" on="1"/>
        <pt x="372" y="107" on="0"/>
        <pt x="372" y="168" on="1"/>
        <pt x="372" y="225" on="0"/>
        <pt x="283" y="225" on="1"/>
        <pt x="224" y="225" on="1"/>
        <pt x="224" y="107" on="1"/>
      </contour>
    </TTGlyph>
    <TTGlyph name="B.sups" xMin="50" yMin="262" xMax="386" yMax="694">
      <contour>
        <pt x="50" y="694" on="1"/>
        <pt x="203" y="694" on="1"/>
        <pt x="237" y="694" on="0"/>
        <pt x="296" y="684" on="0"/>
        <pt x="340" y="660" on="0"/>
        <pt x="365" y="619" on="0"/>
        <pt x="365" y="588" on="1"/>
        <pt x="365" y="559" on="0"/>
        <pt x="330" y="505" on="0"/>
        <pt x="292" y="493" on="1"/>
        <pt x="292" y="491" on="1"/>
        <pt x="386" y="473" on="0"/>
        <pt x="386" y="390" on="1"/>
        <pt x="386" y="357" on="0"/>
        <pt x="359" y="309" on="0"/>
        <pt x="313" y="277" on="0"/>
        <pt x="251" y="262" on="0"/>
        <pt x="216" y="262" on="1"/>
        <pt x="50" y="262" on="1"/>
      </contour>
      <contour>
        <pt x="198" y="521" on="1"/>
        <pt x="233" y="521" on="0"/>
        <pt x="264" y="549" on="0"/>
        <pt x="264" y="572" on="1"/>
        <pt x="264" y="615" on="0"/>
        <pt x="199" y="615" on="1"/>
        <pt x="154" y="615" on="1"/>
        <pt x="154" y="521" on="1"/>
      </contour>
      <contour>
        <pt x="207" y="341" on="1"/>
        <pt x="284" y="341" on="0"/>
        <pt x="284" y="398" on="1"/>
        <pt x="284" y="449" on="0"/>
        <pt x="207" y="449" on="1"/>
        <pt x="154" y="449" on="1"/>
        <pt x="154" y="341" on="1"/>
      </contour>
    </TTGlyph>
    <TTGlyph name="C" xMin="46" yMin="-12" xMax="560" yMax="664">
      <contour>
        <pt x="46" y="322" on="1"/>
        <pt x="46" y="403" on="0"/>
        <pt x="96" y="530" on="0"/>
        <pt x="181" y="618" on="0"/>
        <pt x="294" y="664" on="0"/>
        <pt x="357" y="664" on="1"/>
        <pt x="418" y="664" on="0"/>
        <pt x="517" y="613" on="0"/>
        <pt x="550" y="579" on="1"/>
        <pt x="469" y="488" on="1"/>
        <pt x="444" y="511" on="0"/>
        <pt x="393" y="537" on="0"/>
        <pt x="359" y="537" on="1"/>
        <pt x="325" y="537" on="0"/>
        <pt x="266" y="508" on="0"/>
        <pt x="222" y="454" on="0"/>
        <pt x="197" y="376" on="0"/>
        <pt x="197" y="327" on="1"/>
        <pt x="197" y="226" on="0"/>
        <pt x="283" y="115" on="0"/>
        <pt x="355" y="115" on="1"/>
        <pt x="395" y="115" on="0"/>
        <pt x="455" y="147" on="0"/>
        <pt x="479" y="173" on="1"/>
        <pt x="560" y="84" on="1"/>
        <pt x="519" y="36" on="0"/>
        <pt x="414" y="-12" on="0"/>
        <pt x="353" y="-12" on="1"/>
        <pt x="290" y="-12" on="0"/>
        <pt x="178" y="31" on="0"/>
        <pt x="94" y="115" on="0"/>
        <pt x="46" y="240" on="0"/>
      </contour>
    </TTGlyph>
    <TTGlyph name="C.sc" xMin="46" yMin="-12" xMax="498" yMax="540">
      <contour>
        <pt x="46" y="260" on="1"/>
        <pt x="46" y="327" on="0"/>
        <pt x="91" y="431" on="0"/>
        <pt x="167" y="503" on="0"/>
        <pt x="266" y="540" on="0"/>
        <pt x="321" y="540" on="1"/>
        <pt x="374" y="540" on="0"/>
        <pt x="462" y="499" on="0"/>
        <pt x="492" y="470" on="1"/>
        <pt x="412" y="382" on="1"/>
        <pt x="391" y="401" on="0"/>
        <pt x="350" y="419" on="0"/>
        <pt x="322" y="419" on="1"/>
        <pt x="296" y="419" on="0"/>
        <pt x="249" y="398" on="0"/>
        <pt x="215" y="359" on="0"/>
        <pt x="195" y="301" on="0"/>
        <pt x="195" y="265" on="1"/>
        <pt x="195" y="188" on="0"/>
        <pt x="262" y="109" on="0"/>
        <pt x="318" y="109" on="1"/>
        <pt x="351" y="109" on="0"/>
        <pt x="400" y="133" on="0"/>
        <pt x="418" y="151" on="1"/>
        <pt x="498" y="65" on="1"/>
        <pt x="462" y="26" on="0"/>
        <pt x="366" y="-12" on="0"/>
        <pt x="312" y="-12" on="1"/>
        <pt x="258" y="-12" on="0"/>
        <pt x="161" y="22" on="0"/>
        <pt x="89" y="89" on="0"/>
        <pt x="46" y="191" on="0"/>
      </contour>
    </TTGlyph>
    <TTGlyph name="C.sups" xMin="30" yMin="254" xMax="377" yMax="702">
      <contour>
        <pt x="30" y="474" on="1"/>
        <pt x="30" y="527" on="0"/>
        <pt x="64" y="612" on="0"/>
        <pt x="121" y="671" on="0"/>
        <pt x="198" y="702" on="0"/>
        <pt x="240" y="702" on="1"/>
        <pt x="282" y="702" on="0"/>
        <pt x="349" y="668" on="0"/>
        <pt x="370" y="644" on="1"/>
        <pt x="314" y="581" on="1"/>
        <pt x="297" y="595" on="0"/>
        <pt x="264" y="612" on="0"/>
        <pt x="242" y="612" on="1"/>
        <pt x="197" y="612" on="0"/>
        <pt x="137" y="540" on="0"/>
        <pt x="137" y="477" on="1"/>
        <pt x="137" y="413" on="0"/>
        <pt x="192" y="342" on="0"/>
        <pt x="239" y="342" on="1"/>
        <pt x="265" y="342" on="0"/>
        <pt x="305" y="363" on="0"/>
        <pt x="321" y="381" on="1"/>
        <pt x="377" y="319" on="1"/>
        <pt x="322" y="254" on="0"/>
        <pt x="233" y="254" on="1"/>
        <pt x="191" y="254" on="0"/>
        <pt x="118" y="282" on="0"/>
        <pt x="62" y="337" on="0"/>
        <pt x="30" y="420" on="0"/>
      </contour>
    </TTGlyph>
    <TTGlyph name="Cacute" xMin="46" yMin="-12" xMax="560" yMax="822">
      <component glyphName="C" x="0" y="0" flags="0x204"/>
      <component glyphName="uni0301.cap" x="343" y="0" flags="0x4"/>
    </TTGlyph>
    <TTGlyph name="Cacute.sc" xMin="46" yMin="-12" xMax="498" yMax="713">
      <component glyphName="C.sc" x="0" y="0" flags="0x204"/>
      <component glyphName="uni0301.cap" x="307" y="-109" flags="0x4"/>
    </TTGlyph>
    <TTGlyph name="Ccaron" xMin="46" yMin="-12" xMax="560" yMax="822">
      <component glyphName="C" x="0" y="0" flags="0x204"/>
      <component glyphName="uni030C.cap" x="343" y="0" flags="0x4"/>
    </TTGlyph>
    <TTGlyph name="Ccaron.sc" xMin="46" yMin="-12" xMax="498" yMax="713">
      <component glyphName="C.sc" x="0" y="0" flags="0x204"/>
      <component glyphName="uni030C.cap" x="307" y="-109" flags="0x4"/>
    </TTGlyph>
    <TTGlyph name="Ccedilla" xMin="46" yMin="-221" xMax="560" yMax="664">
      <component glyphName="C" x="0" y="0" flags="0x204"/>
      <component glyphName="uni0327.cap" x="350" y="0" flags="0x4"/>
    </TTGlyph>
    <TTGlyph name="Ccedilla.sc" xMin="46" yMin="-221" xMax="498" yMax="540">
      <component glyphName="C.sc" x="0" y="0" flags="0x204"/>
      <component glyphName="uni0327.cap" x="307" y="0" flags="0x4"/>
    </TTGlyph>
    <TTGlyph name="Ccircumflex" xMin="46" yMin="-12" xMax="560" yMax="822">
      <component glyphName="C" x="0" y="0" flags="0x204"/>
      <component glyphName="uni0302.cap" x="343" y="0" flags="0x4"/>
    </TTGlyph>
    <TTGlyph name="Ccircumflex.sc" xMin="46" yMin="-12" xMax="498" yMax="713">
      <component glyphName="C.sc" x="0" y="0" flags="0x204"/>
      <component glyphName="uni0302.cap" x="307" y="-109" flags="0x4"/>
    </TTGlyph>
    <TTGlyph name="Cdotaccent" xMin="46" yMin="-12" xMax="560" yMax="855">
      <component glyphName="C" x="0" y="0" flags="0x204"/>
      <component glyphName="uni0307.cap" x="343" y="0" flags="0x4"/>
    </TTGlyph>
    <TTGlyph name="Cdotaccent.sc" xMin="46" yMin="-12" xMax="498" yMax="746">
      <component glyphName="C.sc" x="0" y="0" flags="0x204"/>
      <component glyphName="uni0307.cap" x="307" y="-109" flags="0x4"/>
    </TTGlyph>
    <TTGlyph name="D" xMin="77" yMin="0" xMax="588" yMax="652">
      <contour>
        <pt x="77" y="652" on="1"/>
        <pt x="261" y="652" on="1"/>
        <pt x="336" y="652" on="0"/>
        <pt x="456" y="614" on="0"/>
        <pt x="542" y="535" on="0"/>
        <pt x="588" y="413" on="0"/>
        <pt x="588" y="329" on="1"/>
        <pt x="588" y="245" on="0"/>
        <pt x="542" y="121" on="0"/>
        <pt x="458" y="40" on="0"/>
        <pt x="341" y="0" on="0"/>
        <pt x="269" y="0" on="1"/>
        <pt x="77" y="0" on="1"/>
      </contour>
      <contour>
        <pt x="252" y="119" on="1"/>
        <pt x="294" y="119" on="0"/>
        <pt x="362" y="141" on="0"/>
        <pt x="410" y="190" on="0"/>
        <pt x="437" y="270" on="0"/>
        <pt x="437" y="329" on="1"/>
        <pt x="437" y="387" on="0"/>
        <pt x="410" y="466" on="0"/>
        <pt x="362" y="513" on="0"/>
        <pt x="294" y="533" on="0"/>
        <pt x="252" y="533" on="1"/>
        <pt x="224" y="533" on="1"/>
        <pt x="224" y="119" on="1"/>
      </contour>
    </TTGlyph>
    <TTGlyph name="D.sc" xMin="77" yMin="0" xMax="534" yMax="528">
      <contour>
        <pt x="77" y="528" on="1"/>
        <pt x="242" y="528" on="1"/>
        <pt x="305" y="528" on="0"/>
        <pt x="412" y="500" on="0"/>
        <pt x="490" y="438" on="0"/>
        <pt x="534" y="339" on="0"/>
        <pt x="534" y="267" on="1"/>
        <pt x="534" y="195" on="0"/>
        <pt x="491" y="94" on="0"/>
        <pt x="415" y="29" on="0"/>
        <pt x="312" y="0" on="0"/>
        <pt x="252" y="0" on="1"/>
        <pt x="77" y="0" on="1"/>
      </contour>
      <contour>
        <pt x="251" y="114" on="1"/>
        <pt x="314" y="114" on="0"/>
        <pt x="383" y="185" on="0"/>
        <pt x="383" y="267" on="1"/>
        <pt x="383" y="347" on="0"/>
        <pt x="313" y="414" on="0"/>
        <pt x="251" y="414" on="1"/>
        <pt x="224" y="414" on="1"/>
        <pt x="224" y="114" on="1"/>
      </contour>
    </TTGlyph>
    <TTGlyph name="D.sups" xMin="50" yMin="262" xMax="397" yMax="694">
      <contour>
        <pt x="50" y="694" on="1"/>
        <pt x="175" y="694" on="1"/>
        <pt x="226" y="694" on="0"/>
        <pt x="308" y="669" on="0"/>
        <pt x="366" y="617" on="0"/>
        <pt x="397" y="536" on="0"/>
        <pt x="397" y="481" on="1"/>
        <pt x="397" y="425" on="0"/>
        <pt x="366" y="342" on="0"/>
        <pt x="309" y="288" on="0"/>
        <pt x="229" y="262" on="0"/>
        <pt x="181" y="262" on="1"/>
        <pt x="50" y="262" on="1"/>
      </contour>
      <contour>
        <pt x="172" y="344" on="1"/>
        <pt x="199" y="344" on="0"/>
        <pt x="242" y="358" on="0"/>
        <pt x="273" y="390" on="0"/>
        <pt x="290" y="442" on="0"/>
        <pt x="290" y="480" on="1"/>
        <pt x="290" y="519" on="0"/>
        <pt x="273" y="570" on="0"/>
        <pt x="242" y="599" on="0"/>
        <pt x="198" y="611" on="0"/>
        <pt x="171" y="611" on="1"/>
        <pt x="154" y="611" on="1"/>
        <pt x="154" y="344" on="1"/>
      </contour>
    </TTGlyph>
    <TTGlyph name="Dcaron" xMin="77" yMin="0" xMax="588" yMax="822">
      <component glyphName="D" x="0" y="0" flags="0x204"/>
      <component glyphName="uni030C.cap" x="318" y="0" flags="0x4"/>
    </TTGlyph>
    <TTGlyph name="Dcaron.sc" xMin="77" yMin="0" xMax="534" yMax="713">
      <component glyphName="D.sc" x="0" y="0" flags="0x4"/>
      <component glyphName="uni030C.cap" x="296" y="-109" flags="0x4"/>
    </TTGlyph>
    <TTGlyph name="Dcroat" xMin="26" yMin="0" xMax="613" yMax="652">
      <component glyphName="Eth" x="0" y="0" flags="0x204"/>
    </TTGlyph>
    <TTGlyph name="Dcroat.sc" xMin="26" yMin="0" xMax="558" yMax="528">
      <component glyphName="Eth.sc" x="0" y="0" flags="0x204"/>
    </TTGlyph>
    <TTGlyph name="E" xMin="77" yMin="0" xMax="495" yMax="652">
      <contour>
        <pt x="77" y="652" on="1"/>
        <pt x="485" y="652" on="1"/>
        <pt x="485" y="528" on="1"/>
        <pt x="224" y="528" on="1"/>
        <pt x="224" y="397" on="1"/>
        <pt x="446" y="397" on="1"/>
        <pt x="446" y="274" on="1"/>
        <pt x="224" y="274" on="1"/>
        <pt x="224" y="124" on="1"/>
        <pt x="495" y="124" on="1"/>
        <pt x="495" y="0" on="1"/>
        <pt x="77" y="0" on="1"/>
      </contour>
    </TTGlyph>
    <TTGlyph name="E.sc" xMin="77" yMin="0" xMax="446" yMax="528">
      <contour>
        <pt x="77" y="528" on="1"/>
        <pt x="436" y="528" on="1"/>
        <pt x="436" y="414" on="1"/>
        <pt x="224" y="414" on="1"/>
        <pt x="224" y="322" on="1"/>
        <pt x="406" y="322" on="1"/>
        <pt x="406" y="215" on="1"/>
        <pt x="224" y="215" on="1"/>
        <pt x="224" y="114" on="1"/>
        <pt x="446" y="114" on="1"/>
        <pt x="446" y="0" on="1"/>
        <pt x="77" y="0" on="1"/>
      </contour>
    </TTGlyph>
    <TTGlyph name="E.sups" xMin="50" yMin="262" xMax="334" yMax="694">
      <contour>
        <pt x="50" y="694" on="1"/>
        <pt x="328" y="694" on="1"/>
        <pt x="328" y="608" on="1"/>
        <pt x="154" y="608" on="1"/>
        <pt x="154" y="527" on="1"/>
        <pt x="302" y="527" on="1"/>
        <pt x="302" y="441" on="1"/>
        <pt x="154" y="441" on="1"/>
        <pt x="154" y="348" on="1"/>
        <pt x="334" y="348" on="1"/>
        <pt x="334" y="262" on="1"/>
        <pt x="50" y="262" on="1"/>
      </contour>
    </TTGlyph>
    <TTGlyph name="Eacute" xMin="77" yMin="0" xMax="495" yMax="822">
      <component glyphName="E" x="0" y="0" flags="0x204"/>
      <component glyphName="uni0301.cap" x="288" y="0" flags="0x4"/>
    </TTGlyph>
    <TTGlyph name="Eacute.sc" xMin="77" yMin="0" xMax="446" yMax="713">
      <component glyphName="E.sc" x="0" y="0" flags="0x204"/>
      <component glyphName="uni0301.cap" x="269" y="-109" flags="0x4"/>
    </TTGlyph>
    <TTGlyph name="Ebreve" xMin="77" yMin="0" xMax="495" yMax="822">
      <component glyphName="E" x="0" y="0" flags="0x204"/>
      <component glyphName="uni0306.cap" x="288" y="0" flags="0x4"/>
    </TTGlyph>
    <TTGlyph name="Ebreve.sc" xMin="77" yMin="0" xMax="446" yMax="713">
      <component glyphName="E.sc" x="0" y="0" flags="0x204"/>
      <component glyphName="uni0306.cap" x="269" y="-109" flags="0x4"/>
    </TTGlyph>
    <TTGlyph name="Ecaron" xMin="77" yMin="0" xMax="495" yMax="822">
      <component glyphName="E" x="0" y="0" flags="0x204"/>
      <component glyphName="uni030C.cap" x="288" y="0" flags="0x4"/>
    </TTGlyph>
    <TTGlyph name="Ecaron.sc" xMin="77" yMin="0" xMax="446" yMax="713">
      <component glyphName="E.sc" x="0" y="0" flags="0x204"/>
      <component glyphName="uni030C.cap" x="269" y="-109" flags="0x4"/>
    </TTGlyph>
    <TTGlyph name="Ecircumflex" xMin="77" yMin="0" xMax="495" yMax="822">
      <component glyphName="E" x="0" y="0" flags="0x204"/>
      <component glyphName="uni0302.cap" x="288" y="0" flags="0x4"/>
    </TTGlyph>
    <TTGlyph name="Ecircumflex.sc" xMin="77" yMin="0" xMax="446" yMax="713">
      <component glyphName="E.sc" x="0" y="0" flags="0x204"/>
      <component glyphName="uni0302.cap" x="269" y="-109" flags="0x4"/>
    </TTGlyph>
    <TTGlyph name="Edieresis" xMin="77" yMin="0" xMax="495" yMax="840">
      <component glyphName="E" x="0" y="0" flags="0x204"/>
      <component glyphName="uni0308.cap" x="288" y="0" flags="0x4"/>
    </TTGlyph>
    <TTGlyph name="Edieresis.sc" xMin="77" yMin="0" xMax="446" yMax="731">
      <component glyphName="E.sc" x="0" y="0" flags="0x204"/>
      <component glyphName="uni0308.cap" x="269" y="-109" flags="0x4"/>
    </TTGlyph>
    <TTGlyph name="Edotaccent" xMin="77" yMin="0" xMax="495" yMax="855">
      <component glyphName="E" x="0" y="0" flags="0x204"/>
      <component glyphName="uni0307.cap" x="288" y="0" flags="0x4"/>
    </TTGlyph>
    <TTGlyph name="Edotaccent.sc" xMin="77" yMin="0" xMax="446" yMax="746">
      <component glyphName="E.sc" x="0" y="0" flags="0x204"/>
      <component glyphName="uni0307.cap" x="269" y="-109" flags="0x4"/>
    </TTGlyph>
    <TTGlyph name="Egrave" xMin="77" yMin="0" xMax="495" yMax="822">
      <component glyphName="E" x="0" y="0" flags="0x204"/>
      <component glyphName="uni0300.cap" x="288" y="0" flags="0x4"/>
    </TTGlyph>
    <TTGlyph name="Egrave.sc" xMin="77" yMin="0" xMax="446" yMax="713">
      <component glyphName="E.sc" x="0" y="0" flags="0x204"/>
      <component glyphName="uni0300.cap" x="269" y="-109" flags="0x4"/>
    </TTGlyph>
    <TTGlyph name="Emacron" xMin="77" yMin="0" xMax="495" yMax="813">
      <component glyphName="E" x="0" y="0" flags="0x204"/>
      <component glyphName="uni0304.cap" x="288" y="0" flags="0x4"/>
    </TTGlyph>
    <TTGlyph name="Emacron.sc" xMin="77" yMin="0" xMax="446" yMax="704">
      <component glyphName="E.sc" x="0" y="0" flags="0x204"/>
      <component glyphName="uni0304.cap" x="269" y="-109" flags="0x4"/>
    </TTGlyph>
    <TTGlyph name="Eogonek" xMin="77" yMin="-223" xMax="516" yMax="652">
      <contour>
        <pt x="77" y="652" on="1"/>
        <pt x="485" y="652" on="1"/>
        <pt x="485" y="528" on="1"/>
        <pt x="224" y="528" on="1"/>
        <pt x="224" y="397" on="1"/>
        <pt x="446" y="397" on="1"/>
        <pt x="446" y="274" on="1"/>
        <pt x="224" y="274" on="1"/>
        <pt x="224" y="124" on="1"/>
        <pt x="495" y="124" on="1"/>
        <pt x="495" y="0" on="1"/>
        <pt x="490" y="0" on="1"/>
        <pt x="473" y="-1" on="0"/>
        <pt x="442" y="-17" on="0"/>
        <pt x="418" y="-42" on="0"/>
        <pt x="404" y="-74" on="0"/>
        <pt x="404" y="-90" on="1"/>
        <pt x="404" y="-110" on="0"/>
        <pt x="430" y="-128" on="0"/>
        <pt x="446" y="-128" on="1"/>
        <pt x="456" y="-128" on="0"/>
        <pt x="474" y="-119" on="0"/>
        <pt x="482" y="-114" on="1"/>
        <pt x="516" y="-188" on="1"/>
        <pt x="496" y="-203" on="0"/>
        <pt x="437" y="-223" on="0"/>
        <pt x="411" y="-223" on="1"/>
        <pt x="363" y="-223" on="0"/>
        <pt x="296" y="-174" on="0"/>
        <pt x="296" y="-129" on="1"/>
        <pt x="296" y="-106" on="0"/>
        <pt x="311" y="-66" on="0"/>
        <pt x="334" y="-33" on="0"/>
        <pt x="362" y="-8" on="0"/>
        <pt x="375" y="0" on="1"/>
        <pt x="77" y="0" on="1"/>
      </contour>
    </TTGlyph>
    <TTGlyph name="Eogonek.sc" xMin="77" yMin="-223" xMax="466" yMax="528">
      <contour>
        <pt x="77" y="528" on="1"/>
        <pt x="436" y="528" on="1"/>
        <pt x="436" y="414" on="1"/>
        <pt x="224" y="414" on="1"/>
        <pt x="224" y="322" on="1"/>
        <pt x="406" y="322" on="1"/>
        <pt x="406" y="215" on="1"/>
        <pt x="224" y="215" on="1"/>
        <pt x="224" y="114" on="1"/>
        <pt x="446" y="114" on="1"/>
        <pt x="446" y="0" on="1"/>
        <pt x="441" y="0" on="1"/>
        <pt x="424" y="-1" on="0"/>
        <pt x="393" y="-17" on="0"/>
        <pt x="369" y="-42" on="0"/>
        <pt x="355" y="-74" on="0"/>
        <pt x="355" y="-90" on="1"/>
        <pt x="355" y="-110" on="0"/>
        <pt x="381" y="-128" on="0"/>
        <pt x="397" y="-128" on="1"/>
        <pt x="407" y="-128" on="0"/>
        <pt x="425" y="-119" on="0"/>
        <pt x="433" y="-114" on="1"/>
        <pt x="466" y="-188" on="1"/>
        <pt x="447" y="-203" on="0"/>
        <pt x="388" y="-223" on="0"/>
        <pt x="362" y="-223" on="1"/>
        <pt x="314" y="-223" on="0"/>
        <pt x="247" y="-174" on="0"/>
        <pt x="247" y="-129" on="1"/>
        <pt x="247" y="-106" on="0"/>
        <pt x="262" y="-66" on="0"/>
        <pt x="285" y="-33" on="0"/>
        <pt x="313" y="-8" on="0"/>
        <pt x="326" y="0" on="1"/>
        <pt x="77" y="0" on="1"/>
      </contour>
    </TTGlyph>
    <TTGlyph name="Eth" xMin="26" yMin="0" xMax="613" yMax="652">
      <contour>
        <pt x="277" y="119" on="1"/>
        <pt x="319" y="119" on="0"/>
        <pt x="387" y="141" on="0"/>
        <pt x="435" y="190" on="0"/>
        <pt x="462" y="270" on="0"/>
        <pt x="462" y="329" on="1"/>
        <pt x="462" y="387" on="0"/>
        <pt x="435" y="466" on="0"/>
        <pt x="387" y="513" on="0"/>
        <pt x="319" y="533" on="0"/>
        <pt x="277" y="533" on="1"/>
        <pt x="249" y="533" on="1"/>
        <pt x="249" y="372" on="1"/>
        <pt x="374" y="372" on="1"/>
        <pt x="374" y="301" on="1"/>
        <pt x="249" y="301" on="1"/>
        <pt x="249" y="119" on="1"/>
      </contour>
      <contour>
        <pt x="286" y="652" on="1"/>
        <pt x="361" y="652" on="0"/>
        <pt x="481" y="614" on="0"/>
        <pt x="567" y="535" on="0"/>
        <pt x="613" y="413" on="0"/>
        <pt x="613" y="329" on="1"/>
        <pt x="613" y="245" on="0"/>
        <pt x="567" y="121" on="0"/>
        <pt x="483" y="40" on="0"/>
        <pt x="366" y="0" on="0"/>
        <pt x="294" y="0" on="1"/>
        <pt x="102" y="0" on="1"/>
        <pt x="102" y="301" on="1"/>
        <pt x="26" y="301" on="1"/>
        <pt x="26" y="367" on="1"/>
        <pt x="102" y="372" on="1"/>
        <pt x="102" y="652" on="1"/>
      </contour>
    </TTGlyph>
    <TTGlyph name="Eth.sc" xMin="26" yMin="0" xMax="558" yMax="528">
      <contour>
        <pt x="275" y="114" on="1"/>
        <pt x="338" y="114" on="0"/>
        <pt x="407" y="185" on="0"/>
        <pt x="407" y="267" on="1"/>
        <pt x="407" y="347" on="0"/>
        <pt x="338" y="414" on="0"/>
        <pt x="275" y="414" on="1"/>
        <pt x="249" y="414" on="1"/>
        <pt x="249" y="306" on="1"/>
        <pt x="343" y="306" on="1"/>
        <pt x="343" y="235" on="1"/>
        <pt x="249" y="235" on="1"/>
        <pt x="249" y="114" on="1"/>
      </contour>
      <contour>
        <pt x="267" y="528" on="1"/>
        <pt x="330" y="528" on="0"/>
        <pt x="437" y="500" on="0"/>
        <pt x="514" y="438" on="0"/>
        <pt x="558" y="339" on="0"/>
        <pt x="558" y="267" on="1"/>
        <pt x="558" y="195" on="0"/>
        <pt x="515" y="94" on="0"/>
        <pt x="439" y="29" on="0"/>
        <pt x="336" y="0" on="0"/>
        <pt x="276" y="0" on="1"/>
        <pt x="101" y="0" on="1"/>
        <pt x="101" y="235" on="1"/>
        <pt x="26" y="235" on="1"/>
        <pt x="26" y="300" on="1"/>
        <pt x="101" y="306" on="1"/>
        <pt x="101" y="528" on="1"/>
      </contour>
    </TTGlyph>
    <TTGlyph name="Euro" xMin="21" yMin="-12" xMax="519" yMax="647">
      <contour>
        <pt x="519" y="80" on="1"/>
        <pt x="483" y="35" on="0"/>
        <pt x="391" y="-12" on="0"/>
        <pt x="337" y="-12" on="1"/>
        <pt x="243" y="-12" on="0"/>
        <pt x="106" y="103" on="0"/>
        <pt x="83" y="215" on="1"/>
        <pt x="21" y="215" on="1"/>
        <pt x="21" y="284" on="1"/>
        <pt x="75" y="288" on="1"/>
        <pt x="74" y="295" on="0"/>
        <pt x="74" y="307" on="0"/>
        <pt x="74" y="314" on="1"/>
        <pt x="74" y="321" on="0"/>
        <pt x="74" y="333" on="0"/>
        <pt x="75" y="340" on="1"/>
        <pt x="21" y="340" on="1"/>
        <pt x="21" y="408" on="1"/>
        <pt x="83" y="413" on="1"/>
        <pt x="95" y="469" on="0"/>
        <pt x="143" y="556" on="0"/>
        <pt x="212" y="616" on="0"/>
        <pt x="298" y="647" on="0"/>
        <pt x="348" y="647" on="1"/>
        <pt x="393" y="647" on="0"/>
        <pt x="479" y="607" on="0"/>
        <pt x="511" y="569" on="1"/>
        <pt x="429" y="490" on="1"/>
        <pt x="410" y="509" on="0"/>
        <pt x="369" y="533" on="0"/>
        <pt x="343" y="533" on="1"/>
        <pt x="300" y="533" on="0"/>
        <pt x="243" y="471" on="0"/>
        <pt x="231" y="414" on="1"/>
        <pt x="445" y="414" on="1"/>
        <pt x="445" y="340" on="1"/>
        <pt x="222" y="340" on="1"/>
        <pt x="222" y="319" on="1"/>
        <pt x="222" y="311" on="0"/>
        <pt x="222" y="297" on="0"/>
        <pt x="223" y="290" on="1"/>
        <pt x="405" y="290" on="1"/>
        <pt x="405" y="215" on="1"/>
        <pt x="233" y="215" on="1"/>
        <pt x="247" y="160" on="0"/>
        <pt x="304" y="102" on="0"/>
        <pt x="346" y="102" on="1"/>
        <pt x="375" y="102" on="0"/>
        <pt x="418" y="130" on="0"/>
        <pt x="438" y="156" on="1"/>
      </contour>
    </TTGlyph>
    <TTGlyph name="F" xMin="77" yMin="0" xMax="488" yMax="652">
      <contour>
        <pt x="77" y="652" on="1"/>
        <pt x="488" y="652" on="1"/>
        <pt x="488" y="528" on="1"/>
        <pt x="224" y="528" on="1"/>
        <pt x="224" y="377" on="1"/>
        <pt x="450" y="377" on="1"/>
        <pt x="450" y="253" on="1"/>
        <pt x="224" y="253" on="1"/>
        <pt x="224" y="0" on="1"/>
        <pt x="77" y="0" on="1"/>
      </contour>
    </TTGlyph>
    <TTGlyph name="F.sc" xMin="77" yMin="0" xMax="439" yMax="528">
      <contour>
        <pt x="77" y="528" on="1"/>
        <pt x="439" y="528" on="1"/>
        <pt x="439" y="408" on="1"/>
        <pt x="224" y="408" on="1"/>
        <pt x="224" y="302" on="1"/>
        <pt x="409" y="302" on="1"/>
        <pt x="409" y="192" on="1"/>
        <pt x="224" y="192" on="1"/>
        <pt x="224" y="0" on="1"/>
        <pt x="77" y="0" on="1"/>
      </contour>
    </TTGlyph>
    <TTGlyph name="F.sups" xMin="50" yMin="262" xMax="330" yMax="694">
      <contour>
        <pt x="50" y="694" on="1"/>
        <pt x="330" y="694" on="1"/>
        <pt x="330" y="608" on="1"/>
        <pt x="154" y="608" on="1"/>
        <pt x="154" y="512" on="1"/>
        <pt x="304" y="512" on="1"/>
        <pt x="304" y="426" on="1"/>
        <pt x="154" y="426" on="1"/>
        <pt x="154" y="262" on="1"/>
        <pt x="50" y="262" on="1"/>
      </contour>
    </TTGlyph>
    <TTGlyph name="G" xMin="46" yMin="-12" xMax="580" yMax="664">
      <contour>
        <pt x="46" y="322" on="1"/>
        <pt x="46" y="403" on="0"/>
        <pt x="97" y="530" on="0"/>
        <pt x="184" y="618" on="0"/>
        <pt x="301" y="664" on="0"/>
        <pt x="367" y="664" on="1"/>
        <pt x="436" y="664" on="0"/>
        <pt x="537" y="612" on="0"/>
        <pt x="569" y="579" on="1"/>
        <pt x="488" y="488" on="1"/>
        <pt x="464" y="511" on="0"/>
        <pt x="411" y="537" on="0"/>
        <pt x="369" y="537" on="1"/>
        <pt x="331" y="537" on="0"/>
        <pt x="268" y="508" on="0"/>
        <pt x="222" y="454" on="0"/>
        <pt x="197" y="376" on="0"/>
        <pt x="197" y="327" on="1"/>
        <pt x="197" y="226" on="0"/>
        <pt x="288" y="115" on="0"/>
        <pt x="380" y="115" on="1"/>
        <pt x="400" y="115" on="0"/>
        <pt x="438" y="125" on="0"/>
        <pt x="450" y="135" on="1"/>
        <pt x="450" y="247" on="1"/>
        <pt x="342" y="247" on="1"/>
        <pt x="342" y="367" on="1"/>
        <pt x="580" y="367" on="1"/>
        <pt x="580" y="67" on="1"/>
        <pt x="545" y="34" on="0"/>
        <pt x="431" y="-12" on="0"/>
        <pt x="362" y="-12" on="1"/>
        <pt x="296" y="-12" on="0"/>
        <pt x="181" y="31" on="0"/>
        <pt x="95" y="115" on="0"/>
        <pt x="46" y="240" on="0"/>
      </contour>
    </TTGlyph>
    <TTGlyph name="G.sc" xMin="46" yMin="-12" xMax="518" yMax="540">
      <contour>
        <pt x="46" y="260" on="1"/>
        <pt x="46" y="327" on="0"/>
        <pt x="91" y="431" on="0"/>
        <pt x="168" y="503" on="0"/>
        <pt x="271" y="540" on="0"/>
        <pt x="329" y="540" on="1"/>
        <pt x="389" y="540" on="0"/>
        <pt x="477" y="497" on="0"/>
        <pt x="507" y="469" on="1"/>
        <pt x="428" y="382" on="1"/>
        <pt x="407" y="401" on="0"/>
        <pt x="363" y="420" on="0"/>
        <pt x="330" y="420" on="1"/>
        <pt x="271" y="420" on="0"/>
        <pt x="195" y="338" on="0"/>
        <pt x="195" y="260" on="1"/>
        <pt x="195" y="188" on="0"/>
        <pt x="264" y="105" on="0"/>
        <pt x="337" y="105" on="1"/>
        <pt x="369" y="105" on="0"/>
        <pt x="389" y="119" on="1"/>
        <pt x="389" y="202" on="1"/>
        <pt x="304" y="202" on="1"/>
        <pt x="304" y="304" on="1"/>
        <pt x="518" y="304" on="1"/>
        <pt x="518" y="53" on="1"/>
        <pt x="487" y="24" on="0"/>
        <pt x="385" y="-12" on="0"/>
        <pt x="326" y="-12" on="1"/>
        <pt x="268" y="-12" on="0"/>
        <pt x="166" y="22" on="0"/>
        <pt x="90" y="89" on="0"/>
        <pt x="46" y="191" on="0"/>
      </contour>
    </TTGlyph>
    <TTGlyph name="G.sups" xMin="30" yMin="254" xMax="394" yMax="702">
      <contour>
        <pt x="30" y="475" on="1"/>
        <pt x="30" y="529" on="0"/>
        <pt x="64" y="613" on="0"/>
        <pt x="124" y="672" on="0"/>
        <pt x="203" y="702" on="0"/>
        <pt x="248" y="702" on="1"/>
        <pt x="294" y="702" on="0"/>
        <pt x="361" y="669" on="0"/>
        <pt x="386" y="647" on="1"/>
        <pt x="327" y="581" on="1"/>
        <pt x="311" y="596" on="0"/>
        <pt x="277" y="612" on="0"/>
        <pt x="248" y="612" on="1"/>
        <pt x="199" y="612" on="0"/>
        <pt x="137" y="542" on="0"/>
        <pt x="137" y="479" on="1"/>
        <pt x="137" y="414" on="0"/>
        <pt x="196" y="342" on="0"/>
        <pt x="256" y="342" on="1"/>
        <pt x="285" y="342" on="0"/>
        <pt x="300" y="354" on="1"/>
        <pt x="300" y="424" on="1"/>
        <pt x="230" y="424" on="1"/>
        <pt x="230" y="508" on="1"/>
        <pt x="394" y="508" on="1"/>
        <pt x="394" y="307" on="1"/>
        <pt x="368" y="287" on="0"/>
        <pt x="290" y="254" on="0"/>
        <pt x="245" y="254" on="1"/>
        <pt x="200" y="254" on="0"/>
        <pt x="122" y="282" on="0"/>
        <pt x="63" y="338" on="0"/>
        <pt x="30" y="421" on="0"/>
      </contour>
    </TTGlyph>
    <TTGlyph name="Gbreve" xMin="46" yMin="-12" xMax="580" yMax="822">
      <component glyphName="G" x="0" y="0" flags="0x204"/>
      <component glyphName="uni0306.cap" x="367" y="0" flags="0x4"/>
    </TTGlyph>
    <TTGlyph name="Gbreve.sc" xMin="46" yMin="-12" xMax="518" yMax="713">
      <component glyphName="G.sc" x="0" y="0" flags="0x204"/>
      <component glyphName="uni0306.cap" x="320" y="-109" flags="0x4"/>
    </TTGlyph>
    <TTGlyph name="Gcaron" xMin="46" yMin="-12" xMax="580" yMax="822">
      <component glyphName="G" x="0" y="0" flags="0x204"/>
      <component glyphName="uni030C.cap" x="367" y="0" flags="0x4"/>
    </TTGlyph>
    <TTGlyph name="Gcaron.sc" xMin="46" yMin="-12" xMax="518" yMax="713">
      <component glyphName="G.sc" x="0" y="0" flags="0x204"/>
      <component glyphName="uni030C.cap" x="320" y="-109" flags="0x4"/>
    </TTGlyph>
    <TTGlyph name="Gcircumflex" xMin="46" yMin="-12" xMax="580" yMax="822">
      <component glyphName="G" x="0" y="0" flags="0x204"/>
      <component glyphName="uni0302.cap" x="367" y="0" flags="0x4"/>
    </TTGlyph>
    <TTGlyph name="Gcircumflex.sc" xMin="46" yMin="-12" xMax="518" yMax="713">
      <component glyphName="G.sc" x="0" y="0" flags="0x204"/>
      <component glyphName="uni0302.cap" x="320" y="-109" flags="0x4"/>
    </TTGlyph>
    <TTGlyph name="Gdotaccent" xMin="46" yMin="-12" xMax="580" yMax="855">
      <component glyphName="G" x="0" y="0" flags="0x204"/>
      <component glyphName="uni0307.cap" x="367" y="0" flags="0x4"/>
    </TTGlyph>
    <TTGlyph name="Gdotaccent.sc" xMin="46" yMin="-12" xMax="518" yMax="746">
      <component glyphName="G.sc" x="0" y="0" flags="0x204"/>
      <component glyphName="uni0307.cap" x="320" y="-109" flags="0x4"/>
    </TTGlyph>
    <TTGlyph name="H" xMin="77" yMin="0" xMax="597" yMax="652">
      <contour>
        <pt x="77" y="652" on="1"/>
        <pt x="224" y="652" on="1"/>
        <pt x="224" y="401" on="1"/>
        <pt x="449" y="401" on="1"/>
        <pt x="449" y="652" on="1"/>
        <pt x="597" y="652" on="1"/>
        <pt x="597" y="0" on="1"/>
        <pt x="449" y="0" on="1"/>
        <pt x="449" y="272" on="1"/>
        <pt x="224" y="272" on="1"/>
        <pt x="224" y="0" on="1"/>
        <pt x="77" y="0" on="1"/>
      </contour>
    </TTGlyph>
    <TTGlyph name="H.sc" xMin="77" yMin="0" xMax="545" yMax="528">
      <contour>
        <pt x="77" y="528" on="1"/>
        <pt x="224" y="528" on="1"/>
        <pt x="224" y="334" on="1"/>
        <pt x="397" y="334" on="1"/>
        <pt x="397" y="528" on="1"/>
        <pt x="545" y="528" on="1"/>
        <pt x="545" y="0" on="1"/>
        <pt x="397" y="0" on="1"/>
        <pt x="397" y="207" on="1"/>
        <pt x="224" y="207" on="1"/>
        <pt x="224" y="0" on="1"/>
        <pt x="77" y="0" on="1"/>
      </contour>
    </TTGlyph>
    <TTGlyph name="H.sups" xMin="50" yMin="262" xMax="403" yMax="694">
      <contour>
        <pt x="50" y="694" on="1"/>
        <pt x="154" y="694" on="1"/>
        <pt x="154" y="529" on="1"/>
        <pt x="299" y="529" on="1"/>
        <pt x="299" y="694" on="1"/>
        <pt x="403" y="694" on="1"/>
        <pt x="403" y="262" on="1"/>
        <pt x="299" y="262" on="1"/>
        <pt x="299" y="440" on="1"/>
        <pt x="154" y="440" on="1"/>
        <pt x="154" y="262" on="1"/>
        <pt x="50" y="262" on="1"/>
      </contour>
    </TTGlyph>
    <TTGlyph name="Hbar" xMin="25" yMin="0" xMax="687" yMax="652">
      <contour>
        <pt x="469" y="486" on="1"/>
        <pt x="244" y="486" on="1"/>
        <pt x="244" y="401" on="1"/>
        <pt x="469" y="401" on="1"/>
      </contour>
      <contour>
        <pt x="687" y="486" on="1"/>
        <pt x="617" y="486" on="1"/>
        <pt x="617" y="0" on="1"/>
        <pt x="469" y="0" on="1"/>
        <pt x="469" y="272" on="1"/>
        <pt x="244" y="272" on="1"/>
        <pt x="244" y="0" on="1"/>
        <pt x="97" y="0" on="1"/>
        <pt x="97" y="486" on="1"/>
        <pt x="25" y="486" on="1"/>
        <pt x="25" y="551" on="1"/>
        <pt x="97" y="557" on="1"/>
        <pt x="97" y="652" on="1"/>
        <pt x="244" y="652" on="1"/>
        <pt x="244" y="557" on="1"/>
        <pt x="469" y="557" on="1"/>
        <pt x="469" y="652" on="1"/>
        <pt x="617" y="652" on="1"/>
        <pt x="617" y="557" on="1"/>
        <pt x="687" y="557" on="1"/>
      </contour>
    </TTGlyph>
    <TTGlyph name="Hbar.sc" xMin="25" yMin="0" xMax="636" yMax="528">
      <contour>
        <pt x="417" y="387" on="1"/>
        <pt x="244" y="387" on="1"/>
        <pt x="244" y="326" on="1"/>
        <pt x="417" y="326" on="1"/>
      </contour>
      <contour>
        <pt x="636" y="387" on="1"/>
        <pt x="565" y="387" on="1"/>
        <pt x="565" y="0" on="1"/>
        <pt x="417" y="0" on="1"/>
        <pt x="417" y="215" on="1"/>
        <pt x="244" y="215" on="1"/>
        <pt x="244" y="0" on="1"/>
        <pt x="97" y="0" on="1"/>
        <pt x="97" y="387" on="1"/>
        <pt x="25" y="387" on="1"/>
        <pt x="25" y="452" on="1"/>
        <pt x="97" y="457" on="1"/>
        <pt x="97" y="528" on="1"/>
        <pt x="244" y="528" on="1"/>
        <pt x="244" y="457" on="1"/>
        <pt x="417" y="457" on="1"/>
        <pt x="417" y="528" on="1"/>
        <pt x="565" y="528" on="1"/>
        <pt x="565" y="457" on="1"/>
        <pt x="636" y="457" on="1"/>
      </contour>
    </TTGlyph>
    <TTGlyph name="Hcircumflex" xMin="77" yMin="0" xMax="597" yMax="822">
      <component glyphName="H" x="0" y="0" flags="0x204"/>
      <component glyphName="uni0302.cap" x="336" y="0" flags="0x4"/>
    </TTGlyph>
    <TTGlyph name="Hcircumflex.sc" xMin="77" yMin="0" xMax="545" yMax="713">
      <component glyphName="H.sc" x="0" y="0" flags="0x204"/>
      <component glyphName="uni0302.cap" x="310" y="-109" flags="0x4"/>
    </TTGlyph>
    <TTGlyph name="I" xMin="77" yMin="0" xMax="224" yMax="652">
      <contour>
        <pt x="77" y="652" on="1"/>
        <pt x="224" y="652" on="1"/>
        <pt x="224" y="0" on="1"/>
        <pt x="77" y="0" on="1"/>
      </contour>
    </TTGlyph>
    <TTGlyph name="I.a" xMin="52" yMin="0" xMax="344" yMax="652">
      <contour>
        <pt x="52" y="124" on="1"/>
        <pt x="124" y="124" on="1"/>
        <pt x="124" y="528" on="1"/>
        <pt x="52" y="528" on="1"/>
        <pt x="52" y="652" on="1"/>
        <pt x="344" y="652" on="1"/>
        <pt x="344" y="528" on="1"/>
        <pt x="271" y="528" on="1"/>
        <pt x="271" y="124" on="1"/>
        <pt x="344" y="124" on="1"/>
        <pt x="344" y="0" on="1"/>
        <pt x="52" y="0" on="1"/>
      </contour>
    </TTGlyph>
    <TTGlyph name="I.sc" xMin="77" yMin="0" xMax="224" yMax="528">
      <contour>
        <pt x="77" y="528" on="1"/>
        <pt x="224" y="528" on="1"/>
        <pt x="224" y="0" on="1"/>
        <pt x="77" y="0" on="1"/>
      </contour>
    </TTGlyph>
    <TTGlyph name="I.sups" xMin="50" yMin="262" xMax="154" yMax="694">
      <contour>
        <pt x="50" y="694" on="1"/>
        <pt x="154" y="694" on="1"/>
        <pt x="154" y="262" on="1"/>
        <pt x="50" y="262" on="1"/>
      </contour>
    </TTGlyph>
    <TTGlyph name="Iacute" xMin="75" yMin="0" xMax="312" yMax="822">
      <component glyphName="I" x="0" y="0" flags="0x204"/>
      <component glyphName="uni0301.cap" x="150" y="0" flags="0x4"/>
    </TTGlyph>
    <TTGlyph name="Iacute.a" xMin="52" yMin="0" xMax="360" yMax="822">
      <component glyphName="I.a" x="0" y="0" flags="0x204"/>
      <component glyphName="uni0301.cap" x="198" y="0" flags="0x4"/>
    </TTGlyph>
    <TTGlyph name="Iacute.sc" xMin="75" yMin="0" xMax="312" yMax="713">
      <component glyphName="I.sc" x="0" y="0" flags="0x204"/>
      <component glyphName="uni0301.cap" x="150" y="-109" flags="0x4"/>
    </TTGlyph>
    <TTGlyph name="Icircumflex" xMin="-18" yMin="0" xMax="318" yMax="822">
      <component glyphName="I" x="0" y="0" flags="0x204"/>
      <component glyphName="uni0302.cap" x="150" y="0" flags="0x4"/>
    </TTGlyph>
    <TTGlyph name="Icircumflex.a" xMin="30" yMin="0" xMax="366" yMax="822">
      <component glyphName="I.a" x="0" y="0" flags="0x204"/>
      <component glyphName="uni0302.cap" x="198" y="0" flags="0x4"/>
    </TTGlyph>
    <TTGlyph name="Icircumflex.sc" xMin="-18" yMin="0" xMax="318" yMax="713">
      <component glyphName="I.sc" x="0" y="0" flags="0x204"/>
      <component glyphName="uni0302.cap" x="150" y="-109" flags="0x4"/>
    </TTGlyph>
    <TTGlyph name="Idieresis" xMin="-19" yMin="0" xMax="319" yMax="840">
      <component glyphName="I" x="0" y="0" flags="0x204"/>
      <component glyphName="uni0308.cap" x="150" y="0" flags="0x4"/>
    </TTGlyph>
    <TTGlyph name="Idieresis.a" xMin="29" yMin="0" xMax="367" yMax="840">
      <component glyphName="I.a" x="0" y="0" flags="0x204"/>
      <component glyphName="uni0308.cap" x="198" y="0" flags="0x4"/>
    </TTGlyph>
    <TTGlyph name="Idieresis.sc" xMin="-19" yMin="0" xMax="319" yMax="731">
      <component glyphName="I.sc" x="0" y="0" flags="0x204"/>
      <component glyphName="uni0308.cap" x="150" y="-109" flags="0x4"/>
    </TTGlyph>
    <TTGlyph name="Idotaccent" xMin="65" yMin="0" xMax="235" yMax="855">
      <component glyphName="I" x="0" y="0" flags="0x204"/>
      <component glyphName="uni0307.cap" x="150" y="0" flags="0x4"/>
    </TTGlyph>
    <TTGlyph name="Idotaccent.a" xMin="52" yMin="0" xMax="344" yMax="855">
      <component glyphName="I.a" x="0" y="0" flags="0x204"/>
      <component glyphName="uni0307.cap" x="198" y="0" flags="0x4"/>
    </TTGlyph>
    <TTGlyph name="Idotaccent.sc" xMin="65" yMin="0" xMax="235" yMax="746">
      <component glyphName="I.sc" x="0" y="0" flags="0x204"/>
      <component glyphName="uni0307.cap" x="150" y="-109" flags="0x4"/>
    </TTGlyph>
    <TTGlyph name="Igrave" xMin="-12" yMin="0" xMax="225" yMax="822">
      <component glyphName="I" x="0" y="0" flags="0x204"/>
      <component glyphName="uni0300.cap" x="150" y="0" flags="0x4"/>
    </TTGlyph>
    <TTGlyph name="Igrave.a" xMin="36" yMin="0" xMax="344" yMax="822">
      <component glyphName="I.a" x="0" y="0" flags="0x204"/>
      <component glyphName="uni0300.cap" x="198" y="0" flags="0x4"/>
    </TTGlyph>
    <TTGlyph name="Igrave.sc" xMin="-12" yMin="0" xMax="225" yMax="713">
      <component glyphName="I.sc" x="0" y="0" flags="0x204"/>
      <component glyphName="uni0300.cap" x="150" y="-109" flags="0x4"/>
    </TTGlyph>
    <TTGlyph name="Imacron" xMin="9" yMin="0" xMax="291" yMax="813">
      <component glyphName="I" x="0" y="0" flags="0x204"/>
      <component glyphName="uni0304.cap" x="150" y="0" flags="0x4"/>
    </TTGlyph>
    <TTGlyph name="Imacron.a" xMin="52" yMin="0" xMax="344" yMax="813">
      <component glyphName="I.a" x="0" y="0" flags="0x204"/>
      <component glyphName="uni0304.cap" x="198" y="0" flags="0x4"/>
    </TTGlyph>
    <TTGlyph name="Imacron.sc" xMin="9" yMin="0" xMax="291" yMax="704">
      <component glyphName="I.sc" x="0" y="0" flags="0x204"/>
      <component glyphName="uni0304.cap" x="150" y="-109" flags="0x4"/>
    </TTGlyph>
    <TTGlyph name="Iogonek" xMin="42" yMin="-223" xMax="261" yMax="652">
      <contour>
        <pt x="77" y="652" on="1"/>
        <pt x="224" y="652" on="1"/>
        <pt x="224" y="0" on="1"/>
        <pt x="184" y="-17" on="0"/>
        <pt x="150" y="-64" on="0"/>
        <pt x="150" y="-90" on="1"/>
        <pt x="150" y="-110" on="0"/>
        <pt x="176" y="-128" on="0"/>
        <pt x="191" y="-128" on="1"/>
        <pt x="202" y="-128" on="0"/>
        <pt x="221" y="-119" on="0"/>
        <pt x="228" y="-114" on="1"/>
        <pt x="261" y="-188" on="1"/>
        <pt x="242" y="-203" on="0"/>
        <pt x="183" y="-223" on="0"/>
        <pt x="157" y="-223" on="1"/>
        <pt x="109" y="-223" on="0"/>
        <pt x="42" y="-174" on="0"/>
        <pt x="42" y="-129" on="1"/>
        <pt x="42" y="-105" on="0"/>
        <pt x="57" y="-65" on="0"/>
        <pt x="79" y="-32" on="0"/>
        <pt x="105" y="-8" on="0"/>
        <pt x="116" y="0" on="1"/>
        <pt x="77" y="0" on="1"/>
      </contour>
    </TTGlyph>
    <TTGlyph name="Iogonek.a" xMin="52" yMin="-223" xMax="344" yMax="652">
      <contour>
        <pt x="52" y="124" on="1"/>
        <pt x="124" y="124" on="1"/>
        <pt x="124" y="528" on="1"/>
        <pt x="52" y="528" on="1"/>
        <pt x="52" y="652" on="1"/>
        <pt x="344" y="652" on="1"/>
        <pt x="344" y="528" on="1"/>
        <pt x="271" y="528" on="1"/>
        <pt x="271" y="124" on="1"/>
        <pt x="344" y="124" on="1"/>
        <pt x="344" y="0" on="1"/>
        <pt x="251" y="0" on="1"/>
        <pt x="225" y="-21" on="0"/>
        <pt x="197" y="-67" on="0"/>
        <pt x="197" y="-90" on="1"/>
        <pt x="197" y="-110" on="0"/>
        <pt x="223" y="-128" on="0"/>
        <pt x="239" y="-128" on="1"/>
        <pt x="249" y="-128" on="0"/>
        <pt x="267" y="-119" on="0"/>
        <pt x="275" y="-114" on="1"/>
        <pt x="308" y="-188" on="1"/>
        <pt x="289" y="-203" on="0"/>
        <pt x="230" y="-223" on="0"/>
        <pt x="204" y="-223" on="1"/>
        <pt x="156" y="-223" on="0"/>
        <pt x="89" y="-174" on="0"/>
        <pt x="89" y="-129" on="1"/>
        <pt x="89" y="-106" on="0"/>
        <pt x="104" y="-66" on="0"/>
        <pt x="126" y="-33" on="0"/>
        <pt x="151" y="-8" on="0"/>
        <pt x="161" y="0" on="1"/>
        <pt x="52" y="0" on="1"/>
      </contour>
    </TTGlyph>
    <TTGlyph name="Iogonek.sc" xMin="42" yMin="-223" xMax="261" yMax="528">
      <contour>
        <pt x="77" y="528" on="1"/>
        <pt x="224" y="528" on="1"/>
        <pt x="224" y="0" on="1"/>
        <pt x="184" y="-17" on="0"/>
        <pt x="150" y="-64" on="0"/>
        <pt x="150" y="-90" on="1"/>
        <pt x="150" y="-110" on="0"/>
        <pt x="176" y="-128" on="0"/>
        <pt x="191" y="-128" on="1"/>
        <pt x="202" y="-128" on="0"/>
        <pt x="221" y="-119" on="0"/>
        <pt x="228" y="-114" on="1"/>
        <pt x="261" y="-188" on="1"/>
        <pt x="242" y="-203" on="0"/>
        <pt x="183" y="-223" on="0"/>
        <pt x="157" y="-223" on="1"/>
        <pt x="109" y="-223" on="0"/>
        <pt x="42" y="-174" on="0"/>
        <pt x="42" y="-129" on="1"/>
        <pt x="42" y="-105" on="0"/>
        <pt x="57" y="-65" on="0"/>
        <pt x="79" y="-32" on="0"/>
        <pt x="105" y="-8" on="0"/>
        <pt x="116" y="0" on="1"/>
        <pt x="77" y="0" on="1"/>
      </contour>
    </TTGlyph>
    <TTGlyph name="Itilde" xMin="-20" yMin="0" xMax="320" yMax="839">
      <component glyphName="I" x="0" y="0" flags="0x204"/>
      <component glyphName="uni0303.cap" x="150" y="0" flags="0x4"/>
    </TTGlyph>
    <TTGlyph name="Itilde.a" xMin="28" yMin="0" xMax="368" yMax="839">
      <component glyphName="I.a" x="0" y="0" flags="0x204"/>
      <component glyphName="uni0303.cap" x="198" y="0" flags="0x4"/>
    </TTGlyph>
    <TTGlyph name="Itilde.sc" xMin="-20" yMin="0" xMax="320" yMax="730">
      <component glyphName="I.sc" x="0" y="0" flags="0x204"/>
      <component glyphName="uni0303.cap" x="150" y="-109" flags="0x4"/>
    </TTGlyph>
    <TTGlyph name="J" xMin="16" yMin="-12" xMax="435" yMax="652">
      <contour>
        <pt x="116" y="180" on="1"/>
        <pt x="134" y="147" on="0"/>
        <pt x="182" y="115" on="0"/>
        <pt x="207" y="115" on="1"/>
        <pt x="247" y="115" on="0"/>
        <pt x="288" y="164" on="0"/>
        <pt x="288" y="229" on="1"/>
        <pt x="288" y="652" on="1"/>
        <pt x="435" y="652" on="1"/>
        <pt x="435" y="217" on="1"/>
        <pt x="435" y="170" on="0"/>
        <pt x="410" y="86" on="0"/>
        <pt x="359" y="24" on="0"/>
        <pt x="280" y="-12" on="0"/>
        <pt x="226" y="-12" on="1"/>
        <pt x="151" y="-12" on="0"/>
        <pt x="50" y="46" on="0"/>
        <pt x="16" y="106" on="1"/>
      </contour>
    </TTGlyph>
    <TTGlyph name="J.sc" xMin="16" yMin="-12" xMax="396" yMax="528">
      <contour>
        <pt x="114" y="162" on="1"/>
        <pt x="128" y="137" on="0"/>
        <pt x="167" y="110" on="0"/>
        <pt x="188" y="110" on="1"/>
        <pt x="217" y="110" on="0"/>
        <pt x="249" y="144" on="0"/>
        <pt x="249" y="193" on="1"/>
        <pt x="249" y="528" on="1"/>
        <pt x="396" y="528" on="1"/>
        <pt x="396" y="184" on="1"/>
        <pt x="396" y="144" on="0"/>
        <pt x="373" y="73" on="0"/>
        <pt x="325" y="19" on="0"/>
        <pt x="253" y="-12" on="0"/>
        <pt x="205" y="-12" on="1"/>
        <pt x="138" y="-12" on="0"/>
        <pt x="47" y="39" on="0"/>
        <pt x="16" y="90" on="1"/>
      </contour>
    </TTGlyph>
    <TTGlyph name="J.sups" xMin="9" yMin="254" xMax="296" yMax="694">
      <contour>
        <pt x="80" y="386" on="1"/>
        <pt x="91" y="363" on="0"/>
        <pt x="123" y="342" on="0"/>
        <pt x="140" y="342" on="1"/>
        <pt x="166" y="342" on="0"/>
        <pt x="192" y="373" on="0"/>
        <pt x="192" y="417" on="1"/>
        <pt x="192" y="694" on="1"/>
        <pt x="296" y="694" on="1"/>
        <pt x="296" y="408" on="1"/>
        <pt x="296" y="376" on="0"/>
        <pt x="279" y="320" on="0"/>
        <pt x="244" y="278" on="0"/>
        <pt x="189" y="254" on="0"/>
        <pt x="151" y="254" on="1"/>
        <pt x="100" y="254" on="0"/>
        <pt x="32" y="293" on="0"/>
        <pt x="9" y="334" on="1"/>
      </contour>
    </TTGlyph>
    <TTGlyph name="Jcircumflex" xMin="16" yMin="-12" xMax="527" yMax="822">
      <component glyphName="J" x="0" y="0" flags="0x204"/>
      <component glyphName="uni0302.cap" x="359" y="0" flags="0x4"/>
    </TTGlyph>
    <TTGlyph name="Jcircumflex.sc" xMin="16" yMin="-12" xMax="485" yMax="713">
      <component glyphName="J.sc" x="0" y="0" flags="0x204"/>
      <component glyphName="uni0302.cap" x="317" y="-109" flags="0x4"/>
    </TTGlyph>
    <TTGlyph name="K" xMin="77" yMin="0" xMax="620" yMax="652">
      <contour>
        <pt x="77" y="652" on="1"/>
        <pt x="224" y="652" on="1"/>
        <pt x="224" y="385" on="1"/>
        <pt x="228" y="385" on="1"/>
        <pt x="422" y="652" on="1"/>
        <pt x="584" y="652" on="1"/>
        <pt x="387" y="392" on="1"/>
        <pt x="620" y="0" on="1"/>
        <pt x="459" y="0" on="1"/>
        <pt x="300" y="275" on="1"/>
        <pt x="224" y="175" on="1"/>
        <pt x="224" y="0" on="1"/>
        <pt x="77" y="0" on="1"/>
      </contour>
    </TTGlyph>
    <TTGlyph name="K.sc" xMin="77" yMin="0" xMax="561" yMax="528">
      <contour>
        <pt x="77" y="528" on="1"/>
        <pt x="224" y="528" on="1"/>
        <pt x="224" y="334" on="1"/>
        <pt x="228" y="334" on="1"/>
        <pt x="372" y="528" on="1"/>
        <pt x="531" y="528" on="1"/>
        <pt x="364" y="312" on="1"/>
        <pt x="561" y="0" on="1"/>
        <pt x="404" y="0" on="1"/>
        <pt x="280" y="211" on="1"/>
        <pt x="224" y="147" on="1"/>
        <pt x="224" y="0" on="1"/>
        <pt x="77" y="0" on="1"/>
      </contour>
    </TTGlyph>
    <TTGlyph name="K.sups" xMin="50" yMin="262" xMax="420" yMax="694">
      <contour>
        <pt x="50" y="694" on="1"/>
        <pt x="154" y="694" on="1"/>
        <pt x="154" y="523" on="1"/>
        <pt x="157" y="523" on="1"/>
        <pt x="281" y="694" on="1"/>
        <pt x="396" y="694" on="1"/>
        <pt x="264" y="522" on="1"/>
        <pt x="420" y="262" on="1"/>
        <pt x="307" y="262" on="1"/>
        <pt x="203" y="443" on="1"/>
        <pt x="154" y="379" on="1"/>
        <pt x="154" y="262" on="1"/>
        <pt x="50" y="262" on="1"/>
      </contour>
    </TTGlyph>
    <TTGlyph name="L" xMin="77" yMin="0" xMax="482" yMax="652">
      <contour>
        <pt x="77" y="652" on="1"/>
        <pt x="224" y="652" on="1"/>
        <pt x="224" y="124" on="1"/>
        <pt x="482" y="124" on="1"/>
        <pt x="482" y="0" on="1"/>
        <pt x="77" y="0" on="1"/>
      </contour>
    </TTGlyph>
    <TTGlyph name="L.sc" xMin="77" yMin="0" xMax="434" yMax="528">
      <contour>
        <pt x="77" y="528" on="1"/>
        <pt x="224" y="528" on="1"/>
        <pt x="224" y="120" on="1"/>
        <pt x="434" y="120" on="1"/>
        <pt x="434" y="0" on="1"/>
        <pt x="77" y="0" on="1"/>
      </contour>
    </TTGlyph>
    <TTGlyph name="L.sups" xMin="50" yMin="262" xMax="325" yMax="694">
      <contour>
        <pt x="50" y="694" on="1"/>
        <pt x="154" y="694" on="1"/>
        <pt x="154" y="348" on="1"/>
        <pt x="325" y="348" on="1"/>
        <pt x="325" y="262" on="1"/>
        <pt x="50" y="262" on="1"/>
      </contour>
    </TTGlyph>
    <TTGlyph name="Lacute" xMin="77" yMin="0" xMax="482" yMax="822">
      <component glyphName="L" x="0" y="0" flags="0x204"/>
      <component glyphName="uni0301.cap" x="154" y="0" flags="0x4"/>
    </TTGlyph>
    <TTGlyph name="Lacute.sc" xMin="77" yMin="0" xMax="434" yMax="713">
      <component glyphName="L.sc" x="0" y="0" flags="0x204"/>
      <component glyphName="uni0301.cap" x="155" y="-109" flags="0x4"/>
    </TTGlyph>
    <TTGlyph name="Lcaron" xMin="77" yMin="0" xMax="482" yMax="733">
      <component glyphName="L" x="0" y="0" flags="0x204"/>
      <component glyphName="uni030C.a" x="374" y="-37" flags="0x4"/>
    </TTGlyph>
    <TTGlyph name="Lcaron.sc" xMin="77" yMin="0" xMax="434" yMax="629">
      <component glyphName="L.sc" x="0" y="0" flags="0x204"/>
      <component glyphName="uni030C.a" x="355" y="-141" flags="0x4"/>
    </TTGlyph>
    <TTGlyph name="Ldot" xMin="77" yMin="0" xMax="499" yMax="652">
      <component glyphName="L" x="0" y="0" flags="0x204"/>
      <component glyphName="period" x="260" y="248" flags="0x4"/>
    </TTGlyph>
    <TTGlyph name="Ldot.sc" xMin="77" yMin="0" xMax="471" yMax="528">
      <component glyphName="L.sc" x="0" y="0" flags="0x204"/>
      <component glyphName="period" x="232" y="238" flags="0x4"/>
    </TTGlyph>
    <TTGlyph name="Lslash" xMin="11" yMin="0" xMax="489" yMax="652">
      <contour>
        <pt x="489" y="124" on="1"/>
        <pt x="489" y="0" on="1"/>
        <pt x="84" y="0" on="1"/>
        <pt x="84" y="210" on="1"/>
        <pt x="11" y="167" on="1"/>
        <pt x="11" y="281" on="1"/>
        <pt x="84" y="324" on="1"/>
        <pt x="84" y="652" on="1"/>
        <pt x="232" y="652" on="1"/>
        <pt x="232" y="392" on="1"/>
        <pt x="405" y="487" on="1"/>
        <pt x="405" y="373" on="1"/>
        <pt x="232" y="278" on="1"/>
        <pt x="232" y="124" on="1"/>
      </contour>
    </TTGlyph>
    <TTGlyph name="Lslash.sc" xMin="11" yMin="0" xMax="442" yMax="528">
      <contour>
        <pt x="442" y="120" on="1"/>
        <pt x="442" y="0" on="1"/>
        <pt x="84" y="0" on="1"/>
        <pt x="84" y="148" on="1"/>
        <pt x="11" y="105" on="1"/>
        <pt x="11" y="214" on="1"/>
        <pt x="84" y="257" on="1"/>
        <pt x="84" y="528" on="1"/>
        <pt x="232" y="528" on="1"/>
        <pt x="232" y="325" on="1"/>
        <pt x="375" y="403" on="1"/>
        <pt x="375" y="294" on="1"/>
        <pt x="232" y="216" on="1"/>
        <pt x="232" y="120" on="1"/>
      </contour>
    </TTGlyph>
    <TTGlyph name="M" xMin="77" yMin="0" xMax="685" yMax="652">
      <contour>
        <pt x="77" y="652" on="1"/>
        <pt x="233" y="652" on="1"/>
        <pt x="342" y="359" on="1"/>
        <pt x="381" y="245" on="1"/>
        <pt x="385" y="245" on="1"/>
        <pt x="424" y="359" on="1"/>
        <pt x="530" y="652" on="1"/>
        <pt x="685" y="652" on="1"/>
        <pt x="685" y="0" on="1"/>
        <pt x="548" y="0" on="1"/>
        <pt x="548" y="239" on="1"/>
        <pt x="548" y="263" on="0"/>
        <pt x="552" y="321" on="0"/>
        <pt x="558" y="380" on="0"/>
        <pt x="564" y="437" on="0"/>
        <pt x="567" y="461" on="1"/>
        <pt x="563" y="461" on="1"/>
        <pt x="509" y="310" on="1"/>
        <pt x="409" y="57" on="1"/>
        <pt x="350" y="57" on="1"/>
        <pt x="250" y="310" on="1"/>
        <pt x="198" y="461" on="1"/>
        <pt x="194" y="461" on="1"/>
        <pt x="197" y="437" on="0"/>
        <pt x="203" y="380" on="0"/>
        <pt x="208" y="321" on="0"/>
        <pt x="212" y="263" on="0"/>
        <pt x="212" y="239" on="1"/>
        <pt x="212" y="0" on="1"/>
        <pt x="77" y="0" on="1"/>
      </contour>
    </TTGlyph>
    <TTGlyph name="M.sc" xMin="77" yMin="0" xMax="608" yMax="528">
      <contour>
        <pt x="77" y="528" on="1"/>
        <pt x="227" y="528" on="1"/>
        <pt x="310" y="313" on="1"/>
        <pt x="342" y="224" on="1"/>
        <pt x="346" y="224" on="1"/>
        <pt x="379" y="313" on="1"/>
        <pt x="459" y="528" on="1"/>
        <pt x="608" y="528" on="1"/>
        <pt x="608" y="0" on="1"/>
        <pt x="476" y="0" on="1"/>
        <pt x="476" y="148" on="1"/>
        <pt x="476" y="168" on="0"/>
        <pt x="480" y="220" on="0"/>
        <pt x="486" y="275" on="0"/>
        <pt x="492" y="327" on="0"/>
        <pt x="495" y="347" on="1"/>
        <pt x="491" y="347" on="1"/>
        <pt x="441" y="223" on="1"/>
        <pt x="366" y="42" on="1"/>
        <pt x="318" y="42" on="1"/>
        <pt x="243" y="223" on="1"/>
        <pt x="194" y="347" on="1"/>
        <pt x="190" y="347" on="1"/>
        <pt x="193" y="327" on="0"/>
        <pt x="199" y="275" on="0"/>
        <pt x="205" y="220" on="0"/>
        <pt x="209" y="168" on="0"/>
        <pt x="209" y="148" on="1"/>
        <pt x="209" y="0" on="1"/>
        <pt x="77" y="0" on="1"/>
      </contour>
    </TTGlyph>
    <TTGlyph name="M.sups" xMin="50" yMin="262" xMax="465" yMax="694">
      <contour>
        <pt x="50" y="694" on="1"/>
        <pt x="159" y="694" on="1"/>
        <pt x="232" y="505" on="1"/>
        <pt x="258" y="431" on="1"/>
        <pt x="261" y="431" on="1"/>
        <pt x="286" y="505" on="1"/>
        <pt x="355" y="694" on="1"/>
        <pt x="465" y="694" on="1"/>
        <pt x="465" y="262" on="1"/>
        <pt x="368" y="262" on="1"/>
        <pt x="368" y="412" on="1"/>
        <pt x="368" y="428" on="0"/>
        <pt x="371" y="468" on="0"/>
        <pt x="375" y="507" on="0"/>
        <pt x="380" y="545" on="0"/>
        <pt x="382" y="560" on="1"/>
        <pt x="379" y="560" on="1"/>
        <pt x="342" y="461" on="1"/>
        <pt x="276" y="299" on="1"/>
        <pt x="236" y="299" on="1"/>
        <pt x="171" y="461" on="1"/>
        <pt x="134" y="560" on="1"/>
        <pt x="132" y="560" on="1"/>
        <pt x="134" y="545" on="0"/>
        <pt x="138" y="507" on="0"/>
        <pt x="142" y="468" on="0"/>
        <pt x="145" y="428" on="0"/>
        <pt x="145" y="412" on="1"/>
        <pt x="145" y="262" on="1"/>
        <pt x="50" y="262" on="1"/>
      </contour>
    </TTGlyph>
    <TTGlyph name="N" xMin="77" yMin="0" xMax="588" yMax="652">
      <contour>
        <pt x="77" y="652" on="1"/>
        <pt x="228" y="652" on="1"/>
        <pt x="398" y="328" on="1"/>
        <pt x="462" y="184" on="1"/>
        <pt x="466" y="184" on="1"/>
        <pt x="461" y="236" on="0"/>
        <pt x="448" y="364" on="0"/>
        <pt x="448" y="422" on="1"/>
        <pt x="448" y="652" on="1"/>
        <pt x="588" y="652" on="1"/>
        <pt x="588" y="0" on="1"/>
        <pt x="437" y="0" on="1"/>
        <pt x="267" y="325" on="1"/>
        <pt x="203" y="467" on="1"/>
        <pt x="199" y="467" on="1"/>
        <pt x="204" y="413" on="0"/>
        <pt x="217" y="289" on="0"/>
        <pt x="217" y="231" on="1"/>
        <pt x="217" y="0" on="1"/>
        <pt x="77" y="0" on="1"/>
      </contour>
    </TTGlyph>
    <TTGlyph name="N.sc" xMin="77" yMin="0" xMax="529" yMax="528">
      <contour>
        <pt x="77" y="528" on="1"/>
        <pt x="225" y="528" on="1"/>
        <pt x="350" y="298" on="1"/>
        <pt x="408" y="172" on="1"/>
        <pt x="412" y="172" on="1"/>
        <pt x="409" y="193" on="0"/>
        <pt x="403" y="246" on="0"/>
        <pt x="398" y="302" on="0"/>
        <pt x="394" y="358" on="0"/>
        <pt x="394" y="383" on="1"/>
        <pt x="394" y="528" on="1"/>
        <pt x="529" y="528" on="1"/>
        <pt x="529" y="0" on="1"/>
        <pt x="385" y="0" on="1"/>
        <pt x="255" y="231" on="1"/>
        <pt x="198" y="356" on="1"/>
        <pt x="194" y="356" on="1"/>
        <pt x="199" y="310" on="0"/>
        <pt x="212" y="195" on="0"/>
        <pt x="212" y="145" on="1"/>
        <pt x="212" y="0" on="1"/>
        <pt x="77" y="0" on="1"/>
      </contour>
    </TTGlyph>
    <TTGlyph name="N.sups" xMin="50" yMin="262" xMax="397" yMax="694">
      <contour>
        <pt x="50" y="694" on="1"/>
        <pt x="158" y="694" on="1"/>
        <pt x="266" y="486" on="1"/>
        <pt x="309" y="390" on="1"/>
        <pt x="312" y="390" on="1"/>
        <pt x="307" y="425" on="0"/>
        <pt x="300" y="511" on="0"/>
        <pt x="300" y="550" on="1"/>
        <pt x="300" y="694" on="1"/>
        <pt x="397" y="694" on="1"/>
        <pt x="397" y="262" on="1"/>
        <pt x="289" y="262" on="1"/>
        <pt x="181" y="472" on="1"/>
        <pt x="138" y="566" on="1"/>
        <pt x="136" y="566" on="1"/>
        <pt x="140" y="529" on="0"/>
        <pt x="147" y="446" on="0"/>
        <pt x="147" y="408" on="1"/>
        <pt x="147" y="262" on="1"/>
        <pt x="50" y="262" on="1"/>
      </contour>
    </TTGlyph>
    <TTGlyph name="Nacute" xMin="77" yMin="0" xMax="588" yMax="822">
      <component glyphName="N" x="0" y="0" flags="0x204"/>
      <component glyphName="uni0301.cap" x="333" y="0" flags="0x4"/>
    </TTGlyph>
    <TTGlyph name="Nacute.sc" xMin="77" yMin="0" xMax="529" yMax="713">
      <component glyphName="N.sc" x="0" y="0" flags="0x204"/>
      <component glyphName="uni0301.cap" x="312" y="-109" flags="0x4"/>
    </TTGlyph>
    <TTGlyph name="Ncaron" xMin="77" yMin="0" xMax="588" yMax="822">
      <component glyphName="N" x="0" y="0" flags="0x204"/>
      <component glyphName="uni030C.cap" x="333" y="0" flags="0x4"/>
    </TTGlyph>
    <TTGlyph name="Ncaron.sc" xMin="77" yMin="0" xMax="529" yMax="713">
      <component glyphName="N.sc" x="0" y="0" flags="0x204"/>
      <component glyphName="uni030C.cap" x="312" y="-109" flags="0x4"/>
    </TTGlyph>
    <TTGlyph name="Ntilde" xMin="77" yMin="0" xMax="588" yMax="839">
      <component glyphName="N" x="0" y="0" flags="0x204"/>
      <component glyphName="uni0303.cap" x="333" y="0" flags="0x4"/>
    </TTGlyph>
    <TTGlyph name="Ntilde.sc" xMin="77" yMin="0" xMax="529" yMax="730">
      <component glyphName="N.sc" x="0" y="0" flags="0x204"/>
      <component glyphName="uni0303.cap" x="312" y="-109" flags="0x4"/>
    </TTGlyph>
    <TTGlyph name="O" xMin="46" yMin="-12" xMax="638" yMax="664">
      <contour>
        <pt x="342" y="-12" on="1"/>
        <pt x="276" y="-12" on="0"/>
        <pt x="167" y="35" on="0"/>
        <pt x="89" y="123" on="0"/>
        <pt x="46" y="249" on="0"/>
        <pt x="46" y="329" on="1"/>
        <pt x="46" y="409" on="0"/>
        <pt x="89" y="534" on="0"/>
        <pt x="167" y="619" on="0"/>
        <pt x="276" y="664" on="0"/>
        <pt x="342" y="664" on="1"/>
        <pt x="408" y="664" on="0"/>
        <pt x="517" y="619" on="0"/>
        <pt x="595" y="533" on="0"/>
        <pt x="638" y="408" on="0"/>
        <pt x="638" y="329" on="1"/>
        <pt x="638" y="249" on="0"/>
        <pt x="595" y="123" on="0"/>
        <pt x="517" y="35" on="0"/>
        <pt x="408" y="-12" on="0"/>
      </contour>
      <contour>
        <pt x="342" y="115" on="1"/>
        <pt x="409" y="115" on="0"/>
        <pt x="487" y="230" on="0"/>
        <pt x="487" y="329" on="1"/>
        <pt x="487" y="427" on="0"/>
        <pt x="409" y="537" on="0"/>
        <pt x="342" y="537" on="1"/>
        <pt x="275" y="537" on="0"/>
        <pt x="197" y="427" on="0"/>
        <pt x="197" y="329" on="1"/>
        <pt x="197" y="230" on="0"/>
        <pt x="275" y="115" on="0"/>
      </contour>
    </TTGlyph>
    <TTGlyph name="O.sc" xMin="46" yMin="-12" xMax="570" yMax="540">
      <contour>
        <pt x="309" y="-12" on="1"/>
        <pt x="250" y="-12" on="0"/>
        <pt x="154" y="26" on="0"/>
        <pt x="84" y="97" on="0"/>
        <pt x="46" y="201" on="0"/>
        <pt x="46" y="267" on="1"/>
        <pt x="46" y="333" on="0"/>
        <pt x="84" y="434" on="0"/>
        <pt x="154" y="504" on="0"/>
        <pt x="250" y="540" on="0"/>
        <pt x="309" y="540" on="1"/>
        <pt x="367" y="540" on="0"/>
        <pt x="463" y="504" on="0"/>
        <pt x="532" y="434" on="0"/>
        <pt x="570" y="332" on="0"/>
        <pt x="570" y="267" on="1"/>
        <pt x="570" y="201" on="0"/>
        <pt x="532" y="97" on="0"/>
        <pt x="463" y="26" on="0"/>
        <pt x="367" y="-12" on="0"/>
      </contour>
      <contour>
        <pt x="309" y="109" on="1"/>
        <pt x="360" y="109" on="0"/>
        <pt x="419" y="193" on="0"/>
        <pt x="419" y="267" on="1"/>
        <pt x="419" y="340" on="0"/>
        <pt x="360" y="419" on="0"/>
        <pt x="309" y="419" on="1"/>
        <pt x="256" y="419" on="0"/>
        <pt x="197" y="340" on="0"/>
        <pt x="197" y="267" on="1"/>
        <pt x="197" y="193" on="0"/>
        <pt x="256" y="109" on="0"/>
      </contour>
    </TTGlyph>
    <TTGlyph name="O.sups" xMin="30" yMin="254" xMax="431" yMax="702">
      <contour>
        <pt x="230" y="254" on="1"/>
        <pt x="185" y="254" on="0"/>
        <pt x="112" y="285" on="0"/>
        <pt x="59" y="343" on="0"/>
        <pt x="30" y="427" on="0"/>
        <pt x="30" y="480" on="1"/>
        <pt x="30" y="533" on="0"/>
        <pt x="59" y="615" on="0"/>
        <pt x="112" y="672" on="0"/>
        <pt x="185" y="702" on="0"/>
        <pt x="230" y="702" on="1"/>
        <pt x="275" y="702" on="0"/>
        <pt x="349" y="672" on="0"/>
        <pt x="402" y="615" on="0"/>
        <pt x="431" y="532" on="0"/>
        <pt x="431" y="480" on="1"/>
        <pt x="431" y="427" on="0"/>
        <pt x="402" y="343" on="0"/>
        <pt x="349" y="285" on="0"/>
        <pt x="275" y="254" on="0"/>
      </contour>
      <contour>
        <pt x="230" y="342" on="1"/>
        <pt x="274" y="342" on="0"/>
        <pt x="324" y="417" on="0"/>
        <pt x="324" y="480" on="1"/>
        <pt x="324" y="543" on="0"/>
        <pt x="274" y="612" on="0"/>
        <pt x="230" y="612" on="1"/>
        <pt x="186" y="612" on="0"/>
        <pt x="137" y="543" on="0"/>
        <pt x="137" y="480" on="1"/>
        <pt x="137" y="417" on="0"/>
        <pt x="186" y="342" on="0"/>
      </contour>
    </TTGlyph>
    <TTGlyph name="OE" xMin="46" yMin="0" xMax="818" yMax="652">
      <contour>
        <pt x="46" y="329" on="1"/>
        <pt x="46" y="413" on="0"/>
        <pt x="96" y="535" on="0"/>
        <pt x="185" y="614" on="0"/>
        <pt x="308" y="652" on="0"/>
        <pt x="381" y="652" on="1"/>
        <pt x="808" y="652" on="1"/>
        <pt x="808" y="528" on="1"/>
        <pt x="561" y="528" on="1"/>
        <pt x="561" y="397" on="1"/>
        <pt x="769" y="397" on="1"/>
        <pt x="769" y="274" on="1"/>
        <pt x="561" y="274" on="1"/>
        <pt x="561" y="124" on="1"/>
        <pt x="818" y="124" on="1"/>
        <pt x="818" y="0" on="1"/>
        <pt x="373" y="0" on="1"/>
        <pt x="303" y="0" on="0"/>
        <pt x="184" y="40" on="0"/>
        <pt x="96" y="121" on="0"/>
        <pt x="46" y="245" on="0"/>
      </contour>
      <contour>
        <pt x="197" y="329" on="1"/>
        <pt x="197" y="270" on="0"/>
        <pt x="225" y="189" on="0"/>
        <pt x="276" y="140" on="0"/>
        <pt x="347" y="119" on="0"/>
        <pt x="390" y="119" on="1"/>
        <pt x="413" y="119" on="1"/>
        <pt x="413" y="533" on="1"/>
        <pt x="390" y="533" on="1"/>
        <pt x="347" y="533" on="0"/>
        <pt x="276" y="513" on="0"/>
        <pt x="225" y="466" on="0"/>
        <pt x="197" y="388" on="0"/>
      </contour>
    </TTGlyph>
    <TTGlyph name="OE.sc" xMin="46" yMin="0" xMax="713" yMax="528">
      <contour>
        <pt x="46" y="261" on="1"/>
        <pt x="46" y="333" on="0"/>
        <pt x="89" y="434" on="0"/>
        <pt x="166" y="499" on="0"/>
        <pt x="270" y="528" on="0"/>
        <pt x="330" y="528" on="1"/>
        <pt x="703" y="528" on="1"/>
        <pt x="703" y="414" on="1"/>
        <pt x="498" y="414" on="1"/>
        <pt x="498" y="322" on="1"/>
        <pt x="673" y="322" on="1"/>
        <pt x="673" y="215" on="1"/>
        <pt x="498" y="215" on="1"/>
        <pt x="498" y="114" on="1"/>
        <pt x="713" y="114" on="1"/>
        <pt x="713" y="0" on="1"/>
        <pt x="339" y="0" on="1"/>
        <pt x="275" y="0" on="0"/>
        <pt x="168" y="28" on="0"/>
        <pt x="90" y="90" on="0"/>
        <pt x="46" y="190" on="0"/>
      </contour>
      <contour>
        <pt x="331" y="414" on="1"/>
        <pt x="267" y="414" on="0"/>
        <pt x="197" y="343" on="0"/>
        <pt x="197" y="261" on="1"/>
        <pt x="197" y="181" on="0"/>
        <pt x="267" y="114" on="0"/>
        <pt x="331" y="114" on="1"/>
        <pt x="351" y="114" on="1"/>
        <pt x="351" y="414" on="1"/>
      </contour>
    </TTGlyph>
    <TTGlyph name="Oacute" xMin="46" yMin="-12" xMax="638" yMax="822">
      <component glyphName="O" x="0" y="0" flags="0x204"/>
      <component glyphName="uni0301.cap" x="342" y="0" flags="0x4"/>
    </TTGlyph>
    <TTGlyph name="Oacute.sc" xMin="46" yMin="-12" xMax="570" yMax="713">
      <component glyphName="O.sc" x="0" y="0" flags="0x204"/>
      <component glyphName="uni0301.cap" x="309" y="-109" flags="0x4"/>
    </TTGlyph>
    <TTGlyph name="Ocircumflex" xMin="46" yMin="-12" xMax="638" yMax="822">
      <component glyphName="O" x="0" y="0" flags="0x204"/>
      <component glyphName="uni0302.cap" x="342" y="0" flags="0x4"/>
    </TTGlyph>
    <TTGlyph name="Ocircumflex.sc" xMin="46" yMin="-12" xMax="570" yMax="713">
      <component glyphName="O.sc" x="0" y="0" flags="0x204"/>
      <component glyphName="uni0302.cap" x="309" y="-109" flags="0x4"/>
    </TTGlyph>
    <TTGlyph name="Odieresis" xMin="46" yMin="-12" xMax="638" yMax="840">
      <component glyphName="O" x="0" y="0" flags="0x204"/>
      <component glyphName="uni0308.cap" x="342" y="0" flags="0x4"/>
    </TTGlyph>
    <TTGlyph name="Odieresis.sc" xMin="46" yMin="-12" xMax="570" yMax="731">
      <component glyphName="O.sc" x="0" y="0" flags="0x204"/>
      <component glyphName="uni0308.cap" x="309" y="-109" flags="0x4"/>
    </TTGlyph>
    <TTGlyph name="Ograve" xMin="46" yMin="-12" xMax="638" yMax="822">
      <component glyphName="O" x="0" y="0" flags="0x204"/>
      <component glyphName="uni0300.cap" x="342" y="0" flags="0x4"/>
    </TTGlyph>
    <TTGlyph name="Ograve.sc" xMin="46" yMin="-12" xMax="570" yMax="713">
      <component glyphName="O.sc" x="0" y="0" flags="0x204"/>
      <component glyphName="uni0300.cap" x="309" y="-109" flags="0x4"/>
    </TTGlyph>
    <TTGlyph name="Ohorn" xMin="47" yMin="-12" xMax="656" yMax="784">
      <contour>
        <pt x="343" y="115" on="1"/>
        <pt x="410" y="115" on="0"/>
        <pt x="488" y="230" on="0"/>
        <pt x="488" y="329" on="1"/>
        <pt x="488" y="427" on="0"/>
        <pt x="410" y="537" on="0"/>
        <pt x="343" y="537" on="1"/>
        <pt x="276" y="537" on="0"/>
        <pt x="198" y="427" on="0"/>
        <pt x="198" y="329" on="1"/>
        <pt x="198" y="230" on="0"/>
        <pt x="276" y="115" on="0"/>
      </contour>
      <contour>
        <pt x="626" y="784" on="1"/>
        <pt x="638" y="770" on="0"/>
        <pt x="656" y="729" on="0"/>
        <pt x="656" y="704" on="1"/>
        <pt x="656" y="655" on="0"/>
        <pt x="598" y="598" on="0"/>
        <pt x="550" y="584" on="1"/>
        <pt x="592" y="540" on="0"/>
        <pt x="639" y="413" on="0"/>
        <pt x="639" y="329" on="1"/>
        <pt x="639" y="249" on="0"/>
        <pt x="596" y="123" on="0"/>
        <pt x="518" y="35" on="0"/>
        <pt x="409" y="-12" on="0"/>
        <pt x="343" y="-12" on="1"/>
        <pt x="277" y="-12" on="0"/>
        <pt x="168" y="35" on="0"/>
        <pt x="90" y="123" on="0"/>
        <pt x="47" y="249" on="0"/>
        <pt x="47" y="329" on="1"/>
        <pt x="47" y="409" on="0"/>
        <pt x="90" y="534" on="0"/>
        <pt x="168" y="619" on="0"/>
        <pt x="277" y="664" on="0"/>
        <pt x="343" y="664" on="1"/>
        <pt x="420" y="664" on="0"/>
        <pt x="482" y="633" on="1"/>
        <pt x="511" y="640" on="0"/>
        <pt x="542" y="666" on="0"/>
        <pt x="542" y="694" on="1"/>
        <pt x="542" y="708" on="0"/>
        <pt x="532" y="731" on="0"/>
        <pt x="526" y="740" on="1"/>
      </contour>
    </TTGlyph>
    <TTGlyph name="Ohorn.sc" xMin="46" yMin="-12" xMax="612" yMax="650">
      <contour>
        <pt x="309" y="109" on="1"/>
        <pt x="360" y="109" on="0"/>
        <pt x="419" y="193" on="0"/>
        <pt x="419" y="267" on="1"/>
        <pt x="419" y="340" on="0"/>
        <pt x="360" y="419" on="0"/>
        <pt x="309" y="419" on="1"/>
        <pt x="256" y="419" on="0"/>
        <pt x="197" y="340" on="0"/>
        <pt x="197" y="267" on="1"/>
        <pt x="197" y="193" on="0"/>
        <pt x="256" y="109" on="0"/>
      </contour>
      <contour>
        <pt x="583" y="650" on="1"/>
        <pt x="594" y="636" on="0"/>
        <pt x="612" y="595" on="0"/>
        <pt x="612" y="570" on="1"/>
        <pt x="612" y="522" on="0"/>
        <pt x="557" y="464" on="0"/>
        <pt x="513" y="451" on="1"/>
        <pt x="540" y="416" on="0"/>
        <pt x="570" y="324" on="0"/>
        <pt x="570" y="267" on="1"/>
        <pt x="570" y="201" on="0"/>
        <pt x="532" y="97" on="0"/>
        <pt x="463" y="26" on="0"/>
        <pt x="367" y="-12" on="0"/>
        <pt x="309" y="-12" on="1"/>
        <pt x="250" y="-12" on="0"/>
        <pt x="154" y="26" on="0"/>
        <pt x="84" y="97" on="0"/>
        <pt x="46" y="201" on="0"/>
        <pt x="46" y="267" on="1"/>
        <pt x="46" y="333" on="0"/>
        <pt x="84" y="434" on="0"/>
        <pt x="154" y="504" on="0"/>
        <pt x="250" y="540" on="0"/>
        <pt x="309" y="540" on="1"/>
        <pt x="391" y="540" on="0"/>
        <pt x="453" y="503" on="1"/>
        <pt x="474" y="509" on="0"/>
        <pt x="498" y="534" on="0"/>
        <pt x="498" y="560" on="1"/>
        <pt x="498" y="574" on="0"/>
        <pt x="488" y="598" on="0"/>
        <pt x="482" y="606" on="1"/>
      </contour>
    </TTGlyph>
    <TTGlyph name="Ohungarumlaut" xMin="46" yMin="-12" xMax="638" yMax="822">
      <component glyphName="O" x="0" y="0" flags="0x204"/>
      <component glyphName="uni030B.cap" x="342" y="0" flags="0x4"/>
    </TTGlyph>
    <TTGlyph name="Ohungarumlaut.sc" xMin="46" yMin="-12" xMax="570" yMax="713">
      <component glyphName="O.sc" x="0" y="0" flags="0x204"/>
      <component glyphName="uni030B.cap" x="309" y="-109" flags="0x4"/>
    </TTGlyph>
    <TTGlyph name="Omacron" xMin="46" yMin="-12" xMax="638" yMax="813">
      <component glyphName="O" x="0" y="0" flags="0x204"/>
      <component glyphName="uni0304.cap" x="342" y="0" flags="0x4"/>
    </TTGlyph>
    <TTGlyph name="Omacron.sc" xMin="46" yMin="-12" xMax="570" yMax="704">
      <component glyphName="O.sc" x="0" y="0" flags="0x204"/>
      <component glyphName="uni0304.cap" x="309" y="-109" flags="0x4"/>
    </TTGlyph>
    <TTGlyph name="Oslash" xMin="40" yMin="-41" xMax="660" yMax="693">
      <contour>
        <pt x="264" y="143" on="1"/>
        <pt x="298" y="115" on="0"/>
        <pt x="343" y="115" on="1"/>
        <pt x="410" y="115" on="0"/>
        <pt x="488" y="230" on="0"/>
        <pt x="488" y="329" on="1"/>
        <pt x="488" y="374" on="0"/>
        <pt x="479" y="410" on="1"/>
      </contour>
      <contour>
        <pt x="431" y="503" on="1"/>
        <pt x="395" y="537" on="0"/>
        <pt x="343" y="537" on="1"/>
        <pt x="276" y="537" on="0"/>
        <pt x="198" y="427" on="0"/>
        <pt x="198" y="329" on="1"/>
        <pt x="198" y="301" on="0"/>
        <pt x="205" y="251" on="0"/>
        <pt x="211" y="230" on="1"/>
      </contour>
      <contour>
        <pt x="584" y="540" on="1"/>
        <pt x="610" y="499" on="0"/>
        <pt x="639" y="394" on="0"/>
        <pt x="639" y="329" on="1"/>
        <pt x="639" y="249" on="0"/>
        <pt x="596" y="123" on="0"/>
        <pt x="518" y="35" on="0"/>
        <pt x="409" y="-12" on="0"/>
        <pt x="343" y="-12" on="1"/>
        <pt x="249" y="-12" on="0"/>
        <pt x="178" y="36" on="1"/>
        <pt x="116" y="-41" on="1"/>
        <pt x="40" y="17" on="1"/>
        <pt x="109" y="103" on="1"/>
        <pt x="80" y="146" on="0"/>
        <pt x="47" y="260" on="0"/>
        <pt x="47" y="329" on="1"/>
        <pt x="47" y="409" on="0"/>
        <pt x="90" y="534" on="0"/>
        <pt x="168" y="619" on="0"/>
        <pt x="277" y="664" on="0"/>
        <pt x="343" y="664" on="1"/>
        <pt x="445" y="664" on="0"/>
        <pt x="518" y="611" on="1"/>
        <pt x="584" y="693" on="1"/>
        <pt x="660" y="634" on="1"/>
      </contour>
    </TTGlyph>
    <TTGlyph name="Oslash.sc" xMin="46" yMin="-25" xMax="570" yMax="553">
      <contour>
        <pt x="236" y="128" on="1"/>
        <pt x="266" y="100" on="0"/>
        <pt x="309" y="100" on="1"/>
        <pt x="364" y="100" on="0"/>
        <pt x="427" y="189" on="0"/>
        <pt x="427" y="267" on="1"/>
        <pt x="427" y="308" on="0"/>
        <pt x="418" y="338" on="1"/>
      </contour>
      <contour>
        <pt x="381" y="401" on="1"/>
        <pt x="352" y="428" on="0"/>
        <pt x="309" y="428" on="1"/>
        <pt x="252" y="428" on="0"/>
        <pt x="189" y="344" on="0"/>
        <pt x="189" y="267" on="1"/>
        <pt x="189" y="246" on="0"/>
        <pt x="194" y="208" on="0"/>
        <pt x="199" y="191" on="1"/>
      </contour>
      <contour>
        <pt x="514" y="449" on="1"/>
        <pt x="541" y="415" on="0"/>
        <pt x="570" y="324" on="0"/>
        <pt x="570" y="267" on="1"/>
        <pt x="570" y="201" on="0"/>
        <pt x="532" y="97" on="0"/>
        <pt x="463" y="26" on="0"/>
        <pt x="367" y="-12" on="0"/>
        <pt x="309" y="-12" on="1"/>
        <pt x="264" y="-12" on="0"/>
        <pt x="185" y="10" on="0"/>
        <pt x="153" y="33" on="1"/>
        <pt x="103" y="-25" on="1"/>
        <pt x="48" y="17" on="1"/>
        <pt x="103" y="80" on="1"/>
        <pt x="76" y="115" on="0"/>
        <pt x="46" y="209" on="0"/>
        <pt x="46" y="267" on="1"/>
        <pt x="46" y="333" on="0"/>
        <pt x="84" y="434" on="0"/>
        <pt x="154" y="504" on="0"/>
        <pt x="250" y="540" on="0"/>
        <pt x="309" y="540" on="1"/>
        <pt x="400" y="540" on="0"/>
        <pt x="464" y="496" on="1"/>
        <pt x="513" y="553" on="1"/>
        <pt x="568" y="511" on="1"/>
      </contour>
    </TTGlyph>
    <TTGlyph name="Otilde" xMin="46" yMin="-12" xMax="638" yMax="839">
      <component glyphName="O" x="0" y="0" flags="0x204"/>
      <component glyphName="uni0303.cap" x="342" y="0" flags="0x4"/>
    </TTGlyph>
    <TTGlyph name="Otilde.sc" xMin="46" yMin="-12" xMax="570" yMax="730">
      <component glyphName="O.sc" x="0" y="0" flags="0x204"/>
      <component glyphName="uni0303.cap" x="309" y="-109" flags="0x4"/>
    </TTGlyph>
    <TTGlyph name="P" xMin="77" yMin="0" xMax="570" yMax="652">
      <contour>
        <pt x="77" y="652" on="1"/>
        <pt x="315" y="652" on="1"/>
        <pt x="368" y="652" on="0"/>
        <pt x="461" y="631" on="0"/>
        <pt x="530" y="582" on="0"/>
        <pt x="570" y="501" on="0"/>
        <pt x="570" y="442" on="1"/>
        <pt x="570" y="385" on="0"/>
        <pt x="529" y="301" on="0"/>
        <pt x="459" y="247" on="0"/>
        <pt x="367" y="221" on="0"/>
        <pt x="315" y="221" on="1"/>
        <pt x="224" y="221" on="1"/>
        <pt x="224" y="0" on="1"/>
        <pt x="77" y="0" on="1"/>
      </contour>
      <contour>
        <pt x="306" y="338" on="1"/>
        <pt x="426" y="338" on="0"/>
        <pt x="426" y="442" on="1"/>
        <pt x="426" y="493" on="0"/>
        <pt x="365" y="535" on="0"/>
        <pt x="306" y="535" on="1"/>
        <pt x="224" y="535" on="1"/>
        <pt x="224" y="338" on="1"/>
      </contour>
    </TTGlyph>
    <TTGlyph name="P.sc" xMin="77" yMin="0" xMax="515" yMax="528">
      <contour>
        <pt x="77" y="528" on="1"/>
        <pt x="291" y="528" on="1"/>
        <pt x="336" y="528" on="0"/>
        <pt x="418" y="511" on="0"/>
        <pt x="479" y="470" on="0"/>
        <pt x="515" y="402" on="0"/>
        <pt x="515" y="352" on="1"/>
        <pt x="515" y="303" on="0"/>
        <pt x="478" y="233" on="0"/>
        <pt x="416" y="188" on="0"/>
        <pt x="335" y="167" on="0"/>
        <pt x="291" y="167" on="1"/>
        <pt x="224" y="167" on="1"/>
        <pt x="224" y="0" on="1"/>
        <pt x="77" y="0" on="1"/>
      </contour>
      <contour>
        <pt x="286" y="268" on="1"/>
        <pt x="331" y="268" on="0"/>
        <pt x="375" y="308" on="0"/>
        <pt x="375" y="343" on="1"/>
        <pt x="375" y="380" on="0"/>
        <pt x="331" y="413" on="0"/>
        <pt x="286" y="413" on="1"/>
        <pt x="224" y="413" on="1"/>
        <pt x="224" y="268" on="1"/>
      </contour>
    </TTGlyph>
    <TTGlyph name="P.sups" xMin="50" yMin="262" xMax="386" yMax="694">
      <contour>
        <pt x="50" y="694" on="1"/>
        <pt x="214" y="694" on="1"/>
        <pt x="249" y="694" on="0"/>
        <pt x="312" y="680" on="0"/>
        <pt x="359" y="647" on="0"/>
        <pt x="386" y="594" on="0"/>
        <pt x="386" y="555" on="1"/>
        <pt x="386" y="516" on="0"/>
        <pt x="358" y="460" on="0"/>
        <pt x="310" y="424" on="0"/>
        <pt x="248" y="406" on="0"/>
        <pt x="214" y="406" on="1"/>
        <pt x="154" y="406" on="1"/>
        <pt x="154" y="262" on="1"/>
        <pt x="50" y="262" on="1"/>
      </contour>
      <contour>
        <pt x="206" y="487" on="1"/>
        <pt x="246" y="487" on="0"/>
        <pt x="284" y="523" on="0"/>
        <pt x="284" y="555" on="1"/>
        <pt x="284" y="586" on="0"/>
        <pt x="244" y="612" on="0"/>
        <pt x="206" y="612" on="1"/>
        <pt x="154" y="612" on="1"/>
        <pt x="154" y="487" on="1"/>
      </contour>
    </TTGlyph>
    <TTGlyph name="Q" xMin="46" yMin="-178" xMax="672" yMax="664">
      <contour>
        <pt x="197" y="329" on="1"/>
        <pt x="197" y="224" on="0"/>
        <pt x="275" y="108" on="0"/>
        <pt x="342" y="108" on="1"/>
        <pt x="409" y="108" on="0"/>
        <pt x="487" y="224" on="0"/>
        <pt x="487" y="329" on="1"/>
        <pt x="487" y="427" on="0"/>
        <pt x="409" y="537" on="0"/>
        <pt x="342" y="537" on="1"/>
        <pt x="275" y="537" on="0"/>
        <pt x="197" y="427" on="0"/>
      </contour>
      <contour>
        <pt x="672" y="-157" on="1"/>
        <pt x="654" y="-166" on="0"/>
        <pt x="595" y="-178" on="0"/>
        <pt x="557" y="-178" on="1"/>
        <pt x="453" y="-178" on="0"/>
        <pt x="310" y="-82" on="0"/>
        <pt x="275" y="-5" on="1"/>
        <pt x="223" y="6" on="0"/>
        <pt x="138" y="61" on="0"/>
        <pt x="78" y="147" on="0"/>
        <pt x="46" y="260" on="0"/>
        <pt x="46" y="329" on="1"/>
        <pt x="46" y="409" on="0"/>
        <pt x="89" y="534" on="0"/>
        <pt x="167" y="619" on="0"/>
        <pt x="276" y="664" on="0"/>
        <pt x="342" y="664" on="1"/>
        <pt x="408" y="664" on="0"/>
        <pt x="517" y="619" on="0"/>
        <pt x="595" y="533" on="0"/>
        <pt x="638" y="408" on="0"/>
        <pt x="638" y="329" on="1"/>
        <pt x="638" y="197" on="0"/>
        <pt x="526" y="27" on="0"/>
        <pt x="431" y="0" on="1"/>
        <pt x="454" y="-34" on="0"/>
        <pt x="532" y="-61" on="0"/>
        <pt x="574" y="-61" on="1"/>
        <pt x="595" y="-61" on="0"/>
        <pt x="632" y="-54" on="0"/>
        <pt x="646" y="-49" on="1"/>
      </contour>
    </TTGlyph>
    <TTGlyph name="Q.sc" xMin="44" yMin="-170" xMax="592" yMax="540">
      <contour>
        <pt x="307" y="419" on="1"/>
        <pt x="254" y="419" on="0"/>
        <pt x="195" y="340" on="0"/>
        <pt x="195" y="267" on="1"/>
        <pt x="195" y="187" on="0"/>
        <pt x="254" y="100" on="0"/>
        <pt x="307" y="100" on="1"/>
        <pt x="358" y="100" on="0"/>
        <pt x="417" y="187" on="0"/>
        <pt x="417" y="267" on="1"/>
        <pt x="417" y="340" on="0"/>
        <pt x="358" y="419" on="0"/>
      </contour>
      <contour>
        <pt x="592" y="-150" on="1"/>
        <pt x="575" y="-159" on="0"/>
        <pt x="522" y="-170" on="0"/>
        <pt x="487" y="-170" on="1"/>
        <pt x="437" y="-170" on="0"/>
        <pt x="358" y="-146" on="0"/>
        <pt x="296" y="-102" on="0"/>
        <pt x="251" y="-41" on="0"/>
        <pt x="235" y="-4" on="1"/>
        <pt x="147" y="17" on="0"/>
        <pt x="44" y="156" on="0"/>
        <pt x="44" y="267" on="1"/>
        <pt x="44" y="333" on="0"/>
        <pt x="82" y="434" on="0"/>
        <pt x="152" y="504" on="0"/>
        <pt x="248" y="540" on="0"/>
        <pt x="307" y="540" on="1"/>
        <pt x="365" y="540" on="0"/>
        <pt x="461" y="504" on="0"/>
        <pt x="530" y="434" on="0"/>
        <pt x="568" y="332" on="0"/>
        <pt x="568" y="267" on="1"/>
        <pt x="568" y="158" on="0"/>
        <pt x="469" y="20" on="0"/>
        <pt x="385" y="-2" on="1"/>
        <pt x="403" y="-36" on="0"/>
        <pt x="466" y="-56" on="0"/>
        <pt x="504" y="-56" on="1"/>
        <pt x="522" y="-56" on="0"/>
        <pt x="553" y="-51" on="0"/>
        <pt x="567" y="-46" on="1"/>
      </contour>
    </TTGlyph>
    <TTGlyph name="Q.sups" xMin="27" yMin="143" xMax="454" yMax="702">
      <contour>
        <pt x="134" y="479" on="1"/>
        <pt x="134" y="414" on="0"/>
        <pt x="183" y="339" on="0"/>
        <pt x="228" y="339" on="1"/>
        <pt x="272" y="339" on="0"/>
        <pt x="323" y="414" on="0"/>
        <pt x="323" y="479" on="1"/>
        <pt x="323" y="543" on="0"/>
        <pt x="272" y="612" on="0"/>
        <pt x="228" y="612" on="1"/>
        <pt x="183" y="612" on="0"/>
        <pt x="134" y="543" on="0"/>
      </contour>
      <contour>
        <pt x="454" y="159" on="1"/>
        <pt x="442" y="152" on="0"/>
        <pt x="401" y="143" on="0"/>
        <pt x="374" y="143" on="1"/>
        <pt x="302" y="143" on="0"/>
        <pt x="205" y="207" on="0"/>
        <pt x="182" y="259" on="1"/>
        <pt x="111" y="273" on="0"/>
        <pt x="27" y="388" on="0"/>
        <pt x="27" y="479" on="1"/>
        <pt x="27" y="532" on="0"/>
        <pt x="56" y="615" on="0"/>
        <pt x="109" y="672" on="0"/>
        <pt x="183" y="702" on="0"/>
        <pt x="228" y="702" on="1"/>
        <pt x="273" y="702" on="0"/>
        <pt x="347" y="672" on="0"/>
        <pt x="400" y="615" on="0"/>
        <pt x="429" y="532" on="0"/>
        <pt x="429" y="479" on="1"/>
        <pt x="429" y="393" on="0"/>
        <pt x="354" y="282" on="0"/>
        <pt x="291" y="263" on="1"/>
        <pt x="306" y="241" on="0"/>
        <pt x="359" y="226" on="0"/>
        <pt x="386" y="226" on="1"/>
        <pt x="401" y="226" on="0"/>
        <pt x="425" y="230" on="0"/>
        <pt x="436" y="233" on="1"/>
      </contour>
    </TTGlyph>
    <TTGlyph name="R" xMin="77" yMin="0" xMax="595" yMax="652">
      <contour>
        <pt x="224" y="352" on="1"/>
        <pt x="300" y="352" on="1"/>
        <pt x="358" y="352" on="0"/>
        <pt x="419" y="401" on="0"/>
        <pt x="419" y="449" on="1"/>
        <pt x="419" y="497" on="0"/>
        <pt x="358" y="535" on="0"/>
        <pt x="300" y="535" on="1"/>
        <pt x="224" y="535" on="1"/>
      </contour>
      <contour>
        <pt x="430" y="0" on="1"/>
        <pt x="305" y="235" on="1"/>
        <pt x="224" y="235" on="1"/>
        <pt x="224" y="0" on="1"/>
        <pt x="77" y="0" on="1"/>
        <pt x="77" y="652" on="1"/>
        <pt x="312" y="652" on="1"/>
        <pt x="364" y="652" on="0"/>
        <pt x="455" y="632" on="0"/>
        <pt x="523" y="585" on="0"/>
        <pt x="563" y="507" on="0"/>
        <pt x="563" y="449" on="1"/>
        <pt x="563" y="377" on="0"/>
        <pt x="500" y="284" on="0"/>
        <pt x="447" y="261" on="1"/>
        <pt x="595" y="0" on="1"/>
      </contour>
    </TTGlyph>
    <TTGlyph name="R.sc" xMin="77" yMin="0" xMax="540" yMax="528">
      <contour>
        <pt x="224" y="275" on="1"/>
        <pt x="278" y="275" on="1"/>
        <pt x="324" y="275" on="0"/>
        <pt x="371" y="314" on="0"/>
        <pt x="371" y="347" on="1"/>
        <pt x="371" y="383" on="0"/>
        <pt x="321" y="413" on="0"/>
        <pt x="276" y="413" on="1"/>
        <pt x="224" y="413" on="1"/>
      </contour>
      <contour>
        <pt x="385" y="0" on="1"/>
        <pt x="286" y="175" on="1"/>
        <pt x="224" y="175" on="1"/>
        <pt x="224" y="0" on="1"/>
        <pt x="77" y="0" on="1"/>
        <pt x="77" y="528" on="1"/>
        <pt x="286" y="528" on="1"/>
        <pt x="331" y="528" on="0"/>
        <pt x="413" y="512" on="0"/>
        <pt x="474" y="472" on="0"/>
        <pt x="510" y="406" on="0"/>
        <pt x="510" y="356" on="1"/>
        <pt x="510" y="302" on="0"/>
        <pt x="459" y="226" on="0"/>
        <pt x="417" y="204" on="1"/>
        <pt x="540" y="0" on="1"/>
      </contour>
    </TTGlyph>
    <TTGlyph name="R.sups" xMin="50" yMin="262" xMax="403" yMax="694">
      <contour>
        <pt x="154" y="496" on="1"/>
        <pt x="203" y="496" on="1"/>
        <pt x="280" y="496" on="0"/>
        <pt x="280" y="556" on="1"/>
        <pt x="280" y="586" on="0"/>
        <pt x="241" y="612" on="0"/>
        <pt x="203" y="612" on="1"/>
        <pt x="154" y="612" on="1"/>
      </contour>
      <contour>
        <pt x="287" y="262" on="1"/>
        <pt x="206" y="415" on="1"/>
        <pt x="154" y="415" on="1"/>
        <pt x="154" y="262" on="1"/>
        <pt x="50" y="262" on="1"/>
        <pt x="50" y="694" on="1"/>
        <pt x="211" y="694" on="1"/>
        <pt x="246" y="694" on="0"/>
        <pt x="308" y="681" on="0"/>
        <pt x="354" y="649" on="0"/>
        <pt x="381" y="598" on="0"/>
        <pt x="381" y="559" on="1"/>
        <pt x="381" y="512" on="0"/>
        <pt x="340" y="451" on="0"/>
        <pt x="305" y="434" on="1"/>
        <pt x="403" y="262" on="1"/>
      </contour>
    </TTGlyph>
    <TTGlyph name="Racute" xMin="77" yMin="0" xMax="595" yMax="822">
      <component glyphName="R" x="0" y="0" flags="0x204"/>
      <component glyphName="uni0301.cap" x="310" y="0" flags="0x4"/>
    </TTGlyph>
    <TTGlyph name="Racute.sc" xMin="77" yMin="0" xMax="540" yMax="713">
      <component glyphName="R.sc" x="0" y="0" flags="0x204"/>
      <component glyphName="uni0301.cap" x="299" y="-109" flags="0x4"/>
    </TTGlyph>
    <TTGlyph name="Rcaron" xMin="77" yMin="0" xMax="595" yMax="822">
      <component glyphName="R" x="0" y="0" flags="0x204"/>
      <component glyphName="uni030C.cap" x="310" y="0" flags="0x4"/>
    </TTGlyph>
    <TTGlyph name="Rcaron.sc" xMin="77" yMin="0" xMax="540" yMax="713">
      <component glyphName="R.sc" x="0" y="0" flags="0x204"/>
      <component glyphName="uni030C.cap" x="299" y="-109" flags="0x4"/>
    </TTGlyph>
    <TTGlyph name="S" xMin="35" yMin="-12" xMax="522" yMax="664">
      <contour>
        <pt x="119" y="183" on="1"/>
        <pt x="154" y="153" on="0"/>
        <pt x="239" y="115" on="0"/>
        <pt x="280" y="115" on="1"/>
        <pt x="326" y="115" on="0"/>
        <pt x="371" y="149" on="0"/>
        <pt x="371" y="178" on="1"/>
        <pt x="371" y="193" on="0"/>
        <pt x="358" y="215" on="0"/>
        <pt x="333" y="232" on="0"/>
        <pt x="298" y="247" on="0"/>
        <pt x="277" y="256" on="1"/>
        <pt x="192" y="292" on="1"/>
        <pt x="167" y="302" on="0"/>
        <pt x="120" y="334" on="0"/>
        <pt x="83" y="377" on="0"/>
        <pt x="61" y="434" on="0"/>
        <pt x="61" y="470" on="1"/>
        <pt x="61" y="510" on="0"/>
        <pt x="95" y="581" on="0"/>
        <pt x="157" y="634" on="0"/>
        <pt x="242" y="664" on="0"/>
        <pt x="293" y="664" on="1"/>
        <pt x="350" y="664" on="0"/>
        <pt x="461" y="620" on="0"/>
        <pt x="503" y="578" on="1"/>
        <pt x="428" y="485" on="1"/>
        <pt x="396" y="510" on="0"/>
        <pt x="332" y="537" on="0"/>
        <pt x="293" y="537" on="1"/>
        <pt x="255" y="537" on="0"/>
        <pt x="210" y="506" on="0"/>
        <pt x="210" y="478" on="1"/>
        <pt x="210" y="463" on="0"/>
        <pt x="225" y="442" on="0"/>
        <pt x="252" y="425" on="0"/>
        <pt x="288" y="410" on="0"/>
        <pt x="309" y="401" on="1"/>
        <pt x="393" y="367" on="1"/>
        <pt x="453" y="343" on="0"/>
        <pt x="522" y="259" on="0"/>
        <pt x="522" y="190" on="1"/>
        <pt x="522" y="149" on="0"/>
        <pt x="489" y="76" on="0"/>
        <pt x="426" y="21" on="0"/>
        <pt x="334" y="-12" on="0"/>
        <pt x="276" y="-12" on="1"/>
        <pt x="212" y="-12" on="0"/>
        <pt x="85" y="35" on="0"/>
        <pt x="35" y="82" on="1"/>
      </contour>
    </TTGlyph>
    <TTGlyph name="S.sc" xMin="35" yMin="-12" xMax="470" yMax="541">
      <contour>
        <pt x="105" y="161" on="1"/>
        <pt x="142" y="133" on="0"/>
        <pt x="220" y="101" on="0"/>
        <pt x="261" y="101" on="1"/>
        <pt x="293" y="101" on="0"/>
        <pt x="322" y="126" on="0"/>
        <pt x="322" y="146" on="1"/>
        <pt x="322" y="167" on="0"/>
        <pt x="286" y="192" on="0"/>
        <pt x="258" y="203" on="1"/>
        <pt x="202" y="224" on="1"/>
        <pt x="175" y="234" on="0"/>
        <pt x="125" y="260" on="0"/>
        <pt x="87" y="297" on="0"/>
        <pt x="64" y="344" on="0"/>
        <pt x="64" y="375" on="1"/>
        <pt x="64" y="412" on="0"/>
        <pt x="94" y="474" on="0"/>
        <pt x="149" y="517" on="0"/>
        <pt x="225" y="541" on="0"/>
        <pt x="272" y="541" on="1"/>
        <pt x="337" y="541" on="0"/>
        <pt x="431" y="499" on="0"/>
        <pt x="466" y="473" on="1"/>
        <pt x="394" y="379" on="1"/>
        <pt x="365" y="399" on="0"/>
        <pt x="302" y="426" on="0"/>
        <pt x="268" y="426" on="1"/>
        <pt x="241" y="426" on="0"/>
        <pt x="211" y="405" on="0"/>
        <pt x="211" y="383" on="1"/>
        <pt x="211" y="365" on="0"/>
        <pt x="246" y="343" on="0"/>
        <pt x="275" y="332" on="1"/>
        <pt x="330" y="312" on="1"/>
        <pt x="359" y="302" on="0"/>
        <pt x="410" y="277" on="0"/>
        <pt x="448" y="242" on="0"/>
        <pt x="470" y="193" on="0"/>
        <pt x="470" y="158" on="1"/>
        <pt x="470" y="122" on="0"/>
        <pt x="441" y="60" on="0"/>
        <pt x="385" y="14" on="0"/>
        <pt x="305" y="-12" on="0"/>
        <pt x="254" y="-12" on="1"/>
        <pt x="191" y="-12" on="0"/>
        <pt x="76" y="29" on="0"/>
        <pt x="35" y="62" on="1"/>
      </contour>
    </TTGlyph>
    <TTGlyph name="S.sups" xMin="22" yMin="254" xMax="352" yMax="703">
      <contour>
        <pt x="82" y="387" on="1"/>
        <pt x="105" y="367" on="0"/>
        <pt x="165" y="343" on="0"/>
        <pt x="193" y="343" on="1"/>
        <pt x="223" y="343" on="0"/>
        <pt x="247" y="366" on="0"/>
        <pt x="247" y="383" on="1"/>
        <pt x="247" y="401" on="0"/>
        <pt x="213" y="420" on="0"/>
        <pt x="185" y="432" on="1"/>
        <pt x="129" y="456" on="1"/>
        <pt x="90" y="473" on="0"/>
        <pt x="40" y="526" on="0"/>
        <pt x="40" y="572" on="1"/>
        <pt x="40" y="599" on="0"/>
        <pt x="63" y="647" on="0"/>
        <pt x="105" y="682" on="0"/>
        <pt x="164" y="703" on="0"/>
        <pt x="199" y="703" on="1"/>
        <pt x="236" y="703" on="0"/>
        <pt x="312" y="673" on="0"/>
        <pt x="341" y="645" on="1"/>
        <pt x="288" y="581" on="1"/>
        <pt x="266" y="597" on="0"/>
        <pt x="222" y="616" on="0"/>
        <pt x="195" y="616" on="1"/>
        <pt x="169" y="616" on="0"/>
        <pt x="145" y="596" on="0"/>
        <pt x="145" y="580" on="1"/>
        <pt x="145" y="560" on="0"/>
        <pt x="183" y="541" on="0"/>
        <pt x="210" y="529" on="1"/>
        <pt x="267" y="505" on="1"/>
        <pt x="312" y="486" on="0"/>
        <pt x="352" y="437" on="0"/>
        <pt x="352" y="395" on="1"/>
        <pt x="352" y="366" on="0"/>
        <pt x="330" y="314" on="0"/>
        <pt x="288" y="276" on="0"/>
        <pt x="226" y="254" on="0"/>
        <pt x="187" y="254" on="1"/>
        <pt x="143" y="254" on="0"/>
        <pt x="57" y="285" on="0"/>
        <pt x="22" y="317" on="1"/>
      </contour>
    </TTGlyph>
    <TTGlyph name="Sacute" xMin="35" yMin="-12" xMax="522" yMax="822">
      <component glyphName="S" x="0" y="0" flags="0x204"/>
      <component glyphName="uni0301.cap" x="291" y="0" flags="0x4"/>
    </TTGlyph>
    <TTGlyph name="Sacute.sc" xMin="35" yMin="-12" xMax="470" yMax="713">
      <component glyphName="S.sc" x="0" y="0" flags="0x204"/>
      <component glyphName="uni0301.cap" x="272" y="-109" flags="0x4"/>
    </TTGlyph>
    <TTGlyph name="Scaron" xMin="35" yMin="-12" xMax="522" yMax="822">
      <component glyphName="S" x="0" y="0" flags="0x204"/>
      <component glyphName="uni030C.cap" x="291" y="0" flags="0x4"/>
    </TTGlyph>
    <TTGlyph name="Scaron.sc" xMin="35" yMin="-12" xMax="470" yMax="713">
      <component glyphName="S.sc" x="0" y="0" flags="0x204"/>
      <component glyphName="uni030C.cap" x="272" y="-109" flags="0x4"/>
    </TTGlyph>
    <TTGlyph name="Scircumflex" xMin="35" yMin="-12" xMax="522" yMax="822">
      <component glyphName="S" x="0" y="0" flags="0x204"/>
      <component glyphName="uni0302.cap" x="291" y="0" flags="0x4"/>
    </TTGlyph>
    <TTGlyph name="Scircumflex.sc" xMin="35" yMin="-12" xMax="470" yMax="713">
      <component glyphName="S.sc" x="0" y="0" flags="0x204"/>
      <component glyphName="uni0302.cap" x="272" y="-109" flags="0x4"/>
    </TTGlyph>
    <TTGlyph name="T" xMin="25" yMin="0" xMax="531" yMax="652">
      <contour>
        <pt x="204" y="528" on="1"/>
        <pt x="25" y="528" on="1"/>
        <pt x="25" y="652" on="1"/>
        <pt x="531" y="652" on="1"/>
        <pt x="531" y="528" on="1"/>
        <pt x="352" y="528" on="1"/>
        <pt x="352" y="0" on="1"/>
        <pt x="204" y="0" on="1"/>
      </contour>
    </TTGlyph>
    <TTGlyph name="T.sc" xMin="25" yMin="0" xMax="466" yMax="528">
      <contour>
        <pt x="172" y="408" on="1"/>
        <pt x="25" y="408" on="1"/>
        <pt x="25" y="528" on="1"/>
        <pt x="466" y="528" on="1"/>
        <pt x="466" y="408" on="1"/>
        <pt x="319" y="408" on="1"/>
        <pt x="319" y="0" on="1"/>
        <pt x="172" y="0" on="1"/>
      </contour>
    </TTGlyph>
    <TTGlyph name="T.sups" xMin="16" yMin="262" xMax="360" yMax="694">
      <contour>
        <pt x="137" y="608" on="1"/>
        <pt x="16" y="608" on="1"/>
        <pt x="16" y="694" on="1"/>
        <pt x="360" y="694" on="1"/>
        <pt x="360" y="608" on="1"/>
        <pt x="241" y="608" on="1"/>
        <pt x="241" y="262" on="1"/>
        <pt x="137" y="262" on="1"/>
      </contour>
    </TTGlyph>
    <TTGlyph name="Tcaron" xMin="25" yMin="0" xMax="531" yMax="822">
      <component glyphName="T" x="0" y="0" flags="0x204"/>
      <component glyphName="uni030C.cap" x="278" y="0" flags="0x4"/>
    </TTGlyph>
    <TTGlyph name="Tcaron.sc" xMin="25" yMin="0" xMax="466" yMax="713">
      <component glyphName="T.sc" x="0" y="0" flags="0x204"/>
      <component glyphName="uni030C.cap" x="245" y="-109" flags="0x4"/>
    </TTGlyph>
    <TTGlyph name="Thorn" xMin="77" yMin="0" xMax="570" yMax="652">
      <contour>
        <pt x="77" y="652" on="1"/>
        <pt x="224" y="652" on="1"/>
        <pt x="224" y="553" on="1"/>
        <pt x="315" y="553" on="1"/>
        <pt x="368" y="553" on="0"/>
        <pt x="461" y="532" on="0"/>
        <pt x="530" y="483" on="0"/>
        <pt x="570" y="403" on="0"/>
        <pt x="570" y="344" on="1"/>
        <pt x="570" y="286" on="0"/>
        <pt x="529" y="203" on="0"/>
        <pt x="459" y="149" on="0"/>
        <pt x="367" y="123" on="0"/>
        <pt x="315" y="123" on="1"/>
        <pt x="224" y="123" on="1"/>
        <pt x="224" y="0" on="1"/>
        <pt x="77" y="0" on="1"/>
      </contour>
      <contour>
        <pt x="306" y="240" on="1"/>
        <pt x="426" y="240" on="0"/>
        <pt x="426" y="344" on="1"/>
        <pt x="426" y="395" on="0"/>
        <pt x="365" y="436" on="0"/>
        <pt x="306" y="436" on="1"/>
        <pt x="224" y="436" on="1"/>
        <pt x="224" y="240" on="1"/>
      </contour>
    </TTGlyph>
    <TTGlyph name="Thorn.sc" xMin="77" yMin="0" xMax="515" yMax="528">
      <contour>
        <pt x="77" y="528" on="1"/>
        <pt x="224" y="528" on="1"/>
        <pt x="224" y="448" on="1"/>
        <pt x="291" y="448" on="1"/>
        <pt x="336" y="448" on="0"/>
        <pt x="417" y="432" on="0"/>
        <pt x="479" y="392" on="0"/>
        <pt x="515" y="325" on="0"/>
        <pt x="515" y="275" on="1"/>
        <pt x="515" y="226" on="0"/>
        <pt x="478" y="157" on="0"/>
        <pt x="416" y="113" on="0"/>
        <pt x="335" y="92" on="0"/>
        <pt x="291" y="92" on="1"/>
        <pt x="224" y="92" on="1"/>
        <pt x="224" y="0" on="1"/>
        <pt x="77" y="0" on="1"/>
      </contour>
      <contour>
        <pt x="285" y="198" on="1"/>
        <pt x="372" y="198" on="0"/>
        <pt x="372" y="275" on="1"/>
        <pt x="372" y="313" on="0"/>
        <pt x="327" y="342" on="0"/>
        <pt x="285" y="342" on="1"/>
        <pt x="224" y="342" on="1"/>
        <pt x="224" y="198" on="1"/>
      </contour>
    </TTGlyph>
    <TTGlyph name="U" xMin="73" yMin="-12" xMax="591" yMax="652">
      <contour>
        <pt x="73" y="652" on="1"/>
        <pt x="221" y="652" on="1"/>
        <pt x="221" y="287" on="1"/>
        <pt x="221" y="191" on="0"/>
        <pt x="279" y="115" on="0"/>
        <pt x="334" y="115" on="1"/>
        <pt x="389" y="115" on="0"/>
        <pt x="449" y="191" on="0"/>
        <pt x="449" y="287" on="1"/>
        <pt x="449" y="652" on="1"/>
        <pt x="591" y="652" on="1"/>
        <pt x="591" y="302" on="1"/>
        <pt x="591" y="138" on="0"/>
        <pt x="460" y="-12" on="0"/>
        <pt x="334" y="-12" on="1"/>
        <pt x="207" y="-12" on="0"/>
        <pt x="73" y="138" on="0"/>
        <pt x="73" y="302" on="1"/>
      </contour>
    </TTGlyph>
    <TTGlyph name="U.sc" xMin="73" yMin="-12" xMax="534" yMax="528">
      <contour>
        <pt x="73" y="528" on="1"/>
        <pt x="219" y="528" on="1"/>
        <pt x="219" y="236" on="1"/>
        <pt x="219" y="165" on="0"/>
        <pt x="262" y="109" on="0"/>
        <pt x="307" y="109" on="1"/>
        <pt x="352" y="109" on="0"/>
        <pt x="393" y="165" on="0"/>
        <pt x="393" y="236" on="1"/>
        <pt x="393" y="528" on="1"/>
        <pt x="534" y="528" on="1"/>
        <pt x="534" y="245" on="1"/>
        <pt x="534" y="108" on="0"/>
        <pt x="420" y="-12" on="0"/>
        <pt x="305" y="-12" on="1"/>
        <pt x="249" y="-12" on="0"/>
        <pt x="162" y="17" on="0"/>
        <pt x="103" y="79" on="0"/>
        <pt x="73" y="177" on="0"/>
        <pt x="73" y="245" on="1"/>
      </contour>
    </TTGlyph>
    <TTGlyph name="U.sups" xMin="48" yMin="254" xMax="400" yMax="694">
      <contour>
        <pt x="48" y="694" on="1"/>
        <pt x="152" y="694" on="1"/>
        <pt x="152" y="454" on="1"/>
        <pt x="152" y="391" on="0"/>
        <pt x="189" y="342" on="0"/>
        <pt x="226" y="342" on="1"/>
        <pt x="262" y="342" on="0"/>
        <pt x="300" y="391" on="0"/>
        <pt x="300" y="454" on="1"/>
        <pt x="300" y="694" on="1"/>
        <pt x="400" y="694" on="1"/>
        <pt x="400" y="465" on="1"/>
        <pt x="400" y="354" on="0"/>
        <pt x="314" y="254" on="0"/>
        <pt x="226" y="254" on="1"/>
        <pt x="135" y="254" on="0"/>
        <pt x="48" y="354" on="0"/>
        <pt x="48" y="465" on="1"/>
      </contour>
    </TTGlyph>
    <TTGlyph name="Uacute" xMin="73" yMin="-12" xMax="591" yMax="822">
      <component glyphName="U" x="0" y="0" flags="0x204"/>
      <component glyphName="uni0301.cap" x="332" y="0" flags="0x4"/>
    </TTGlyph>
    <TTGlyph name="Uacute.sc" xMin="73" yMin="-12" xMax="534" yMax="713">
      <component glyphName="U.sc" x="0" y="0" flags="0x204"/>
      <component glyphName="uni0301.cap" x="303" y="-109" flags="0x4"/>
    </TTGlyph>
    <TTGlyph name="Ubreve" xMin="73" yMin="-12" xMax="591" yMax="822">
      <component glyphName="U" x="0" y="0" flags="0x204"/>
      <component glyphName="uni0306.cap" x="332" y="0" flags="0x4"/>
    </TTGlyph>
    <TTGlyph name="Ubreve.sc" xMin="73" yMin="-12" xMax="534" yMax="713">
      <component glyphName="U.sc" x="0" y="0" flags="0x204"/>
      <component glyphName="uni0306.cap" x="303" y="-109" flags="0x4"/>
    </TTGlyph>
    <TTGlyph name="Ucircumflex" xMin="73" yMin="-12" xMax="591" yMax="822">
      <component glyphName="U" x="0" y="0" flags="0x204"/>
      <component glyphName="uni0302.cap" x="332" y="0" flags="0x4"/>
    </TTGlyph>
    <TTGlyph name="Ucircumflex.sc" xMin="73" yMin="-12" xMax="534" yMax="713">
      <component glyphName="U.sc" x="0" y="0" flags="0x204"/>
      <component glyphName="uni0302.cap" x="303" y="-109" flags="0x4"/>
    </TTGlyph>
    <TTGlyph name="Udieresis" xMin="73" yMin="-12" xMax="591" yMax="840">
      <component glyphName="U" x="0" y="0" flags="0x204"/>
      <component glyphName="uni0308.cap" x="332" y="0" flags="0x4"/>
    </TTGlyph>
    <TTGlyph name="Udieresis.sc" xMin="73" yMin="-12" xMax="534" yMax="731">
      <component glyphName="U.sc" x="0" y="0" flags="0x204"/>
      <component glyphName="uni0308.cap" x="303" y="-109" flags="0x4"/>
    </TTGlyph>
    <TTGlyph name="Ugrave" xMin="73" yMin="-12" xMax="591" yMax="822">
      <component glyphName="U" x="0" y="0" flags="0x204"/>
      <component glyphName="uni0300.cap" x="332" y="0" flags="0x4"/>
    </TTGlyph>
    <TTGlyph name="Ugrave.sc" xMin="73" yMin="-12" xMax="534" yMax="713">
      <component glyphName="U.sc" x="0" y="0" flags="0x204"/>
      <component glyphName="uni0300.cap" x="303" y="-109" flags="0x4"/>
    </TTGlyph>
    <TTGlyph name="Uhorn" xMin="73" yMin="-12" xMax="716" yMax="804">
      <contour>
        <pt x="686" y="804" on="1"/>
        <pt x="697" y="790" on="0"/>
        <pt x="716" y="749" on="0"/>
        <pt x="716" y="724" on="1"/>
        <pt x="716" y="696" on="0"/>
        <pt x="697" y="653" on="0"/>
        <pt x="663" y="622" on="0"/>
        <pt x="617" y="603" on="0"/>
        <pt x="591" y="598" on="1"/>
        <pt x="591" y="302" on="1"/>
        <pt x="591" y="138" on="0"/>
        <pt x="460" y="-12" on="0"/>
        <pt x="334" y="-12" on="1"/>
        <pt x="207" y="-12" on="0"/>
        <pt x="73" y="138" on="0"/>
        <pt x="73" y="302" on="1"/>
        <pt x="73" y="652" on="1"/>
        <pt x="221" y="652" on="1"/>
        <pt x="221" y="287" on="1"/>
        <pt x="221" y="191" on="0"/>
        <pt x="279" y="115" on="0"/>
        <pt x="334" y="115" on="1"/>
        <pt x="389" y="115" on="0"/>
        <pt x="449" y="191" on="0"/>
        <pt x="449" y="287" on="1"/>
        <pt x="449" y="652" on="1"/>
        <pt x="519" y="652" on="1"/>
        <pt x="534" y="652" on="0"/>
        <pt x="564" y="657" on="0"/>
        <pt x="587" y="671" on="0"/>
        <pt x="602" y="694" on="0"/>
        <pt x="602" y="714" on="1"/>
        <pt x="602" y="728" on="0"/>
        <pt x="592" y="751" on="0"/>
        <pt x="586" y="760" on="1"/>
      </contour>
    </TTGlyph>
    <TTGlyph name="Uhorn.sc" xMin="73" yMin="-12" xMax="658" yMax="680">
      <contour>
        <pt x="628" y="680" on="1"/>
        <pt x="640" y="666" on="0"/>
        <pt x="658" y="625" on="0"/>
        <pt x="658" y="600" on="1"/>
        <pt x="658" y="544" on="0"/>
        <pt x="586" y="484" on="0"/>
        <pt x="534" y="474" on="1"/>
        <pt x="534" y="245" on="1"/>
        <pt x="534" y="108" on="0"/>
        <pt x="420" y="-12" on="0"/>
        <pt x="305" y="-12" on="1"/>
        <pt x="249" y="-12" on="0"/>
        <pt x="162" y="17" on="0"/>
        <pt x="103" y="79" on="0"/>
        <pt x="73" y="177" on="0"/>
        <pt x="73" y="245" on="1"/>
        <pt x="73" y="528" on="1"/>
        <pt x="219" y="528" on="1"/>
        <pt x="219" y="236" on="1"/>
        <pt x="219" y="165" on="0"/>
        <pt x="262" y="109" on="0"/>
        <pt x="307" y="109" on="1"/>
        <pt x="352" y="109" on="0"/>
        <pt x="393" y="165" on="0"/>
        <pt x="393" y="236" on="1"/>
        <pt x="393" y="528" on="1"/>
        <pt x="461" y="528" on="1"/>
        <pt x="476" y="529" on="0"/>
        <pt x="506" y="534" on="0"/>
        <pt x="529" y="547" on="0"/>
        <pt x="544" y="570" on="0"/>
        <pt x="544" y="590" on="1"/>
        <pt x="544" y="604" on="0"/>
        <pt x="534" y="628" on="0"/>
        <pt x="528" y="636" on="1"/>
      </contour>
    </TTGlyph>
    <TTGlyph name="Uhungarumlaut" xMin="73" yMin="-12" xMax="591" yMax="822">
      <component glyphName="U" x="0" y="0" flags="0x204"/>
      <component glyphName="uni030B.cap" x="332" y="0" flags="0x4"/>
    </TTGlyph>
    <TTGlyph name="Uhungarumlaut.sc" xMin="73" yMin="-12" xMax="534" yMax="713">
      <component glyphName="U.sc" x="0" y="0" flags="0x204"/>
      <component glyphName="uni030B.cap" x="303" y="-109" flags="0x4"/>
    </TTGlyph>
    <TTGlyph name="Umacron" xMin="73" yMin="-12" xMax="591" yMax="813">
      <component glyphName="U" x="0" y="0" flags="0x204"/>
      <component glyphName="uni0304.cap" x="332" y="0" flags="0x4"/>
    </TTGlyph>
    <TTGlyph name="Umacron.sc" xMin="73" yMin="-12" xMax="534" yMax="704">
      <component glyphName="U.sc" x="0" y="0" flags="0x204"/>
      <component glyphName="uni0304.cap" x="303" y="-109" flags="0x4"/>
    </TTGlyph>
    <TTGlyph name="Uogonek" xMin="73" yMin="-223" xMax="591" yMax="652">
      <contour>
        <pt x="73" y="652" on="1"/>
        <pt x="221" y="652" on="1"/>
        <pt x="221" y="287" on="1"/>
        <pt x="221" y="191" on="0"/>
        <pt x="279" y="115" on="0"/>
        <pt x="334" y="115" on="1"/>
        <pt x="389" y="115" on="0"/>
        <pt x="449" y="191" on="0"/>
        <pt x="449" y="287" on="1"/>
        <pt x="449" y="652" on="1"/>
        <pt x="591" y="652" on="1"/>
        <pt x="591" y="302" on="1"/>
        <pt x="591" y="233" on="0"/>
        <pt x="571" y="135" on="0"/>
        <pt x="529" y="64" on="0"/>
        <pt x="465" y="15" on="0"/>
        <pt x="421" y="-5" on="1"/>
        <pt x="383" y="-22" on="0"/>
        <pt x="350" y="-70" on="0"/>
        <pt x="350" y="-90" on="1"/>
        <pt x="350" y="-110" on="0"/>
        <pt x="376" y="-128" on="0"/>
        <pt x="392" y="-128" on="1"/>
        <pt x="402" y="-128" on="0"/>
        <pt x="420" y="-119" on="0"/>
        <pt x="428" y="-114" on="1"/>
        <pt x="462" y="-188" on="1"/>
        <pt x="442" y="-203" on="0"/>
        <pt x="383" y="-223" on="0"/>
        <pt x="357" y="-223" on="1"/>
        <pt x="309" y="-223" on="0"/>
        <pt x="243" y="-174" on="0"/>
        <pt x="243" y="-129" on="1"/>
        <pt x="243" y="-106" on="0"/>
        <pt x="258" y="-67" on="0"/>
        <pt x="279" y="-37" on="0"/>
        <pt x="300" y="-16" on="0"/>
        <pt x="307" y="-10" on="1"/>
        <pt x="192" y="-3" on="0"/>
        <pt x="73" y="148" on="0"/>
        <pt x="73" y="302" on="1"/>
      </contour>
    </TTGlyph>
    <TTGlyph name="Uogonek.sc" xMin="73" yMin="-223" xMax="534" yMax="528">
      <contour>
        <pt x="534" y="245" on="1"/>
        <pt x="534" y="189" on="0"/>
        <pt x="517" y="109" on="0"/>
        <pt x="483" y="51" on="0"/>
        <pt x="429" y="11" on="0"/>
        <pt x="393" y="-5" on="1"/>
        <pt x="355" y="-22" on="0"/>
        <pt x="322" y="-70" on="0"/>
        <pt x="322" y="-90" on="1"/>
        <pt x="322" y="-110" on="0"/>
        <pt x="348" y="-128" on="0"/>
        <pt x="364" y="-128" on="1"/>
        <pt x="374" y="-128" on="0"/>
        <pt x="392" y="-119" on="0"/>
        <pt x="400" y="-114" on="1"/>
        <pt x="433" y="-188" on="1"/>
        <pt x="414" y="-203" on="0"/>
        <pt x="355" y="-223" on="0"/>
        <pt x="329" y="-223" on="1"/>
        <pt x="281" y="-223" on="0"/>
        <pt x="214" y="-174" on="0"/>
        <pt x="214" y="-129" on="1"/>
        <pt x="214" y="-106" on="0"/>
        <pt x="229" y="-67" on="0"/>
        <pt x="250" y="-37" on="0"/>
        <pt x="272" y="-16" on="0"/>
        <pt x="278" y="-10" on="1"/>
        <pt x="179" y="-3" on="0"/>
        <pt x="73" y="116" on="0"/>
        <pt x="73" y="245" on="1"/>
        <pt x="73" y="528" on="1"/>
        <pt x="219" y="528" on="1"/>
        <pt x="219" y="236" on="1"/>
        <pt x="219" y="165" on="0"/>
        <pt x="262" y="109" on="0"/>
        <pt x="307" y="109" on="1"/>
        <pt x="352" y="109" on="0"/>
        <pt x="393" y="165" on="0"/>
        <pt x="393" y="236" on="1"/>
        <pt x="393" y="528" on="1"/>
        <pt x="534" y="528" on="1"/>
      </contour>
    </TTGlyph>
    <TTGlyph name="Uring" xMin="73" yMin="-12" xMax="591" yMax="893">
      <component glyphName="U" x="0" y="0" flags="0x204"/>
      <component glyphName="uni030A.cap" x="332" y="0" flags="0x4"/>
    </TTGlyph>
    <TTGlyph name="Uring.sc" xMin="73" yMin="-12" xMax="534" yMax="784">
      <component glyphName="U.sc" x="0" y="0" flags="0x204"/>
      <component glyphName="uni030A.cap" x="303" y="-109" flags="0x4"/>
    </TTGlyph>
    <TTGlyph name="Utilde" xMin="73" yMin="-12" xMax="591" yMax="839">
      <component glyphName="U" x="0" y="0" flags="0x204"/>
      <component glyphName="uni0303.cap" x="332" y="0" flags="0x4"/>
    </TTGlyph>
    <TTGlyph name="Utilde.sc" xMin="73" yMin="-12" xMax="534" yMax="730">
      <component glyphName="U.sc" x="0" y="0" flags="0x204"/>
      <component glyphName="uni0303.cap" x="303" y="-109" flags="0x4"/>
    </TTGlyph>
    <TTGlyph name="V" xMin="-7" yMin="0" xMax="563" yMax="652">
      <contour>
        <pt x="-7" y="652" on="1"/>
        <pt x="149" y="652" on="1"/>
        <pt x="227" y="348" on="1"/>
        <pt x="242" y="294" on="0"/>
        <pt x="265" y="193" on="0"/>
        <pt x="280" y="139" on="1"/>
        <pt x="284" y="139" on="1"/>
        <pt x="298" y="193" on="0"/>
        <pt x="322" y="294" on="0"/>
        <pt x="336" y="348" on="1"/>
        <pt x="413" y="652" on="1"/>
        <pt x="563" y="652" on="1"/>
        <pt x="367" y="0" on="1"/>
        <pt x="190" y="0" on="1"/>
      </contour>
    </TTGlyph>
    <TTGlyph name="V.sc" xMin="-7" yMin="0" xMax="498" yMax="528">
      <contour>
        <pt x="-7" y="528" on="1"/>
        <pt x="145" y="528" on="1"/>
        <pt x="205" y="298" on="1"/>
        <pt x="216" y="256" on="0"/>
        <pt x="236" y="175" on="0"/>
        <pt x="247" y="130" on="1"/>
        <pt x="251" y="130" on="1"/>
        <pt x="263" y="174" on="0"/>
        <pt x="282" y="256" on="0"/>
        <pt x="293" y="298" on="1"/>
        <pt x="351" y="528" on="1"/>
        <pt x="498" y="528" on="1"/>
        <pt x="333" y="0" on="1"/>
        <pt x="157" y="0" on="1"/>
      </contour>
    </TTGlyph>
    <TTGlyph name="V.sups" xMin="-6" yMin="262" xMax="383" yMax="694">
      <contour>
        <pt x="-6" y="694" on="1"/>
        <pt x="105" y="694" on="1"/>
        <pt x="156" y="497" on="1"/>
        <pt x="165" y="462" on="0"/>
        <pt x="181" y="395" on="0"/>
        <pt x="191" y="359" on="1"/>
        <pt x="193" y="359" on="1"/>
        <pt x="203" y="395" on="0"/>
        <pt x="218" y="462" on="0"/>
        <pt x="227" y="497" on="1"/>
        <pt x="278" y="694" on="1"/>
        <pt x="383" y="694" on="1"/>
        <pt x="252" y="262" on="1"/>
        <pt x="127" y="262" on="1"/>
      </contour>
    </TTGlyph>
    <TTGlyph name="W" xMin="14" yMin="0" xMax="800" yMax="652">
      <contour>
        <pt x="14" y="652" on="1"/>
        <pt x="165" y="652" on="1"/>
        <pt x="210" y="347" on="1"/>
        <pt x="216" y="296" on="0"/>
        <pt x="230" y="193" on="0"/>
        <pt x="236" y="141" on="1"/>
        <pt x="240" y="141" on="1"/>
        <pt x="250" y="193" on="0"/>
        <pt x="269" y="296" on="0"/>
        <pt x="279" y="347" on="1"/>
        <pt x="349" y="652" on="1"/>
        <pt x="474" y="652" on="1"/>
        <pt x="544" y="347" on="1"/>
        <pt x="554" y="297" on="0"/>
        <pt x="573" y="194" on="0"/>
        <pt x="583" y="141" on="1"/>
        <pt x="587" y="141" on="1"/>
        <pt x="594" y="194" on="0"/>
        <pt x="607" y="296" on="0"/>
        <pt x="614" y="347" on="1"/>
        <pt x="659" y="652" on="1"/>
        <pt x="800" y="652" on="1"/>
        <pt x="684" y="0" on="1"/>
        <pt x="499" y="0" on="1"/>
        <pt x="435" y="296" on="1"/>
        <pt x="427" y="334" on="0"/>
        <pt x="414" y="411" on="0"/>
        <pt x="409" y="447" on="1"/>
        <pt x="405" y="447" on="1"/>
        <pt x="399" y="411" on="0"/>
        <pt x="386" y="334" on="0"/>
        <pt x="378" y="296" on="1"/>
        <pt x="317" y="0" on="1"/>
        <pt x="135" y="0" on="1"/>
      </contour>
    </TTGlyph>
    <TTGlyph name="W.sc" xMin="14" yMin="0" xMax="703" yMax="527">
      <contour>
        <pt x="14" y="527" on="1"/>
        <pt x="158" y="527" on="1"/>
        <pt x="192" y="297" on="1"/>
        <pt x="197" y="255" on="0"/>
        <pt x="207" y="174" on="0"/>
        <pt x="212" y="132" on="1"/>
        <pt x="216" y="132" on="1"/>
        <pt x="224" y="174" on="0"/>
        <pt x="241" y="256" on="0"/>
        <pt x="249" y="297" on="1"/>
        <pt x="305" y="527" on="1"/>
        <pt x="423" y="527" on="1"/>
        <pt x="477" y="297" on="1"/>
        <pt x="485" y="257" on="0"/>
        <pt x="503" y="174" on="0"/>
        <pt x="511" y="132" on="1"/>
        <pt x="515" y="132" on="1"/>
        <pt x="520" y="174" on="0"/>
        <pt x="530" y="256" on="0"/>
        <pt x="535" y="297" on="1"/>
        <pt x="569" y="527" on="1"/>
        <pt x="703" y="527" on="1"/>
        <pt x="607" y="0" on="1"/>
        <pt x="430" y="0" on="1"/>
        <pt x="381" y="209" on="1"/>
        <pt x="369" y="272" on="0"/>
        <pt x="361" y="332" on="1"/>
        <pt x="357" y="332" on="1"/>
        <pt x="352" y="303" on="0"/>
        <pt x="343" y="240" on="0"/>
        <pt x="335" y="209" on="1"/>
        <pt x="289" y="0" on="1"/>
        <pt x="115" y="0" on="1"/>
      </contour>
    </TTGlyph>
    <TTGlyph name="W.sups" xMin="8" yMin="262" xMax="541" yMax="694">
      <contour>
        <pt x="8" y="694" on="1"/>
        <pt x="115" y="694" on="1"/>
        <pt x="143" y="497" on="1"/>
        <pt x="148" y="462" on="0"/>
        <pt x="156" y="395" on="0"/>
        <pt x="161" y="360" on="1"/>
        <pt x="164" y="360" on="1"/>
        <pt x="171" y="395" on="0"/>
        <pt x="181" y="463" on="0"/>
        <pt x="189" y="497" on="1"/>
        <pt x="234" y="694" on="1"/>
        <pt x="322" y="694" on="1"/>
        <pt x="368" y="497" on="1"/>
        <pt x="375" y="465" on="0"/>
        <pt x="388" y="395" on="0"/>
        <pt x="394" y="360" on="1"/>
        <pt x="397" y="360" on="1"/>
        <pt x="401" y="395" on="0"/>
        <pt x="408" y="464" on="0"/>
        <pt x="413" y="497" on="1"/>
        <pt x="442" y="694" on="1"/>
        <pt x="541" y="694" on="1"/>
        <pt x="465" y="262" on="1"/>
        <pt x="334" y="262" on="1"/>
        <pt x="293" y="452" on="1"/>
        <pt x="282" y="501" on="0"/>
        <pt x="276" y="550" on="1"/>
        <pt x="273" y="550" on="1"/>
        <pt x="269" y="527" on="0"/>
        <pt x="261" y="476" on="0"/>
        <pt x="256" y="452" on="1"/>
        <pt x="218" y="262" on="1"/>
        <pt x="89" y="262" on="1"/>
      </contour>
    </TTGlyph>
    <TTGlyph name="Wacute" xMin="14" yMin="0" xMax="800" yMax="822">
      <component glyphName="W" x="0" y="0" flags="0x204"/>
      <component glyphName="uni0301.cap" x="406" y="0" flags="0x4"/>
    </TTGlyph>
    <TTGlyph name="Wacute.sc" xMin="14" yMin="0" xMax="703" yMax="713">
      <component glyphName="W.sc" x="0" y="0" flags="0x204"/>
      <component glyphName="uni0301.cap" x="359" y="-109" flags="0x4"/>
    </TTGlyph>
    <TTGlyph name="Wcircumflex" xMin="14" yMin="0" xMax="800" yMax="822">
      <component glyphName="W" x="0" y="0" flags="0x204"/>
      <component glyphName="uni0302.cap" x="406" y="0" flags="0x4"/>
    </TTGlyph>
    <TTGlyph name="Wcircumflex.sc" xMin="14" yMin="0" xMax="703" yMax="713">
      <component glyphName="W.sc" x="0" y="0" flags="0x204"/>
      <component glyphName="uni0302.cap" x="359" y="-109" flags="0x4"/>
    </TTGlyph>
    <TTGlyph name="Wdieresis" xMin="14" yMin="0" xMax="800" yMax="840">
      <component glyphName="W" x="0" y="0" flags="0x204"/>
      <component glyphName="uni0308.cap" x="406" y="0" flags="0x4"/>
    </TTGlyph>
    <TTGlyph name="Wdieresis.sc" xMin="14" yMin="0" xMax="703" yMax="731">
      <component glyphName="W.sc" x="0" y="0" flags="0x204"/>
      <component glyphName="uni0308.cap" x="359" y="-109" flags="0x4"/>
    </TTGlyph>
    <TTGlyph name="Wgrave" xMin="14" yMin="0" xMax="800" yMax="822">
      <component glyphName="W" x="0" y="0" flags="0x204"/>
      <component glyphName="uni0300.cap" x="406" y="0" flags="0x4"/>
    </TTGlyph>
    <TTGlyph name="Wgrave.sc" xMin="14" yMin="0" xMax="703" yMax="713">
      <component glyphName="W.sc" x="0" y="0" flags="0x204"/>
      <component glyphName="uni0300.cap" x="359" y="-109" flags="0x4"/>
    </TTGlyph>
    <TTGlyph name="X" xMin="11" yMin="0" xMax="556" yMax="652">
      <contour>
        <pt x="192" y="335" on="1"/>
        <pt x="22" y="652" on="1"/>
        <pt x="186" y="652" on="1"/>
        <pt x="243" y="529" on="1"/>
        <pt x="254" y="506" on="0"/>
        <pt x="276" y="455" on="0"/>
        <pt x="290" y="424" on="1"/>
        <pt x="294" y="424" on="1"/>
        <pt x="305" y="455" on="0"/>
        <pt x="326" y="506" on="0"/>
        <pt x="336" y="529" on="1"/>
        <pt x="388" y="652" on="1"/>
        <pt x="545" y="652" on="1"/>
        <pt x="376" y="328" on="1"/>
        <pt x="556" y="0" on="1"/>
        <pt x="392" y="0" on="1"/>
        <pt x="327" y="133" on="1"/>
        <pt x="315" y="159" on="0"/>
        <pt x="292" y="210" on="0"/>
        <pt x="278" y="240" on="1"/>
        <pt x="274" y="240" on="1"/>
        <pt x="263" y="210" on="0"/>
        <pt x="241" y="159" on="0"/>
        <pt x="230" y="133" on="1"/>
        <pt x="169" y="0" on="1"/>
        <pt x="11" y="0" on="1"/>
      </contour>
    </TTGlyph>
    <TTGlyph name="X.sc" xMin="11" yMin="0" xMax="497" yMax="528">
      <contour>
        <pt x="163" y="271" on="1"/>
        <pt x="20" y="528" on="1"/>
        <pt x="182" y="528" on="1"/>
        <pt x="221" y="445" on="1"/>
        <pt x="229" y="427" on="0"/>
        <pt x="249" y="383" on="0"/>
        <pt x="260" y="357" on="1"/>
        <pt x="264" y="357" on="1"/>
        <pt x="274" y="383" on="0"/>
        <pt x="292" y="427" on="0"/>
        <pt x="299" y="445" on="1"/>
        <pt x="332" y="528" on="1"/>
        <pt x="488" y="528" on="1"/>
        <pt x="345" y="265" on="1"/>
        <pt x="497" y="0" on="1"/>
        <pt x="335" y="0" on="1"/>
        <pt x="290" y="91" on="1"/>
        <pt x="279" y="112" on="0"/>
        <pt x="260" y="155" on="0"/>
        <pt x="249" y="180" on="1"/>
        <pt x="245" y="180" on="1"/>
        <pt x="236" y="155" on="0"/>
        <pt x="218" y="112" on="0"/>
        <pt x="210" y="91" on="1"/>
        <pt x="167" y="0" on="1"/>
        <pt x="11" y="0" on="1"/>
      </contour>
    </TTGlyph>
    <TTGlyph name="X.sups" xMin="7" yMin="262" xMax="378" yMax="694">
      <contour>
        <pt x="129" y="484" on="1"/>
        <pt x="15" y="694" on="1"/>
        <pt x="131" y="694" on="1"/>
        <pt x="166" y="617" on="1"/>
        <pt x="172" y="602" on="0"/>
        <pt x="189" y="567" on="0"/>
        <pt x="198" y="546" on="1"/>
        <pt x="201" y="546" on="1"/>
        <pt x="209" y="567" on="0"/>
        <pt x="223" y="602" on="0"/>
        <pt x="228" y="617" on="1"/>
        <pt x="260" y="694" on="1"/>
        <pt x="372" y="694" on="1"/>
        <pt x="259" y="480" on="1"/>
        <pt x="378" y="262" on="1"/>
        <pt x="262" y="262" on="1"/>
        <pt x="223" y="347" on="1"/>
        <pt x="215" y="364" on="0"/>
        <pt x="199" y="398" on="0"/>
        <pt x="190" y="418" on="1"/>
        <pt x="188" y="418" on="1"/>
        <pt x="180" y="398" on="0"/>
        <pt x="164" y="364" on="0"/>
        <pt x="156" y="347" on="1"/>
        <pt x="118" y="262" on="1"/>
        <pt x="7" y="262" on="1"/>
      </contour>
    </TTGlyph>
    <TTGlyph name="Y" xMin="-8" yMin="0" xMax="533" yMax="652">
      <contour>
        <pt x="189" y="232" on="1"/>
        <pt x="-8" y="652" on="1"/>
        <pt x="150" y="652" on="1"/>
        <pt x="208" y="502" on="1"/>
        <pt x="222" y="465" on="0"/>
        <pt x="247" y="396" on="0"/>
        <pt x="261" y="358" on="1"/>
        <pt x="265" y="358" on="1"/>
        <pt x="279" y="396" on="0"/>
        <pt x="306" y="465" on="0"/>
        <pt x="320" y="502" on="1"/>
        <pt x="379" y="652" on="1"/>
        <pt x="533" y="652" on="1"/>
        <pt x="336" y="232" on="1"/>
        <pt x="336" y="0" on="1"/>
        <pt x="189" y="0" on="1"/>
      </contour>
    </TTGlyph>
    <TTGlyph name="Y.sc" xMin="-8" yMin="0" xMax="474" yMax="528">
      <contour>
        <pt x="160" y="181" on="1"/>
        <pt x="-8" y="528" on="1"/>
        <pt x="148" y="528" on="1"/>
        <pt x="190" y="421" on="1"/>
        <pt x="200" y="390" on="0"/>
        <pt x="221" y="335" on="0"/>
        <pt x="232" y="303" on="1"/>
        <pt x="236" y="303" on="1"/>
        <pt x="247" y="335" on="0"/>
        <pt x="269" y="390" on="0"/>
        <pt x="280" y="421" on="1"/>
        <pt x="322" y="528" on="1"/>
        <pt x="474" y="528" on="1"/>
        <pt x="307" y="181" on="1"/>
        <pt x="307" y="0" on="1"/>
        <pt x="160" y="0" on="1"/>
      </contour>
    </TTGlyph>
    <TTGlyph name="Y.sups" xMin="-6" yMin="262" xMax="362" yMax="694">
      <contour>
        <pt x="127" y="415" on="1"/>
        <pt x="-6" y="694" on="1"/>
        <pt x="105" y="694" on="1"/>
        <pt x="142" y="599" on="1"/>
        <pt x="152" y="574" on="0"/>
        <pt x="169" y="527" on="0"/>
        <pt x="179" y="502" on="1"/>
        <pt x="181" y="502" on="1"/>
        <pt x="190" y="527" on="0"/>
        <pt x="208" y="574" on="0"/>
        <pt x="217" y="599" on="1"/>
        <pt x="254" y="694" on="1"/>
        <pt x="362" y="694" on="1"/>
        <pt x="231" y="415" on="1"/>
        <pt x="231" y="262" on="1"/>
        <pt x="127" y="262" on="1"/>
      </contour>
    </TTGlyph>
    <TTGlyph name="Yacute" xMin="-8" yMin="0" xMax="533" yMax="822">
      <component glyphName="Y" x="0" y="0" flags="0x204"/>
      <component glyphName="uni0301.cap" x="262" y="0" flags="0x4"/>
    </TTGlyph>
    <TTGlyph name="Yacute.sc" xMin="-8" yMin="0" xMax="474" yMax="713">
      <component glyphName="Y.sc" x="0" y="0" flags="0x204"/>
      <component glyphName="uni0301.cap" x="231" y="-109" flags="0x4"/>
    </TTGlyph>
    <TTGlyph name="Ycircumflex" xMin="-8" yMin="0" xMax="533" yMax="822">
      <component glyphName="Y" x="0" y="0" flags="0x204"/>
      <component glyphName="uni0302.cap" x="262" y="0" flags="0x4"/>
    </TTGlyph>
    <TTGlyph name="Ycircumflex.sc" xMin="-8" yMin="0" xMax="474" yMax="713">
      <component glyphName="Y.sc" x="0" y="0" flags="0x204"/>
      <component glyphName="uni0302.cap" x="231" y="-109" flags="0x4"/>
    </TTGlyph>
    <TTGlyph name="Ydieresis" xMin="-8" yMin="0" xMax="533" yMax="840">
      <component glyphName="Y" x="0" y="0" flags="0x204"/>
      <component glyphName="uni0308.cap" x="262" y="0" flags="0x4"/>
    </TTGlyph>
    <TTGlyph name="Ydieresis.sc" xMin="-8" yMin="0" xMax="474" yMax="731">
      <component glyphName="Y.sc" x="0" y="0" flags="0x204"/>
      <component glyphName="uni0308.cap" x="231" y="-109" flags="0x4"/>
    </TTGlyph>
    <TTGlyph name="Ygrave" xMin="-8" yMin="0" xMax="533" yMax="822">
      <component glyphName="Y" x="0" y="0" flags="0x204"/>
      <component glyphName="uni0300.cap" x="262" y="0" flags="0x4"/>
    </TTGlyph>
    <TTGlyph name="Ygrave.sc" xMin="-8" yMin="0" xMax="474" yMax="713">
      <component glyphName="Y.sc" x="0" y="0" flags="0x204"/>
      <component glyphName="uni0300.cap" x="231" y="-109" flags="0x4"/>
    </TTGlyph>
    <TTGlyph name="Z" xMin="36" yMin="0" xMax="508" yMax="652">
      <contour>
        <pt x="36" y="89" on="1"/>
        <pt x="324" y="528" on="1"/>
        <pt x="63" y="528" on="1"/>
        <pt x="63" y="652" on="1"/>
        <pt x="505" y="652" on="1"/>
        <pt x="505" y="563" on="1"/>
        <pt x="217" y="124" on="1"/>
        <pt x="508" y="124" on="1"/>
        <pt x="508" y="0" on="1"/>
        <pt x="36" y="0" on="1"/>
      </contour>
    </TTGlyph>
    <TTGlyph name="Z.sc" xMin="36" yMin="0" xMax="447" yMax="528">
      <contour>
        <pt x="36" y="87" on="1"/>
        <pt x="267" y="408" on="1"/>
        <pt x="59" y="408" on="1"/>
        <pt x="59" y="528" on="1"/>
        <pt x="444" y="528" on="1"/>
        <pt x="444" y="441" on="1"/>
        <pt x="213" y="120" on="1"/>
        <pt x="447" y="120" on="1"/>
        <pt x="447" y="0" on="1"/>
        <pt x="36" y="0" on="1"/>
      </contour>
    </TTGlyph>
    <TTGlyph name="Z.sups" xMin="23" yMin="262" xMax="342" yMax="694">
      <contour>
        <pt x="23" y="324" on="1"/>
        <pt x="212" y="608" on="1"/>
        <pt x="41" y="608" on="1"/>
        <pt x="41" y="694" on="1"/>
        <pt x="341" y="694" on="1"/>
        <pt x="341" y="631" on="1"/>
        <pt x="151" y="348" on="1"/>
        <pt x="342" y="348" on="1"/>
        <pt x="342" y="262" on="1"/>
        <pt x="23" y="262" on="1"/>
      </contour>
    </TTGlyph>
    <TTGlyph name="Zacute" xMin="36" yMin="0" xMax="508" yMax="822">
      <component glyphName="Z" x="0" y="0" flags="0x204"/>
      <component glyphName="uni0301.cap" x="282" y="0" flags="0x4"/>
    </TTGlyph>
    <TTGlyph name="Zacute.sc" xMin="36" yMin="0" xMax="447" yMax="713">
      <component glyphName="Z.sc" x="0" y="0" flags="0x204"/>
      <component glyphName="uni0301.cap" x="256" y="-109" flags="0x4"/>
    </TTGlyph>
    <TTGlyph name="Zcaron" xMin="36" yMin="0" xMax="508" yMax="822">
      <component glyphName="Z" x="0" y="0" flags="0x204"/>
      <component glyphName="uni030C.cap" x="282" y="0" flags="0x4"/>
    </TTGlyph>
    <TTGlyph name="Zcaron.sc" xMin="36" yMin="0" xMax="447" yMax="713">
      <component glyphName="Z.sc" x="0" y="0" flags="0x204"/>
      <component glyphName="uni030C.cap" x="256" y="-109" flags="0x4"/>
    </TTGlyph>
    <TTGlyph name="Zdotaccent" xMin="36" yMin="0" xMax="508" yMax="855">
      <component glyphName="Z" x="0" y="0" flags="0x204"/>
      <component glyphName="uni0307.cap" x="282" y="0" flags="0x4"/>
    </TTGlyph>
    <TTGlyph name="Zdotaccent.sc" xMin="36" yMin="0" xMax="447" yMax="746">
      <component glyphName="Z.sc" x="0" y="0" flags="0x204"/>
      <component glyphName="uni0307.cap" x="256" y="-109" flags="0x4"/>
    </TTGlyph>
    <TTGlyph name="a" xMin="47" yMin="-12" xMax="473" yMax="508">
      <contour>
        <pt x="47" y="138" on="1"/>
        <pt x="47" y="216" on="0"/>
        <pt x="179" y="304" on="0"/>
        <pt x="326" y="319" on="1"/>
        <pt x="324" y="352" on="0"/>
        <pt x="288" y="391" on="0"/>
        <pt x="248" y="391" on="1"/>
        <pt x="216" y="391" on="0"/>
        <pt x="152" y="367" on="0"/>
        <pt x="116" y="346" on="1"/>
        <pt x="64" y="443" on="1"/>
        <pt x="112" y="472" on="0"/>
        <pt x="217" y="508" on="0"/>
        <pt x="276" y="508" on="1"/>
        <pt x="372" y="508" on="0"/>
        <pt x="473" y="399" on="0"/>
        <pt x="473" y="284" on="1"/>
        <pt x="473" y="0" on="1"/>
        <pt x="353" y="0" on="1"/>
        <pt x="342" y="51" on="1"/>
        <pt x="339" y="51" on="1"/>
        <pt x="307" y="23" on="0"/>
        <pt x="236" y="-12" on="0"/>
        <pt x="194" y="-12" on="1"/>
        <pt x="160" y="-12" on="0"/>
        <pt x="106" y="11" on="0"/>
        <pt x="68" y="52" on="0"/>
        <pt x="47" y="106" on="0"/>
      </contour>
      <contour>
        <pt x="187" y="149" on="1"/>
        <pt x="187" y="125" on="0"/>
        <pt x="218" y="102" on="0"/>
        <pt x="244" y="102" on="1"/>
        <pt x="270" y="102" on="0"/>
        <pt x="306" y="124" on="0"/>
        <pt x="326" y="144" on="1"/>
        <pt x="326" y="231" on="1"/>
        <pt x="247" y="220" on="0"/>
        <pt x="187" y="178" on="0"/>
      </contour>
    </TTGlyph>
    <TTGlyph name="a.a" xMin="39" yMin="-12" xMax="508" yMax="508">
      <component glyphName="uni0251" x="0" y="0" flags="0x204"/>
    </TTGlyph>
    <TTGlyph name="a.supa" xMin="26" yMin="254" xMax="344" yMax="599">
      <contour>
        <pt x="132" y="432" on="1"/>
        <pt x="132" y="381" on="0"/>
        <pt x="163" y="336" on="0"/>
        <pt x="191" y="336" on="1"/>
        <pt x="205" y="336" on="0"/>
        <pt x="229" y="349" on="0"/>
        <pt x="240" y="365" on="1"/>
        <pt x="240" y="496" on="1"/>
        <pt x="226" y="508" on="0"/>
        <pt x="202" y="517" on="0"/>
        <pt x="190" y="517" on="1"/>
        <pt x="167" y="517" on="0"/>
        <pt x="132" y="475" on="0"/>
      </contour>
      <contour>
        <pt x="26" y="430" on="1"/>
        <pt x="26" y="469" on="0"/>
        <pt x="50" y="532" on="0"/>
        <pt x="90" y="576" on="0"/>
        <pt x="141" y="599" on="0"/>
        <pt x="167" y="599" on="1"/>
        <pt x="213" y="599" on="0"/>
        <pt x="251" y="558" on="1"/>
        <pt x="255" y="558" on="1"/>
        <pt x="264" y="590" on="1"/>
        <pt x="344" y="590" on="1"/>
        <pt x="344" y="262" on="1"/>
        <pt x="260" y="262" on="1"/>
        <pt x="253" y="293" on="1"/>
        <pt x="249" y="293" on="1"/>
        <pt x="232" y="276" on="0"/>
        <pt x="188" y="254" on="0"/>
        <pt x="163" y="254" on="1"/>
        <pt x="100" y="254" on="0"/>
        <pt x="26" y="346" on="0"/>
      </contour>
    </TTGlyph>
    <TTGlyph name="a.sups" xMin="29" yMin="254" xMax="320" yMax="599">
      <contour>
        <pt x="130" y="254" on="1"/>
        <pt x="83" y="254" on="0"/>
        <pt x="29" y="312" on="0"/>
        <pt x="29" y="354" on="1"/>
        <pt x="29" y="407" on="0"/>
        <pt x="117" y="464" on="0"/>
        <pt x="216" y="473" on="1"/>
        <pt x="214" y="495" on="0"/>
        <pt x="191" y="517" on="0"/>
        <pt x="167" y="517" on="1"/>
        <pt x="147" y="517" on="0"/>
        <pt x="101" y="501" on="0"/>
        <pt x="77" y="487" on="1"/>
        <pt x="40" y="555" on="1"/>
        <pt x="73" y="575" on="0"/>
        <pt x="146" y="599" on="0"/>
        <pt x="185" y="599" on="1"/>
        <pt x="249" y="599" on="0"/>
        <pt x="320" y="526" on="0"/>
        <pt x="320" y="451" on="1"/>
        <pt x="320" y="262" on="1"/>
        <pt x="237" y="262" on="1"/>
        <pt x="227" y="295" on="1"/>
        <pt x="223" y="295" on="1"/>
        <pt x="205" y="277" on="0"/>
        <pt x="159" y="254" on="0"/>
      </contour>
      <contour>
        <pt x="165" y="332" on="1"/>
        <pt x="180" y="332" on="0"/>
        <pt x="203" y="346" on="0"/>
        <pt x="216" y="358" on="1"/>
        <pt x="216" y="413" on="1"/>
        <pt x="166" y="408" on="0"/>
        <pt x="128" y="380" on="0"/>
        <pt x="128" y="362" on="1"/>
        <pt x="128" y="332" on="0"/>
      </contour>
    </TTGlyph>
    <TTGlyph name="aacute" xMin="47" yMin="-12" xMax="473" yMax="724">
      <component glyphName="a" x="0" y="0" flags="0x204"/>
      <component glyphName="uni0301" x="281" y="0" flags="0x4"/>
    </TTGlyph>
    <TTGlyph name="aacute.a" xMin="39" yMin="-12" xMax="508" yMax="724">
      <component glyphName="uni0251" x="0" y="0" flags="0x204"/>
      <component glyphName="uni0301" x="299" y="0" flags="0x4"/>
    </TTGlyph>
    <TTGlyph name="abreve" xMin="47" yMin="-12" xMax="473" yMax="713">
      <component glyphName="a" x="0" y="0" flags="0x204"/>
      <component glyphName="uni0306" x="281" y="0" flags="0x4"/>
    </TTGlyph>
    <TTGlyph name="abreve.a" xMin="39" yMin="-12" xMax="508" yMax="713">
      <component glyphName="uni0251" x="0" y="0" flags="0x204"/>
      <component glyphName="uni0306" x="299" y="0" flags="0x4"/>
    </TTGlyph>
    <TTGlyph name="acircumflex" xMin="47" yMin="-12" xMax="473" yMax="724">
      <component glyphName="a" x="0" y="0" flags="0x204"/>
      <component glyphName="uni0302" x="281" y="0" flags="0x4"/>
    </TTGlyph>
    <TTGlyph name="acircumflex.a" xMin="39" yMin="-12" xMax="508" yMax="724">
      <component glyphName="uni0251" x="0" y="0" flags="0x204"/>
      <component glyphName="uni0302" x="299" y="0" flags="0x4"/>
    </TTGlyph>
    <TTGlyph name="acute" xMin="196" yMin="574" xMax="427" yMax="724">
      <component glyphName="uni0301" x="278" y="0" flags="0x4"/>
    </TTGlyph>
    <TTGlyph name="adieresis" xMin="47" yMin="-12" xMax="473" yMax="710">
      <component glyphName="a" x="0" y="0" flags="0x204"/>
      <component glyphName="uni0308" x="281" y="0" flags="0x4"/>
    </TTGlyph>
    <TTGlyph name="adieresis.a" xMin="39" yMin="-12" xMax="508" yMax="710">
      <component glyphName="uni0251" x="0" y="0" flags="0x204"/>
      <component glyphName="uni0308" x="299" y="0" flags="0x4"/>
    </TTGlyph>
    <TTGlyph name="ae" xMin="47" yMin="-12" xMax="749" yMax="508">
      <contour>
        <pt x="187" y="149" on="1"/>
        <pt x="187" y="125" on="0"/>
        <pt x="218" y="102" on="0"/>
        <pt x="244" y="102" on="1"/>
        <pt x="270" y="102" on="0"/>
        <pt x="317" y="124" on="0"/>
        <pt x="337" y="144" on="1"/>
        <pt x="326" y="175" on="0"/>
        <pt x="323" y="210" on="1"/>
        <pt x="322" y="231" on="1"/>
        <pt x="249" y="220" on="0"/>
        <pt x="187" y="178" on="0"/>
      </contour>
      <contour>
        <pt x="64" y="443" on="1"/>
        <pt x="112" y="472" on="0"/>
        <pt x="213" y="508" on="0"/>
        <pt x="267" y="508" on="1"/>
        <pt x="313" y="508" on="0"/>
        <pt x="383" y="468" on="0"/>
        <pt x="405" y="433" on="1"/>
        <pt x="437" y="469" on="0"/>
        <pt x="507" y="508" on="0"/>
        <pt x="552" y="508" on="1"/>
        <pt x="601" y="508" on="0"/>
        <pt x="675" y="471" on="0"/>
        <pt x="724" y="406" on="0"/>
        <pt x="749" y="318" on="0"/>
        <pt x="749" y="267" on="1"/>
        <pt x="749" y="247" on="0"/>
        <pt x="745" y="214" on="0"/>
        <pt x="743" y="205" on="1"/>
        <pt x="457" y="205" on="1"/>
        <pt x="465" y="153" on="0"/>
        <pt x="531" y="103" on="0"/>
        <pt x="576" y="103" on="1"/>
        <pt x="604" y="103" on="0"/>
        <pt x="654" y="123" on="0"/>
        <pt x="681" y="139" on="1"/>
        <pt x="731" y="44" on="1"/>
        <pt x="693" y="18" on="0"/>
        <pt x="600" y="-12" on="0"/>
        <pt x="556" y="-12" on="1"/>
        <pt x="500" y="-12" on="0"/>
        <pt x="417" y="30" on="0"/>
        <pt x="385" y="65" on="1"/>
        <pt x="332" y="23" on="0"/>
        <pt x="244" y="-12" on="0"/>
        <pt x="194" y="-12" on="1"/>
        <pt x="160" y="-12" on="0"/>
        <pt x="106" y="11" on="0"/>
        <pt x="68" y="52" on="0"/>
        <pt x="47" y="106" on="0"/>
        <pt x="47" y="137" on="1"/>
        <pt x="47" y="216" on="0"/>
        <pt x="177" y="305" on="0"/>
        <pt x="323" y="320" on="1"/>
        <pt x="321" y="352" on="0"/>
        <pt x="288" y="391" on="0"/>
        <pt x="246" y="391" on="1"/>
        <pt x="216" y="391" on="0"/>
        <pt x="152" y="367" on="0"/>
        <pt x="116" y="346" on="1"/>
      </contour>
      <contour>
        <pt x="624" y="295" on="1"/>
        <pt x="624" y="340" on="0"/>
        <pt x="588" y="396" on="0"/>
        <pt x="547" y="396" on="1"/>
        <pt x="512" y="396" on="0"/>
        <pt x="463" y="347" on="0"/>
        <pt x="457" y="295" on="1"/>
      </contour>
    </TTGlyph>
    <TTGlyph name="agrave" xMin="47" yMin="-12" xMax="473" yMax="724">
      <component glyphName="a" x="0" y="0" flags="0x204"/>
      <component glyphName="uni0300" x="281" y="0" flags="0x4"/>
    </TTGlyph>
    <TTGlyph name="agrave.a" xMin="39" yMin="-12" xMax="508" yMax="724">
      <component glyphName="uni0251" x="0" y="0" flags="0x204"/>
      <component glyphName="uni0300" x="299" y="0" flags="0x4"/>
    </TTGlyph>
    <TTGlyph name="amacron" xMin="47" yMin="-12" xMax="473" yMax="685">
      <component glyphName="a" x="0" y="0" flags="0x204"/>
      <component glyphName="uni0304" x="281" y="0" flags="0x4"/>
    </TTGlyph>
    <TTGlyph name="amacron.a" xMin="39" yMin="-12" xMax="508" yMax="685">
      <component glyphName="uni0251" x="0" y="0" flags="0x204"/>
      <component glyphName="uni0304" x="299" y="0" flags="0x4"/>
    </TTGlyph>
    <TTGlyph name="ampersand" xMin="25" yMin="-12" xMax="649" yMax="664">
      <contour>
        <pt x="164" y="183" on="1"/>
        <pt x="164" y="146" on="0"/>
        <pt x="217" y="100" on="0"/>
        <pt x="261" y="100" on="1"/>
        <pt x="301" y="100" on="0"/>
        <pt x="344" y="126" on="1"/>
        <pt x="306" y="157" on="0"/>
        <pt x="237" y="225" on="0"/>
        <pt x="208" y="261" on="1"/>
        <pt x="188" y="244" on="0"/>
        <pt x="164" y="206" on="0"/>
      </contour>
      <contour>
        <pt x="225" y="494" on="1"/>
        <pt x="225" y="476" on="0"/>
        <pt x="236" y="436" on="0"/>
        <pt x="246" y="416" on="1"/>
        <pt x="281" y="437" on="0"/>
        <pt x="329" y="483" on="0"/>
        <pt x="329" y="516" on="1"/>
        <pt x="329" y="539" on="0"/>
        <pt x="307" y="567" on="0"/>
        <pt x="284" y="567" on="1"/>
        <pt x="259" y="567" on="0"/>
        <pt x="225" y="528" on="0"/>
      </contour>
      <contour>
        <pt x="614" y="-12" on="1"/>
        <pt x="573" y="-4" on="0"/>
        <pt x="489" y="30" on="0"/>
        <pt x="447" y="54" on="1"/>
        <pt x="405" y="23" on="0"/>
        <pt x="304" y="-12" on="0"/>
        <pt x="242" y="-12" on="1"/>
        <pt x="189" y="-12" on="0"/>
        <pt x="108" y="18" on="0"/>
        <pt x="53" y="69" on="0"/>
        <pt x="25" y="136" on="0"/>
        <pt x="25" y="174" on="1"/>
        <pt x="25" y="208" on="0"/>
        <pt x="44" y="263" on="0"/>
        <pt x="77" y="307" on="0"/>
        <pt x="120" y="343" on="0"/>
        <pt x="144" y="358" on="1"/>
        <pt x="125" y="393" on="0"/>
        <pt x="104" y="462" on="0"/>
        <pt x="104" y="493" on="1"/>
        <pt x="104" y="528" on="0"/>
        <pt x="129" y="590" on="0"/>
        <pt x="175" y="637" on="0"/>
        <pt x="240" y="664" on="0"/>
        <pt x="281" y="664" on="1"/>
        <pt x="355" y="664" on="0"/>
        <pt x="441" y="584" on="0"/>
        <pt x="441" y="516" on="1"/>
        <pt x="441" y="484" on="0"/>
        <pt x="418" y="431" on="0"/>
        <pt x="379" y="386" on="0"/>
        <pt x="330" y="348" on="0"/>
        <pt x="305" y="331" on="1"/>
        <pt x="333" y="299" on="0"/>
        <pt x="400" y="238" on="0"/>
        <pt x="436" y="212" on="1"/>
        <pt x="461" y="244" on="0"/>
        <pt x="499" y="322" on="0"/>
        <pt x="511" y="368" on="1"/>
        <pt x="645" y="368" on="1"/>
        <pt x="627" y="308" on="0"/>
        <pt x="574" y="199" on="0"/>
        <pt x="536" y="148" on="1"/>
        <pt x="567" y="132" on="0"/>
        <pt x="624" y="111" on="0"/>
        <pt x="649" y="107" on="1"/>
      </contour>
    </TTGlyph>
    <TTGlyph name="ampersand.sc" xMin="25" yMin="-12" xMax="577" yMax="540">
      <contour>
        <pt x="156" y="151" on="1"/>
        <pt x="156" y="124" on="0"/>
        <pt x="198" y="93" on="0"/>
        <pt x="231" y="93" on="1"/>
        <pt x="260" y="93" on="0"/>
        <pt x="294" y="109" on="1"/>
        <pt x="264" y="132" on="0"/>
        <pt x="209" y="181" on="0"/>
        <pt x="186" y="207" on="1"/>
        <pt x="172" y="194" on="0"/>
        <pt x="156" y="167" on="0"/>
      </contour>
      <contour>
        <pt x="203" y="394" on="1"/>
        <pt x="203" y="367" on="0"/>
        <pt x="223" y="333" on="1"/>
        <pt x="252" y="349" on="0"/>
        <pt x="291" y="383" on="0"/>
        <pt x="291" y="409" on="1"/>
        <pt x="291" y="427" on="0"/>
        <pt x="271" y="448" on="0"/>
        <pt x="252" y="448" on="1"/>
        <pt x="233" y="448" on="0"/>
        <pt x="203" y="419" on="0"/>
      </contour>
      <contour>
        <pt x="544" y="-12" on="1"/>
        <pt x="508" y="-6" on="0"/>
        <pt x="434" y="24" on="0"/>
        <pt x="396" y="44" on="1"/>
        <pt x="361" y="18" on="0"/>
        <pt x="272" y="-12" on="0"/>
        <pt x="216" y="-12" on="1"/>
        <pt x="168" y="-12" on="0"/>
        <pt x="96" y="14" on="0"/>
        <pt x="49" y="58" on="0"/>
        <pt x="25" y="113" on="0"/>
        <pt x="25" y="143" on="1"/>
        <pt x="25" y="170" on="0"/>
        <pt x="41" y="213" on="0"/>
        <pt x="69" y="247" on="0"/>
        <pt x="106" y="274" on="0"/>
        <pt x="127" y="286" on="1"/>
        <pt x="90" y="345" on="0"/>
        <pt x="90" y="395" on="1"/>
        <pt x="90" y="424" on="0"/>
        <pt x="112" y="476" on="0"/>
        <pt x="154" y="516" on="0"/>
        <pt x="213" y="540" on="0"/>
        <pt x="250" y="540" on="1"/>
        <pt x="316" y="540" on="0"/>
        <pt x="396" y="470" on="0"/>
        <pt x="396" y="411" on="1"/>
        <pt x="396" y="386" on="0"/>
        <pt x="376" y="345" on="0"/>
        <pt x="343" y="311" on="0"/>
        <pt x="300" y="281" on="0"/>
        <pt x="278" y="268" on="1"/>
        <pt x="301" y="246" on="0"/>
        <pt x="355" y="204" on="0"/>
        <pt x="384" y="186" on="1"/>
        <pt x="404" y="211" on="0"/>
        <pt x="434" y="270" on="0"/>
        <pt x="444" y="304" on="1"/>
        <pt x="576" y="304" on="1"/>
        <pt x="545" y="212" on="0"/>
        <pt x="483" y="132" on="1"/>
        <pt x="533" y="110" on="0"/>
        <pt x="577" y="102" on="1"/>
      </contour>
    </TTGlyph>
    <TTGlyph name="aogonek" xMin="47" yMin="-210" xMax="493" yMax="508">
      <contour>
        <pt x="187" y="149" on="1"/>
        <pt x="187" y="125" on="0"/>
        <pt x="218" y="102" on="0"/>
        <pt x="244" y="102" on="1"/>
        <pt x="270" y="102" on="0"/>
        <pt x="306" y="124" on="0"/>
        <pt x="326" y="144" on="1"/>
        <pt x="326" y="231" on="1"/>
        <pt x="247" y="220" on="0"/>
        <pt x="187" y="178" on="0"/>
      </contour>
      <contour>
        <pt x="47" y="137" on="1"/>
        <pt x="47" y="216" on="0"/>
        <pt x="179" y="304" on="0"/>
        <pt x="326" y="319" on="1"/>
        <pt x="324" y="352" on="0"/>
        <pt x="288" y="391" on="0"/>
        <pt x="248" y="391" on="1"/>
        <pt x="216" y="391" on="0"/>
        <pt x="152" y="367" on="0"/>
        <pt x="116" y="346" on="1"/>
        <pt x="64" y="443" on="1"/>
        <pt x="112" y="472" on="0"/>
        <pt x="217" y="508" on="0"/>
        <pt x="276" y="508" on="1"/>
        <pt x="372" y="508" on="0"/>
        <pt x="473" y="399" on="0"/>
        <pt x="473" y="284" on="1"/>
        <pt x="473" y="0" on="1"/>
        <pt x="424" y="-14" on="0"/>
        <pt x="385" y="-62" on="0"/>
        <pt x="385" y="-85" on="1"/>
        <pt x="385" y="-105" on="0"/>
        <pt x="411" y="-123" on="0"/>
        <pt x="427" y="-123" on="1"/>
        <pt x="437" y="-123" on="0"/>
        <pt x="456" y="-116" on="0"/>
        <pt x="463" y="-111" on="1"/>
        <pt x="493" y="-177" on="1"/>
        <pt x="474" y="-192" on="0"/>
        <pt x="416" y="-210" on="0"/>
        <pt x="392" y="-210" on="1"/>
        <pt x="347" y="-210" on="0"/>
        <pt x="286" y="-164" on="0"/>
        <pt x="286" y="-119" on="1"/>
        <pt x="286" y="-97" on="0"/>
        <pt x="300" y="-60" on="0"/>
        <pt x="321" y="-30" on="0"/>
        <pt x="345" y="-8" on="0"/>
        <pt x="355" y="-2" on="1"/>
        <pt x="342" y="51" on="1"/>
        <pt x="339" y="51" on="1"/>
        <pt x="307" y="23" on="0"/>
        <pt x="236" y="-12" on="0"/>
        <pt x="194" y="-12" on="1"/>
        <pt x="160" y="-12" on="0"/>
        <pt x="106" y="11" on="0"/>
        <pt x="68" y="52" on="0"/>
        <pt x="47" y="106" on="0"/>
      </contour>
    </TTGlyph>
    <TTGlyph name="aogonek.a" xMin="39" yMin="-210" xMax="529" yMax="508">
      <contour>
        <pt x="190" y="250" on="1"/>
        <pt x="190" y="176" on="0"/>
        <pt x="237" y="108" on="0"/>
        <pt x="280" y="108" on="1"/>
        <pt x="304" y="108" on="0"/>
        <pt x="343" y="128" on="0"/>
        <pt x="361" y="153" on="1"/>
        <pt x="361" y="356" on="1"/>
        <pt x="341" y="374" on="0"/>
        <pt x="299" y="388" on="0"/>
        <pt x="279" y="388" on="1"/>
        <pt x="244" y="388" on="0"/>
        <pt x="190" y="321" on="0"/>
      </contour>
      <contour>
        <pt x="39" y="248" on="1"/>
        <pt x="39" y="309" on="0"/>
        <pt x="75" y="405" on="0"/>
        <pt x="134" y="472" on="0"/>
        <pt x="209" y="508" on="0"/>
        <pt x="248" y="508" on="1"/>
        <pt x="286" y="508" on="0"/>
        <pt x="348" y="479" on="0"/>
        <pt x="377" y="447" on="1"/>
        <pt x="381" y="447" on="1"/>
        <pt x="393" y="496" on="1"/>
        <pt x="508" y="496" on="1"/>
        <pt x="508" y="0" on="1"/>
        <pt x="459" y="-15" on="0"/>
        <pt x="421" y="-62" on="0"/>
        <pt x="421" y="-85" on="1"/>
        <pt x="421" y="-105" on="0"/>
        <pt x="446" y="-123" on="0"/>
        <pt x="462" y="-123" on="1"/>
        <pt x="472" y="-123" on="0"/>
        <pt x="491" y="-116" on="0"/>
        <pt x="498" y="-111" on="1"/>
        <pt x="529" y="-177" on="1"/>
        <pt x="509" y="-192" on="0"/>
        <pt x="451" y="-210" on="0"/>
        <pt x="427" y="-210" on="1"/>
        <pt x="383" y="-210" on="0"/>
        <pt x="321" y="-164" on="0"/>
        <pt x="321" y="-119" on="1"/>
        <pt x="321" y="-97" on="0"/>
        <pt x="335" y="-60" on="0"/>
        <pt x="356" y="-30" on="0"/>
        <pt x="380" y="-9" on="0"/>
        <pt x="390" y="-2" on="1"/>
        <pt x="378" y="49" on="1"/>
        <pt x="374" y="49" on="1"/>
        <pt x="348" y="23" on="0"/>
        <pt x="278" y="-12" on="0"/>
        <pt x="242" y="-12" on="1"/>
        <pt x="196" y="-12" on="0"/>
        <pt x="121" y="24" on="0"/>
        <pt x="68" y="91" on="0"/>
        <pt x="39" y="187" on="0"/>
      </contour>
    </TTGlyph>
    <TTGlyph name="approxequal" xMin="29" yMin="125" xMax="499" yMax="536">
      <component glyphName="asciitilde" x="0" y="116" flags="0x204"/>
      <component glyphName="asciitilde" x="0" y="-115" flags="0x4"/>
    </TTGlyph>
    <TTGlyph name="aring" xMin="47" yMin="-12" xMax="473" yMax="752">
      <component glyphName="a" x="0" y="0" flags="0x204"/>
      <component glyphName="uni030A" x="281" y="0" flags="0x4"/>
    </TTGlyph>
    <TTGlyph name="aring.a" xMin="39" yMin="-12" xMax="508" yMax="752">
      <component glyphName="uni0251" x="0" y="0" flags="0x204"/>
      <component glyphName="uni030A" x="299" y="0" flags="0x4"/>
    </TTGlyph>
    <TTGlyph name="arrowdown" xMin="39" yMin="-26" xMax="578" yMax="529">
      <contour>
        <pt x="306" y="-26" on="1"/>
        <pt x="39" y="252" on="1"/>
        <pt x="118" y="322" on="1"/>
        <pt x="250" y="172" on="1"/>
        <pt x="250" y="529" on="1"/>
        <pt x="367" y="529" on="1"/>
        <pt x="367" y="172" on="1"/>
        <pt x="498" y="322" on="1"/>
        <pt x="578" y="252" on="1"/>
        <pt x="310" y="-26" on="1"/>
      </contour>
    </TTGlyph>
    <TTGlyph name="arrowup" xMin="39" yMin="-26" xMax="578" yMax="529">
      <contour>
        <pt x="310" y="529" on="1"/>
        <pt x="578" y="251" on="1"/>
        <pt x="498" y="182" on="1"/>
        <pt x="367" y="332" on="1"/>
        <pt x="367" y="-26" on="1"/>
        <pt x="250" y="-26" on="1"/>
        <pt x="250" y="332" on="1"/>
        <pt x="118" y="182" on="1"/>
        <pt x="39" y="251" on="1"/>
        <pt x="306" y="529" on="1"/>
      </contour>
    </TTGlyph>
    <TTGlyph name="asciicircum" xMin="50" yMin="274" xMax="478" yMax="670">
      <contour>
        <pt x="205" y="670" on="1"/>
        <pt x="323" y="670" on="1"/>
        <pt x="478" y="274" on="1"/>
        <pt x="357" y="274" on="1"/>
        <pt x="311" y="402" on="1"/>
        <pt x="266" y="537" on="1"/>
        <pt x="262" y="537" on="1"/>
        <pt x="217" y="402" on="1"/>
        <pt x="171" y="274" on="1"/>
        <pt x="50" y="274" on="1"/>
      </contour>
    </TTGlyph>
    <TTGlyph name="asciitilde" xMin="29" yMin="240" xMax="499" yMax="420">
      <contour>
        <pt x="29" y="317" on="1"/>
        <pt x="66" y="374" on="0"/>
        <pt x="141" y="420" on="0"/>
        <pt x="179" y="420" on="1"/>
        <pt x="210" y="420" on="0"/>
        <pt x="256" y="396" on="0"/>
        <pt x="295" y="368" on="0"/>
        <pt x="330" y="344" on="0"/>
        <pt x="351" y="344" on="1"/>
        <pt x="372" y="344" on="0"/>
        <pt x="407" y="374" on="0"/>
        <pt x="423" y="402" on="1"/>
        <pt x="499" y="343" on="1"/>
        <pt x="462" y="286" on="0"/>
        <pt x="387" y="240" on="0"/>
        <pt x="349" y="240" on="1"/>
        <pt x="318" y="240" on="0"/>
        <pt x="272" y="264" on="0"/>
        <pt x="233" y="292" on="0"/>
        <pt x="198" y="316" on="0"/>
        <pt x="177" y="316" on="1"/>
        <pt x="157" y="316" on="0"/>
        <pt x="121" y="286" on="0"/>
        <pt x="105" y="258" on="1"/>
      </contour>
    </TTGlyph>
    <TTGlyph name="asterisk" xMin="38" yMin="349" xMax="419" yMax="712">
      <contour>
        <pt x="87" y="393" on="1"/>
        <pt x="146" y="497" on="1"/>
        <pt x="38" y="546" on="1"/>
        <pt x="61" y="618" on="1"/>
        <pt x="177" y="594" on="1"/>
        <pt x="190" y="712" on="1"/>
        <pt x="267" y="712" on="1"/>
        <pt x="280" y="593" on="1"/>
        <pt x="395" y="618" on="1"/>
        <pt x="419" y="546" on="1"/>
        <pt x="311" y="497" on="1"/>
        <pt x="370" y="393" on="1"/>
        <pt x="309" y="349" on="1"/>
        <pt x="229" y="438" on="1"/>
        <pt x="148" y="349" on="1"/>
      </contour>
    </TTGlyph>
    <TTGlyph name="at" xMin="49" yMin="-172" xMax="854" yMax="669">
      <contour>
        <pt x="49" y="205" on="1"/>
        <pt x="49" y="310" on="0"/>
        <pt x="121" y="481" on="0"/>
        <pt x="244" y="603" on="0"/>
        <pt x="408" y="669" on="0"/>
        <pt x="500" y="669" on="1"/>
        <pt x="581" y="669" on="0"/>
        <pt x="712" y="617" on="0"/>
        <pt x="804" y="522" on="0"/>
        <pt x="854" y="391" on="0"/>
        <pt x="854" y="313" on="1"/>
        <pt x="854" y="244" on="0"/>
        <pt x="812" y="141" on="0"/>
        <pt x="746" y="72" on="0"/>
        <pt x="665" y="38" on="0"/>
        <pt x="626" y="38" on="1"/>
        <pt x="583" y="38" on="0"/>
        <pt x="519" y="78" on="0"/>
        <pt x="511" y="114" on="1"/>
        <pt x="509" y="114" on="1"/>
        <pt x="488" y="85" on="0"/>
        <pt x="420" y="48" on="0"/>
        <pt x="389" y="48" on="1"/>
        <pt x="329" y="48" on="0"/>
        <pt x="257" y="129" on="0"/>
        <pt x="257" y="198" on="1"/>
        <pt x="257" y="244" on="0"/>
        <pt x="288" y="332" on="0"/>
        <pt x="342" y="401" on="0"/>
        <pt x="416" y="443" on="0"/>
        <pt x="459" y="443" on="1"/>
        <pt x="484" y="443" on="0"/>
        <pt x="522" y="420" on="0"/>
        <pt x="535" y="393" on="1"/>
        <pt x="537" y="393" on="1"/>
        <pt x="551" y="435" on="1"/>
        <pt x="642" y="435" on="1"/>
        <pt x="596" y="215" on="1"/>
        <pt x="575" y="129" on="0"/>
        <pt x="642" y="129" on="1"/>
        <pt x="664" y="129" on="0"/>
        <pt x="707" y="154" on="0"/>
        <pt x="741" y="201" on="0"/>
        <pt x="761" y="268" on="0"/>
        <pt x="761" y="309" on="1"/>
        <pt x="761" y="363" on="0"/>
        <pt x="731" y="461" on="0"/>
        <pt x="665" y="536" on="0"/>
        <pt x="561" y="580" on="0"/>
        <pt x="488" y="580" on="1"/>
        <pt x="424" y="580" on="0"/>
        <pt x="302" y="527" on="0"/>
        <pt x="206" y="430" on="0"/>
        <pt x="148" y="293" on="0"/>
        <pt x="148" y="209" on="1"/>
        <pt x="148" y="135" on="0"/>
        <pt x="195" y="25" on="0"/>
        <pt x="276" y="-47" on="0"/>
        <pt x="381" y="-83" on="0"/>
        <pt x="440" y="-83" on="1"/>
        <pt x="479" y="-83" on="0"/>
        <pt x="560" y="-61" on="0"/>
        <pt x="592" y="-44" on="1"/>
        <pt x="624" y="-124" on="1"/>
        <pt x="578" y="-149" on="0"/>
        <pt x="482" y="-172" on="0"/>
        <pt x="428" y="-172" on="1"/>
        <pt x="353" y="-172" on="0"/>
        <pt x="216" y="-126" on="0"/>
        <pt x="111" y="-32" on="0"/>
        <pt x="49" y="109" on="0"/>
      </contour>
      <contour>
        <pt x="368" y="207" on="1"/>
        <pt x="368" y="140" on="0"/>
        <pt x="420" y="140" on="1"/>
        <pt x="436" y="140" on="0"/>
        <pt x="467" y="160" on="0"/>
        <pt x="486" y="185" on="1"/>
        <pt x="510" y="320" on="1"/>
        <pt x="495" y="349" on="0"/>
        <pt x="464" y="349" on="1"/>
        <pt x="441" y="349" on="0"/>
        <pt x="406" y="321" on="0"/>
        <pt x="381" y="279" on="0"/>
        <pt x="368" y="229" on="0"/>
      </contour>
    </TTGlyph>
    <TTGlyph name="at.case" xMin="49" yMin="-34" xMax="781" yMax="701">
      <contour>
        <pt x="49" y="293" on="1"/>
        <pt x="49" y="386" on="0"/>
        <pt x="113" y="537" on="0"/>
        <pt x="224" y="644" on="0"/>
        <pt x="372" y="701" on="0"/>
        <pt x="456" y="701" on="1"/>
        <pt x="530" y="701" on="0"/>
        <pt x="650" y="656" on="0"/>
        <pt x="735" y="576" on="0"/>
        <pt x="781" y="464" on="0"/>
        <pt x="781" y="398" on="1"/>
        <pt x="781" y="335" on="0"/>
        <pt x="747" y="238" on="0"/>
        <pt x="689" y="172" on="0"/>
        <pt x="614" y="138" on="0"/>
        <pt x="573" y="138" on="1"/>
        <pt x="531" y="138" on="0"/>
        <pt x="479" y="181" on="0"/>
        <pt x="471" y="216" on="1"/>
        <pt x="469" y="216" on="1"/>
        <pt x="449" y="186" on="0"/>
        <pt x="381" y="149" on="0"/>
        <pt x="349" y="149" on="1"/>
        <pt x="299" y="149" on="0"/>
        <pt x="235" y="224" on="0"/>
        <pt x="235" y="284" on="1"/>
        <pt x="235" y="328" on="0"/>
        <pt x="263" y="409" on="0"/>
        <pt x="313" y="472" on="0"/>
        <pt x="381" y="510" on="0"/>
        <pt x="420" y="510" on="1"/>
        <pt x="444" y="510" on="0"/>
        <pt x="481" y="487" on="0"/>
        <pt x="493" y="460" on="1"/>
        <pt x="495" y="460" on="1"/>
        <pt x="511" y="502" on="1"/>
        <pt x="601" y="502" on="1"/>
        <pt x="555" y="308" on="1"/>
        <pt x="537" y="228" on="0"/>
        <pt x="587" y="228" on="1"/>
        <pt x="604" y="228" on="0"/>
        <pt x="640" y="249" on="0"/>
        <pt x="669" y="290" on="0"/>
        <pt x="688" y="351" on="0"/>
        <pt x="688" y="392" on="1"/>
        <pt x="688" y="437" on="0"/>
        <pt x="661" y="519" on="0"/>
        <pt x="603" y="581" on="0"/>
        <pt x="511" y="617" on="0"/>
        <pt x="445" y="617" on="1"/>
        <pt x="388" y="617" on="0"/>
        <pt x="280" y="572" on="0"/>
        <pt x="196" y="488" on="0"/>
        <pt x="145" y="370" on="0"/>
        <pt x="145" y="297" on="1"/>
        <pt x="145" y="230" on="0"/>
        <pt x="187" y="136" on="0"/>
        <pt x="257" y="77" on="0"/>
        <pt x="346" y="50" on="0"/>
        <pt x="393" y="50" on="1"/>
        <pt x="424" y="50" on="0"/>
        <pt x="492" y="64" on="0"/>
        <pt x="518" y="78" on="1"/>
        <pt x="552" y="3" on="1"/>
        <pt x="510" y="-17" on="0"/>
        <pt x="429" y="-34" on="0"/>
        <pt x="381" y="-34" on="1"/>
        <pt x="318" y="-34" on="0"/>
        <pt x="198" y="3" on="0"/>
        <pt x="105" y="83" on="0"/>
        <pt x="49" y="207" on="0"/>
      </contour>
      <contour>
        <pt x="383" y="239" on="1"/>
        <pt x="409" y="239" on="0"/>
        <pt x="444" y="281" on="1"/>
        <pt x="466" y="392" on="1"/>
        <pt x="458" y="406" on="0"/>
        <pt x="440" y="419" on="0"/>
        <pt x="424" y="419" on="1"/>
        <pt x="406" y="419" on="0"/>
        <pt x="377" y="394" on="0"/>
        <pt x="357" y="356" on="0"/>
        <pt x="346" y="311" on="0"/>
        <pt x="346" y="292" on="1"/>
        <pt x="346" y="239" on="0"/>
      </contour>
    </TTGlyph>
    <TTGlyph name="atilde" xMin="47" yMin="-12" xMax="473" yMax="710">
      <component glyphName="a" x="0" y="0" flags="0x204"/>
      <component glyphName="uni0303" x="281" y="0" flags="0x4"/>
    </TTGlyph>
    <TTGlyph name="atilde.a" xMin="39" yMin="-12" xMax="508" yMax="710">
      <component glyphName="uni0251" x="0" y="0" flags="0x204"/>
      <component glyphName="uni0303" x="299" y="0" flags="0x4"/>
    </TTGlyph>
    <TTGlyph name="b" xMin="65" yMin="-12" xMax="534" yMax="701">
      <contour>
        <pt x="65" y="701" on="1"/>
        <pt x="212" y="701" on="1"/>
        <pt x="212" y="529" on="1"/>
        <pt x="208" y="453" on="1"/>
        <pt x="237" y="479" on="0"/>
        <pt x="304" y="508" on="0"/>
        <pt x="339" y="508" on="1"/>
        <pt x="384" y="508" on="0"/>
        <pt x="456" y="472" on="0"/>
        <pt x="507" y="407" on="0"/>
        <pt x="534" y="314" on="0"/>
        <pt x="534" y="257" on="1"/>
        <pt x="534" y="193" on="0"/>
        <pt x="499" y="93" on="0"/>
        <pt x="440" y="24" on="0"/>
        <pt x="365" y="-12" on="0"/>
        <pt x="325" y="-12" on="1"/>
        <pt x="292" y="-12" on="0"/>
        <pt x="225" y="20" on="0"/>
        <pt x="196" y="52" on="1"/>
        <pt x="192" y="52" on="1"/>
        <pt x="180" y="0" on="1"/>
        <pt x="65" y="0" on="1"/>
      </contour>
      <contour>
        <pt x="212" y="140" on="1"/>
        <pt x="232" y="122" on="0"/>
        <pt x="272" y="108" on="0"/>
        <pt x="291" y="108" on="1"/>
        <pt x="329" y="108" on="0"/>
        <pt x="383" y="177" on="0"/>
        <pt x="383" y="254" on="1"/>
        <pt x="383" y="388" on="0"/>
        <pt x="297" y="388" on="1"/>
        <pt x="253" y="388" on="0"/>
        <pt x="212" y="343" on="1"/>
      </contour>
    </TTGlyph>
    <TTGlyph name="b.sups" xMin="42" yMin="254" xMax="359" yMax="724">
      <contour>
        <pt x="42" y="724" on="1"/>
        <pt x="146" y="724" on="1"/>
        <pt x="146" y="612" on="1"/>
        <pt x="142" y="562" on="1"/>
        <pt x="161" y="579" on="0"/>
        <pt x="206" y="599" on="0"/>
        <pt x="229" y="599" on="1"/>
        <pt x="289" y="599" on="0"/>
        <pt x="359" y="507" on="0"/>
        <pt x="359" y="432" on="1"/>
        <pt x="359" y="389" on="0"/>
        <pt x="336" y="323" on="0"/>
        <pt x="297" y="278" on="0"/>
        <pt x="248" y="254" on="0"/>
        <pt x="221" y="254" on="1"/>
        <pt x="198" y="254" on="0"/>
        <pt x="152" y="275" on="0"/>
        <pt x="134" y="297" on="1"/>
        <pt x="130" y="297" on="1"/>
        <pt x="122" y="262" on="1"/>
        <pt x="42" y="262" on="1"/>
      </contour>
      <contour>
        <pt x="146" y="355" on="1"/>
        <pt x="159" y="344" on="0"/>
        <pt x="184" y="336" on="0"/>
        <pt x="196" y="336" on="1"/>
        <pt x="219" y="336" on="0"/>
        <pt x="253" y="380" on="0"/>
        <pt x="253" y="431" on="1"/>
        <pt x="253" y="475" on="0"/>
        <pt x="226" y="515" on="0"/>
        <pt x="199" y="515" on="1"/>
        <pt x="172" y="515" on="0"/>
        <pt x="146" y="488" on="1"/>
      </contour>
    </TTGlyph>
    <TTGlyph name="backslash" xMin="28" yMin="-160" xMax="326" yMax="710">
      <contour>
        <pt x="28" y="710" on="1"/>
        <pt x="124" y="710" on="1"/>
        <pt x="326" y="-160" on="1"/>
        <pt x="230" y="-160" on="1"/>
      </contour>
    </TTGlyph>
    <TTGlyph name="bar" xMin="86" yMin="-250" xMax="182" yMax="750">
      <contour>
        <pt x="86" y="750" on="1"/>
        <pt x="182" y="750" on="1"/>
        <pt x="182" y="-250" on="1"/>
        <pt x="86" y="-250" on="1"/>
      </contour>
    </TTGlyph>
    <TTGlyph name="braceleft" xMin="31" yMin="-152" xMax="298" yMax="708">
      <contour>
        <pt x="298" y="-74" on="1"/>
        <pt x="298" y="-152" on="1"/>
        <pt x="235" y="-152" on="1"/>
        <pt x="169" y="-152" on="0"/>
        <pt x="107" y="-91" on="0"/>
        <pt x="107" y="-10" on="1"/>
        <pt x="107" y="17" on="0"/>
        <pt x="110" y="59" on="0"/>
        <pt x="114" y="98" on="0"/>
        <pt x="117" y="137" on="0"/>
        <pt x="117" y="161" on="1"/>
        <pt x="117" y="174" on="0"/>
        <pt x="108" y="200" on="0"/>
        <pt x="88" y="221" on="0"/>
        <pt x="55" y="234" on="0"/>
        <pt x="31" y="235" on="1"/>
        <pt x="31" y="321" on="1"/>
        <pt x="55" y="322" on="0"/>
        <pt x="88" y="335" on="0"/>
        <pt x="108" y="356" on="0"/>
        <pt x="117" y="382" on="0"/>
        <pt x="117" y="395" on="1"/>
        <pt x="117" y="419" on="0"/>
        <pt x="114" y="458" on="0"/>
        <pt x="110" y="497" on="0"/>
        <pt x="107" y="539" on="0"/>
        <pt x="107" y="566" on="1"/>
        <pt x="107" y="647" on="0"/>
        <pt x="169" y="708" on="0"/>
        <pt x="235" y="708" on="1"/>
        <pt x="298" y="708" on="1"/>
        <pt x="298" y="630" on="1"/>
        <pt x="279" y="630" on="1"/>
        <pt x="248" y="630" on="0"/>
        <pt x="226" y="601" on="0"/>
        <pt x="226" y="560" on="1"/>
        <pt x="226" y="519" on="0"/>
        <pt x="230" y="443" on="0"/>
        <pt x="230" y="397" on="1"/>
        <pt x="230" y="340" on="0"/>
        <pt x="194" y="289" on="0"/>
        <pt x="156" y="280" on="1"/>
        <pt x="156" y="276" on="1"/>
        <pt x="194" y="267" on="0"/>
        <pt x="230" y="216" on="0"/>
        <pt x="230" y="159" on="1"/>
        <pt x="230" y="113" on="0"/>
        <pt x="226" y="37" on="0"/>
        <pt x="226" y="-4" on="1"/>
        <pt x="226" y="-45" on="0"/>
        <pt x="248" y="-74" on="0"/>
        <pt x="279" y="-74" on="1"/>
      </contour>
    </TTGlyph>
    <TTGlyph name="braceright" xMin="46" yMin="-152" xMax="313" yMax="708">
      <contour>
        <pt x="65" y="-74" on="1"/>
        <pt x="96" y="-74" on="0"/>
        <pt x="118" y="-45" on="0"/>
        <pt x="118" y="-4" on="1"/>
        <pt x="118" y="37" on="0"/>
        <pt x="114" y="113" on="0"/>
        <pt x="114" y="159" on="1"/>
        <pt x="114" y="216" on="0"/>
        <pt x="150" y="267" on="0"/>
        <pt x="188" y="276" on="1"/>
        <pt x="188" y="280" on="1"/>
        <pt x="150" y="289" on="0"/>
        <pt x="114" y="340" on="0"/>
        <pt x="114" y="397" on="1"/>
        <pt x="114" y="443" on="0"/>
        <pt x="118" y="519" on="0"/>
        <pt x="118" y="560" on="1"/>
        <pt x="118" y="601" on="0"/>
        <pt x="96" y="630" on="0"/>
        <pt x="65" y="630" on="1"/>
        <pt x="46" y="630" on="1"/>
        <pt x="46" y="708" on="1"/>
        <pt x="109" y="708" on="1"/>
        <pt x="175" y="708" on="0"/>
        <pt x="237" y="647" on="0"/>
        <pt x="237" y="566" on="1"/>
        <pt x="237" y="539" on="0"/>
        <pt x="234" y="497" on="0"/>
        <pt x="230" y="458" on="0"/>
        <pt x="227" y="419" on="0"/>
        <pt x="227" y="395" on="1"/>
        <pt x="227" y="382" on="0"/>
        <pt x="236" y="356" on="0"/>
        <pt x="256" y="335" on="0"/>
        <pt x="289" y="322" on="0"/>
        <pt x="313" y="321" on="1"/>
        <pt x="313" y="235" on="1"/>
        <pt x="289" y="234" on="0"/>
        <pt x="256" y="221" on="0"/>
        <pt x="236" y="200" on="0"/>
        <pt x="227" y="174" on="0"/>
        <pt x="227" y="161" on="1"/>
        <pt x="227" y="137" on="0"/>
        <pt x="230" y="98" on="0"/>
        <pt x="234" y="59" on="0"/>
        <pt x="237" y="17" on="0"/>
        <pt x="237" y="-10" on="1"/>
        <pt x="237" y="-91" on="0"/>
        <pt x="175" y="-152" on="0"/>
        <pt x="109" y="-152" on="1"/>
        <pt x="46" y="-152" on="1"/>
        <pt x="46" y="-74" on="1"/>
      </contour>
    </TTGlyph>
    <TTGlyph name="bracketleft" xMin="87" yMin="-152" xMax="298" yMax="708">
      <contour>
        <pt x="87" y="708" on="1"/>
        <pt x="298" y="708" on="1"/>
        <pt x="298" y="630" on="1"/>
        <pt x="197" y="630" on="1"/>
        <pt x="197" y="-74" on="1"/>
        <pt x="298" y="-74" on="1"/>
        <pt x="298" y="-152" on="1"/>
        <pt x="87" y="-152" on="1"/>
      </contour>
    </TTGlyph>
    <TTGlyph name="bracketright" xMin="46" yMin="-152" xMax="257" yMax="708">
      <contour>
        <pt x="148" y="-74" on="1"/>
        <pt x="148" y="630" on="1"/>
        <pt x="46" y="630" on="1"/>
        <pt x="46" y="708" on="1"/>
        <pt x="257" y="708" on="1"/>
        <pt x="257" y="-152" on="1"/>
        <pt x="46" y="-152" on="1"/>
        <pt x="46" y="-74" on="1"/>
      </contour>
    </TTGlyph>
    <TTGlyph name="breve" xMin="139" yMin="574" xMax="417" yMax="713">
      <component glyphName="uni0306" x="278" y="0" flags="0x4"/>
    </TTGlyph>
    <TTGlyph name="brokenbar" xMin="86" yMin="-250" xMax="182" yMax="750">
      <contour>
        <pt x="86" y="750" on="1"/>
        <pt x="182" y="750" on="1"/>
        <pt x="182" y="312" on="1"/>
        <pt x="86" y="312" on="1"/>
      </contour>
      <contour>
        <pt x="182" y="204" on="1"/>
        <pt x="182" y="-250" on="1"/>
        <pt x="86" y="-250" on="1"/>
        <pt x="86" y="204" on="1"/>
      </contour>
    </TTGlyph>
    <TTGlyph name="bullet" xMin="40" yMin="123" xMax="305" yMax="401">
      <contour>
        <pt x="172" y="123" on="1"/>
        <pt x="144" y="123" on="0"/>
        <pt x="96" y="144" on="0"/>
        <pt x="60" y="182" on="0"/>
        <pt x="40" y="232" on="0"/>
        <pt x="40" y="262" on="1"/>
        <pt x="40" y="292" on="0"/>
        <pt x="60" y="343" on="0"/>
        <pt x="96" y="380" on="0"/>
        <pt x="144" y="401" on="0"/>
        <pt x="172" y="401" on="1"/>
        <pt x="200" y="401" on="0"/>
        <pt x="249" y="380" on="0"/>
        <pt x="285" y="343" on="0"/>
        <pt x="305" y="292" on="0"/>
        <pt x="305" y="262" on="1"/>
        <pt x="305" y="232" on="0"/>
        <pt x="285" y="182" on="0"/>
        <pt x="249" y="144" on="0"/>
        <pt x="200" y="123" on="0"/>
      </contour>
    </TTGlyph>
    <TTGlyph name="c" xMin="36" yMin="-12" xMax="446" yMax="508">
      <contour>
        <pt x="36" y="248" on="1"/>
        <pt x="36" y="310" on="0"/>
        <pt x="78" y="407" on="0"/>
        <pt x="149" y="473" on="0"/>
        <pt x="243" y="508" on="0"/>
        <pt x="294" y="508" on="1"/>
        <pt x="340" y="508" on="0"/>
        <pt x="414" y="477" on="0"/>
        <pt x="439" y="451" on="1"/>
        <pt x="372" y="360" on="1"/>
        <pt x="337" y="389" on="0"/>
        <pt x="303" y="389" on="1"/>
        <pt x="249" y="389" on="0"/>
        <pt x="187" y="313" on="0"/>
        <pt x="187" y="248" on="1"/>
        <pt x="187" y="183" on="0"/>
        <pt x="250" y="107" on="0"/>
        <pt x="298" y="107" on="1"/>
        <pt x="325" y="107" on="0"/>
        <pt x="369" y="129" on="0"/>
        <pt x="387" y="143" on="1"/>
        <pt x="446" y="50" on="1"/>
        <pt x="410" y="18" on="0"/>
        <pt x="322" y="-12" on="0"/>
        <pt x="281" y="-12" on="1"/>
        <pt x="229" y="-12" on="0"/>
        <pt x="140" y="23" on="0"/>
        <pt x="74" y="89" on="0"/>
        <pt x="36" y="186" on="0"/>
      </contour>
    </TTGlyph>
    <TTGlyph name="c.sups" xMin="24" yMin="254" xMax="300" yMax="599">
      <contour>
        <pt x="187" y="254" on="1"/>
        <pt x="152" y="254" on="0"/>
        <pt x="92" y="277" on="0"/>
        <pt x="48" y="321" on="0"/>
        <pt x="24" y="385" on="0"/>
        <pt x="24" y="426" on="1"/>
        <pt x="24" y="466" on="0"/>
        <pt x="51" y="531" on="0"/>
        <pt x="97" y="575" on="0"/>
        <pt x="158" y="599" on="0"/>
        <pt x="192" y="599" on="1"/>
        <pt x="230" y="599" on="0"/>
        <pt x="283" y="577" on="0"/>
        <pt x="296" y="565" on="1"/>
        <pt x="248" y="498" on="1"/>
        <pt x="237" y="507" on="0"/>
        <pt x="215" y="517" on="0"/>
        <pt x="201" y="517" on="1"/>
        <pt x="170" y="517" on="0"/>
        <pt x="130" y="467" on="0"/>
        <pt x="130" y="426" on="1"/>
        <pt x="130" y="385" on="0"/>
        <pt x="168" y="336" on="0"/>
        <pt x="200" y="336" on="1"/>
        <pt x="221" y="336" on="0"/>
        <pt x="247" y="349" on="0"/>
        <pt x="258" y="358" on="1"/>
        <pt x="300" y="292" on="1"/>
        <pt x="283" y="278" on="0"/>
        <pt x="227" y="254" on="0"/>
      </contour>
    </TTGlyph>
    <TTGlyph name="cacute" xMin="36" yMin="-12" xMax="446" yMax="724">
      <component glyphName="c" x="0" y="0" flags="0x204"/>
      <component glyphName="uni0301" x="290" y="0" flags="0x4"/>
    </TTGlyph>
    <TTGlyph name="caron" xMin="124" yMin="574" xMax="432" yMax="724">
      <component glyphName="uni030C" x="278" y="0" flags="0x4"/>
    </TTGlyph>
    <TTGlyph name="ccaron" xMin="36" yMin="-12" xMax="446" yMax="724">
      <component glyphName="c" x="0" y="0" flags="0x204"/>
      <component glyphName="uni030C" x="290" y="0" flags="0x4"/>
    </TTGlyph>
    <TTGlyph name="ccedilla" xMin="36" yMin="-221" xMax="446" yMax="508">
      <component glyphName="c" x="0" y="0" flags="0x204"/>
      <component glyphName="uni0327" x="282" y="0" flags="0x4"/>
    </TTGlyph>
    <TTGlyph name="ccircumflex" xMin="36" yMin="-12" xMax="446" yMax="724">
      <component glyphName="c" x="0" y="0" flags="0x204"/>
      <component glyphName="uni0302" x="290" y="0" flags="0x4"/>
    </TTGlyph>
    <TTGlyph name="cdotaccent" xMin="36" yMin="-12" xMax="446" yMax="723">
      <component glyphName="c" x="0" y="0" flags="0x204"/>
      <component glyphName="uni0307" x="290" y="0" flags="0x4"/>
    </TTGlyph>
    <TTGlyph name="cedilla" xMin="176" yMin="-221" xMax="364" yMax="4">
      <component glyphName="uni0327" x="279" y="0" flags="0x4"/>
    </TTGlyph>
    <TTGlyph name="cent" xMin="60" yMin="-41" xMax="487" yMax="655">
      <contour>
        <pt x="275" y="432" on="1"/>
        <pt x="239" y="416" on="0"/>
        <pt x="203" y="352" on="0"/>
        <pt x="203" y="307" on="1"/>
        <pt x="203" y="262" on="0"/>
        <pt x="240" y="197" on="0"/>
        <pt x="275" y="182" on="1"/>
      </contour>
      <contour>
        <pt x="487" y="113" on="1"/>
        <pt x="458" y="88" on="0"/>
        <pt x="390" y="59" on="0"/>
        <pt x="356" y="54" on="1"/>
        <pt x="356" y="-41" on="1"/>
        <pt x="275" y="-41" on="1"/>
        <pt x="275" y="54" on="1"/>
        <pt x="226" y="60" on="0"/>
        <pt x="147" y="100" on="0"/>
        <pt x="91" y="165" on="0"/>
        <pt x="60" y="253" on="0"/>
        <pt x="60" y="307" on="1"/>
        <pt x="60" y="360" on="0"/>
        <pt x="92" y="446" on="0"/>
        <pt x="150" y="509" on="0"/>
        <pt x="228" y="550" on="0"/>
        <pt x="275" y="558" on="1"/>
        <pt x="275" y="655" on="1"/>
        <pt x="356" y="655" on="1"/>
        <pt x="356" y="562" on="1"/>
        <pt x="395" y="558" on="0"/>
        <pt x="458" y="529" on="0"/>
        <pt x="480" y="506" on="1"/>
        <pt x="413" y="416" on="1"/>
        <pt x="383" y="440" on="0"/>
        <pt x="356" y="443" on="1"/>
        <pt x="356" y="171" on="1"/>
        <pt x="377" y="175" on="0"/>
        <pt x="413" y="194" on="0"/>
        <pt x="428" y="206" on="1"/>
      </contour>
    </TTGlyph>
    <TTGlyph name="circumflex" xMin="124" yMin="574" xMax="432" yMax="724">
      <component glyphName="uni0302" x="278" y="0" flags="0x4"/>
    </TTGlyph>
    <TTGlyph name="colon" xMin="61" yMin="-12" xMax="239" yMax="497">
      <component glyphName="period" x="0" y="324" flags="0x204"/>
      <component glyphName="period" x="0" y="0" flags="0x4"/>
    </TTGlyph>
    <TTGlyph name="colon.sups" xMin="41" yMin="432" xMax="167" yMax="768">
      <contour>
        <pt x="41" y="496" on="1"/>
        <pt x="41" y="523" on="0"/>
        <pt x="77" y="561" on="0"/>
        <pt x="104" y="561" on="1"/>
        <pt x="131" y="561" on="0"/>
        <pt x="167" y="523" on="0"/>
        <pt x="167" y="496" on="1"/>
        <pt x="167" y="468" on="0"/>
        <pt x="131" y="432" on="0"/>
        <pt x="104" y="432" on="1"/>
        <pt x="77" y="432" on="0"/>
        <pt x="41" y="468" on="0"/>
      </contour>
      <contour>
        <pt x="41" y="703" on="1"/>
        <pt x="41" y="731" on="0"/>
        <pt x="77" y="768" on="0"/>
        <pt x="104" y="768" on="1"/>
        <pt x="131" y="768" on="0"/>
        <pt x="167" y="731" on="0"/>
        <pt x="167" y="703" on="1"/>
        <pt x="167" y="675" on="0"/>
        <pt x="131" y="639" on="0"/>
        <pt x="104" y="639" on="1"/>
        <pt x="77" y="639" on="0"/>
        <pt x="41" y="675" on="0"/>
      </contour>
    </TTGlyph>
    <TTGlyph name="colonmonetary" xMin="54" yMin="-110" xMax="516" yMax="745">
      <contour>
        <pt x="271" y="121" on="1"/>
        <pt x="286" y="110" on="0"/>
        <pt x="309" y="105" on="1"/>
        <pt x="359" y="531" on="1"/>
        <pt x="354" y="532" on="0"/>
        <pt x="345" y="533" on="0"/>
        <pt x="340" y="533" on="1"/>
        <pt x="335" y="533" on="0"/>
        <pt x="325" y="533" on="0"/>
        <pt x="320" y="532" on="1"/>
      </contour>
      <contour>
        <pt x="267" y="510" on="1"/>
        <pt x="235" y="485" on="0"/>
        <pt x="202" y="388" on="0"/>
        <pt x="202" y="319" on="1"/>
        <pt x="202" y="232" on="0"/>
        <pt x="227" y="176" on="1"/>
      </contour>
      <contour>
        <pt x="516" y="80" on="1"/>
        <pt x="481" y="39" on="0"/>
        <pt x="396" y="-7" on="0"/>
        <pt x="345" y="-11" on="1"/>
        <pt x="333" y="-110" on="1"/>
        <pt x="283" y="-110" on="1"/>
        <pt x="295" y="-11" on="1"/>
        <pt x="284" y="-9" on="0"/>
        <pt x="265" y="-6" on="0"/>
        <pt x="256" y="-4" on="1"/>
        <pt x="243" y="-110" on="1"/>
        <pt x="193" y="-110" on="1"/>
        <pt x="208" y="13" on="1"/>
        <pt x="138" y="47" on="0"/>
        <pt x="54" y="197" on="0"/>
        <pt x="54" y="314" on="1"/>
        <pt x="54" y="383" on="0"/>
        <pt x="87" y="495" on="0"/>
        <pt x="147" y="578" on="0"/>
        <pt x="232" y="631" on="0"/>
        <pt x="283" y="641" on="1"/>
        <pt x="295" y="745" on="1"/>
        <pt x="345" y="745" on="1"/>
        <pt x="333" y="647" on="1"/>
        <pt x="344" y="647" on="1"/>
        <pt x="352" y="647" on="0"/>
        <pt x="365" y="646" on="0"/>
        <pt x="373" y="645" on="1"/>
        <pt x="385" y="745" on="1"/>
        <pt x="435" y="745" on="1"/>
        <pt x="421" y="632" on="1"/>
        <pt x="447" y="621" on="0"/>
        <pt x="495" y="585" on="0"/>
        <pt x="515" y="561" on="1"/>
        <pt x="434" y="481" on="1"/>
        <pt x="420" y="496" on="0"/>
        <pt x="407" y="508" on="1"/>
        <pt x="359" y="104" on="1"/>
        <pt x="401" y="114" on="0"/>
        <pt x="434" y="156" on="1"/>
      </contour>
    </TTGlyph>
    <TTGlyph name="comma" xMin="46" yMin="-194" xMax="256" yMax="173">
      <contour>
        <pt x="46" y="-116" on="1"/>
        <pt x="101" y="-96" on="0"/>
        <pt x="159" y="-32" on="0"/>
        <pt x="159" y="6" on="1"/>
        <pt x="151" y="6" on="1"/>
        <pt x="116" y="6" on="0"/>
        <pt x="62" y="49" on="0"/>
        <pt x="62" y="89" on="1"/>
        <pt x="62" y="127" on="0"/>
        <pt x="116" y="173" on="0"/>
        <pt x="154" y="173" on="1"/>
        <pt x="204" y="173" on="0"/>
        <pt x="256" y="100" on="0"/>
        <pt x="256" y="34" on="1"/>
        <pt x="256" y="-49" on="0"/>
        <pt x="164" y="-168" on="0"/>
        <pt x="76" y="-194" on="1"/>
      </contour>
    </TTGlyph>
    <TTGlyph name="comma.dnom" xMin="31" yMin="-130" xMax="177" yMax="121">
      <contour>
        <pt x="31" y="-75" on="1"/>
        <pt x="69" y="-63" on="0"/>
        <pt x="108" y="-28" on="0"/>
        <pt x="108" y="1" on="1"/>
        <pt x="104" y="1" on="1"/>
        <pt x="79" y="1" on="0"/>
        <pt x="41" y="32" on="0"/>
        <pt x="41" y="61" on="1"/>
        <pt x="41" y="87" on="0"/>
        <pt x="79" y="121" on="0"/>
        <pt x="106" y="121" on="1"/>
        <pt x="140" y="121" on="0"/>
        <pt x="177" y="71" on="0"/>
        <pt x="177" y="24" on="1"/>
        <pt x="177" y="-33" on="0"/>
        <pt x="113" y="-113" on="0"/>
        <pt x="53" y="-130" on="1"/>
      </contour>
    </TTGlyph>
    <TTGlyph name="comma.numr" xMin="31" yMin="132" xMax="177" yMax="383">
      <component glyphName="comma.dnom" x="0" y="262" flags="0x204"/>
    </TTGlyph>
    <TTGlyph name="comma.subs" xMin="31" yMin="-383" xMax="177" yMax="-132">
      <component glyphName="comma.dnom" x="0" y="-253" flags="0x204"/>
    </TTGlyph>
    <TTGlyph name="comma.sups" xMin="31" yMin="310" xMax="177" yMax="561">
      <component glyphName="comma.dnom" x="0" y="440" flags="0x204"/>
    </TTGlyph>
    <TTGlyph name="copyright" xMin="45" yMin="-9" xMax="704" yMax="655">
      <contour>
        <pt x="45" y="325" on="1"/>
        <pt x="45" y="403" on="0"/>
        <pt x="98" y="525" on="0"/>
        <pt x="189" y="610" on="0"/>
        <pt x="309" y="655" on="0"/>
        <pt x="375" y="655" on="1"/>
        <pt x="441" y="655" on="0"/>
        <pt x="561" y="610" on="0"/>
        <pt x="651" y="525" on="0"/>
        <pt x="704" y="402" on="0"/>
        <pt x="704" y="325" on="1"/>
        <pt x="704" y="247" on="0"/>
        <pt x="651" y="124" on="0"/>
        <pt x="561" y="37" on="0"/>
        <pt x="441" y="-9" on="0"/>
        <pt x="375" y="-9" on="1"/>
        <pt x="309" y="-9" on="0"/>
        <pt x="189" y="37" on="0"/>
        <pt x="98" y="124" on="0"/>
        <pt x="45" y="247" on="0"/>
      </contour>
      <contour>
        <pt x="113" y="325" on="1"/>
        <pt x="113" y="263" on="0"/>
        <pt x="154" y="163" on="0"/>
        <pt x="224" y="91" on="0"/>
        <pt x="320" y="52" on="0"/>
        <pt x="375" y="52" on="1"/>
        <pt x="430" y="52" on="0"/>
        <pt x="526" y="91" on="0"/>
        <pt x="596" y="163" on="0"/>
        <pt x="637" y="263" on="0"/>
        <pt x="637" y="325" on="1"/>
        <pt x="637" y="386" on="0"/>
        <pt x="596" y="486" on="0"/>
        <pt x="526" y="557" on="0"/>
        <pt x="430" y="595" on="0"/>
        <pt x="375" y="595" on="1"/>
        <pt x="320" y="595" on="0"/>
        <pt x="224" y="557" on="0"/>
        <pt x="154" y="486" on="0"/>
        <pt x="113" y="386" on="0"/>
      </contour>
      <contour>
        <pt x="194" y="324" on="1"/>
        <pt x="194" y="368" on="0"/>
        <pt x="226" y="439" on="0"/>
        <pt x="279" y="489" on="0"/>
        <pt x="349" y="516" on="0"/>
        <pt x="387" y="516" on="1"/>
        <pt x="433" y="516" on="0"/>
        <pt x="495" y="481" on="0"/>
        <pt x="519" y="457" on="1"/>
        <pt x="464" y="396" on="1"/>
        <pt x="448" y="413" on="0"/>
        <pt x="416" y="430" on="0"/>
        <pt x="396" y="430" on="1"/>
        <pt x="348" y="430" on="0"/>
        <pt x="299" y="369" on="0"/>
        <pt x="299" y="324" on="1"/>
        <pt x="299" y="273" on="0"/>
        <pt x="349" y="213" on="0"/>
        <pt x="391" y="213" on="1"/>
        <pt x="416" y="213" on="0"/>
        <pt x="452" y="232" on="0"/>
        <pt x="471" y="247" on="1"/>
        <pt x="519" y="179" on="1"/>
        <pt x="490" y="156" on="0"/>
        <pt x="426" y="127" on="0"/>
        <pt x="387" y="127" on="1"/>
        <pt x="345" y="127" on="0"/>
        <pt x="274" y="155" on="0"/>
        <pt x="223" y="206" on="0"/>
        <pt x="194" y="279" on="0"/>
      </contour>
    </TTGlyph>
</ttFont>
